{
.appVersion = "1230";
DisplayStrings = (
"Ø",
"H/Etapsiliperispomeniprosgegrammeni"
);
copyright = "Copyright © 2019 by Abbie Gonzalez. All rights reserved.";
customParameters = (
{
name = panose;
value = (
0,
0,
5,
0,
0,
0,
0,
0,
0,
0
);
},
{
name = unicodeRanges;
value = (
0,
1,
2,
3,
4,
5,
6,
7,
9,
29,
30,
31,
32,
33,
36,
45
);
},
{
name = codePageRanges;
value = (
1252,
1250,
1251,
1253,
1254,
1257,
1258,
bit 29
);
},
{
name = blueScale;
value = 0.037;
},
{
name = blueShift;
value = 3;
}
);
date = "2019-08-22 11:19:42 +0000";
designer = "Abbie Gonzalez";
designerURL = "https://abbiecod.es";
familyName = OpenDyslexic;
fontMaster = (
{
alignmentZones = (
"{800, 16}",
"{700, 16}",
"{500, 16}",
"{0, -16}",
"{-200, -16}"
);
ascender = 800;
capHeight = 700;
custom = Italic;
customParameters = (
{
name = typoAscender;
value = 800;
},
{
name = typoDescender;
value = -200;
},
{
name = typoLineGap;
value = 200;
},
{
name = winAscent;
value = 1000;
},
{
name = winDescent;
value = 200;
},
{
name = hheaAscender;
value = 1000;
},
{
name = hheaDescender;
value = -200;
},
{
name = strikeoutPosition;
value = 300;
},
{
name = strikeoutSize;
value = 50;
}
);
descender = -200;
horizontalStems = (
49,
59,
67,
73,
91,
95,
101,
121,
133,
152,
156
);
id = "4FCB07EB-01E7-4D87-AA20-FCB2BF85BBFF";
italicAngle = 20;
verticalStems = (
41,
57,
70,
80,
88
);
weightValue = 400;
widthValue = 5;
xHeight = 500;
},
{
alignmentZones = (
"{800, 16}",
"{700, 16}",
"{500, 16}",
"{0, -16}",
"{-200, -16}"
);
ascender = 800;
capHeight = 700;
custom = Italic;
customParameters = (
{
name = typoAscender;
value = 800;
},
{
name = typoDescender;
value = -200;
},
{
name = typoLineGap;
value = 200;
},
{
name = winAscent;
value = 1000;
},
{
name = winDescent;
value = 200;
},
{
name = hheaAscender;
value = 1000;
},
{
name = hheaDescender;
value = -200;
},
{
name = strikeoutPosition;
value = 300;
},
{
name = strikeoutSize;
value = 50;
}
);
descender = -200;
horizontalStems = (
49,
59,
67,
73,
91,
95,
101,
121,

glyphs = (
{
glyphname = A;
lastChange = "2019-08-30 20:47:54 +0000";
layers = (
{
anchors = (
{
name = ctop;
position = "{580, 777}";
},
{
name = top;
position = "{413, 668}";
}
);
hints = (
{
horizontal = 1;
place = "{0, 21}";
target = up;
type = BottomGhost;
},
{
horizontal = 1;
place = "{119, 116}";
type = Stem;
}
);
layerId = "4FCB07EB-01E7-4D87-AA20-FCB2BF85BBFF";
paths = (
{
closed = 1;
nodes = (
"40 0 LINE",
"162 0 LINE",
"232 119 LINE",
"532 119 LINE",
"522 0 LINE",
"652 0 LINE",
"606 729 LINE",
"520 729 LINE"
);
},
{
closed = 1;
nodes = (
"539 235 LINE",
"293 235 LINE",
"539 668 LINE"
);
}
);
width = 692;
},
{
anchors = (
{
name = ctop;
position = "{580, 777}";
},
{
name = top;
position = "{413, 668}";
}
);
hints = (
{
horizontal = 1;
place = "{0, 21}";
target = up;
type = BottomGhost;
},
{
horizontal = 1;
place = "{119, 116}";
type = Stem;
}
);
layerId = "FBE4A9D6-0C93-4AEC-8266-BAD92744962A";
paths = (
{
closed = 1;
nodes = (
"12 -15 LINE",
"171 -15 LINE",
"241 104 LINE",
"516 104 LINE",
"506 -15 LINE",
"668 -15 LINE",
"620 744 LINE",
"512 744 LINE"
);
},
{
closed = 1;
nodes = (
"524 250 LINE",
"319 250 LINE",
"524 611 LINE"
);
}
);
width = 692;
}
);
note = A;
unicode = 0041;
},
{
glyphname = Abrevedotbelow;
lastChange = "2019-08-30 20:47:54 +0000";
layers = (
{
layerId = "4FCB07EB-01E7-4D87-AA20-FCB2BF85BBFF";
paths = (
{
closed = 1;
nodes = (
"676 791 OFFCURVE",
"785 865 OFFCURVE",
"821 988 CURVE",
"762 988 LINE",
"736 901 OFFCURVE",
"693 886 OFFCURVE",
"607 886 CURVE SMOOTH",
"534 886 OFFCURVE",
"496 900 OFFCURVE",
"521 988 CURVE",
"461 988 LINE",
"425 865 OFFCURVE",
"481 791 OFFCURVE",
"579 791 CURVE SMOOTH"
);
},
{
closed = 1;
nodes = (
"606 729 LINE",
"521 729 LINE",
"40 0 LINE",
"163 0 LINE",
"232 119 LINE",
"533 119 LINE",
"523 0 LINE",
"652 0 LINE"
);
},
{
closed = 1;
nodes = (
"294 235 LINE",
"544 668 LINE",
"540 235 LINE"
);
},
{
closed = 1;
nodes = (
"269 -136 LINE",
"361 -136 LINE",
"391 -35 LINE",
"299 -35 LINE"
);
}
);
width = 861;
},
{
layerId = "FBE4A9D6-0C93-4AEC-8266-BAD92744962A";
paths = (
{
closed = 1;
nodes = (
"697 776 OFFCURVE",
"812 873 OFFCURVE",
"840 1003 CURVE",
"751 1003 LINE",
"729 922 OFFCURVE",
"701 901 OFFCURVE",
"607 901 CURVE SMOOTH",
"524 901 OFFCURVE",
"514 920 OFFCURVE",
"541 1003 CURVE",
"450 1003 LINE",
"407 871 OFFCURVE",
"462 776 OFFCURVE",
"579 776 CURVE SMOOTH"
);
},
{
closed = 1;
nodes = (
"620 744 LINE",
"513 744 LINE",
"12 -15 LINE",
"172 -15 LINE",
"241 104 LINE",
"517 104 LINE",
"507 -15 LINE",
"668 -15 LINE"
);
},
{
closed = 1;
nodes = (
"320 250 LINE",
"528 611 LINE",
"525 250 LINE"
);
},
{
closed = 1;
nodes = (
"249 -151 LINE",
"372 -151 LINE",
"411 -20 LINE",
"288 -20 LINE"
);
}
);
width = 861;
}
);
note = uni1EB6;
unicode = 1EB6;
},
{
glyphname = Abrevegrave;
lastChange = "2019-08-30 20:47:54 +0000";
layers = (
{
layerId = "4FCB07EB-01E7-4D87-AA20-FCB2BF85BBFF";
paths = (
{
closed = 1;
nodes = (
"736 988 LINE",
"618 1115 LINE",
"545 1115 LINE",
"619 1003 LINE"
);
},
{
closed = 1;
nodes = (
"676 791 OFFCURVE",
"785 865 OFFCURVE",
"821 988 CURVE",
"761 988 LINE",
"735 901 OFFCURVE",
"693 886 OFFCURVE",
"607 886 CURVE SMOOTH",
"534 886 OFFCURVE",
"496 900 OFFCURVE",
"521 988 CURVE",
"461 988 LINE",
"425 865 OFFCURVE",
"481 791 OFFCURVE",
"579 791 CURVE SMOOTH"
);
},
{
closed = 1;
nodes = (
"606 729 LINE",
"521 729 LINE",
"40 0 LINE",
"163 0 LINE",
"232 119 LINE",
"533 119 LINE",
"523 0 LINE",
"652 0 LINE"
);
},
{
closed = 1;
nodes = (
"294 235 LINE",
"545 668 LINE",
"540 235 LINE"
);
}
);
width = 861;
},
{
layerId = "FBE4A9D6-0C93-4AEC-8266-BAD92744962A";
paths = (
{
closed = 1;
nodes = (
"775 968 LINE",
"625 1130 LINE",
"517 1130 LINE",
"610 989 LINE"
);
},
{
closed = 1;
nodes = (
"697 776 OFFCURVE",
"812 873 OFFCURVE",
"840 1003 CURVE",
"750 1003 LINE",
"728 922 OFFCURVE",
"701 901 OFFCURVE",
"607 901 CURVE SMOOTH",
"524 901 OFFCURVE",
"514 920 OFFCURVE",
"541 1003 CURVE",
"450 1003 LINE",
"407 871 OFFCURVE",
"462 776 OFFCURVE",
"579 776 CURVE SMOOTH"
);
},
{
closed = 1;
nodes = (
"620 744 LINE",
"513 744 LINE",
"12 -15 LINE",
"172 -15 LINE",
"241 104 LINE",
"517 104 LINE",
"507 -15 LINE",
"668 -15 LINE"
);
},
{
closed = 1;
nodes = (
"320 250 LINE",
"529 611 LINE",
"525 250 LINE"
);
}
);
width = 861;
}
);
note = uni1EB0;
unicode = 1EB0;
},
{
glyphname = Abrevehookabove;
lastChange = "2019-08-30 20:47:54 +0000";
layers = (
{
layerId = "4FCB07EB-01E7-4D87-AA20-FCB2BF85BBFF";
paths = (
{
closed = 1;
nodes = (
"681 1038 OFFCURVE",
"674 1032 OFFCURVE",
"666 1027 CURVE",
"653 1018 LINE SMOOTH",
"644 1012 OFFCURVE",
"638 1008 OFFCURVE",
"634 1003 CURVE",
"631 999 OFFCURVE",
"628 993 OFFCURVE",
"627 987 CURVE SMOOTH",
"626 984 LINE",
"651 984 LINE",
"652 989 OFFCURVE",
"655 993 OFFCURVE",
"657 996 CURVE",
"658 997 OFFCURVE",
"661 1000 OFFCURVE",
"668 1004 CURVE SMOOTH",
"679 1011 LINE SMOOTH",
"696 1021 OFFCURVE",
"705 1032 OFFCURVE",
"708 1042 CURVE SMOOTH",
"710 1052 OFFCURVE",
"708 1062 OFFCURVE",
"701 1068 CURVE SMOOTH",
"693 1074 OFFCURVE",
"684 1078 OFFCURVE",
"668 1078 CURVE SMOOTH",
"653 1078 OFFCURVE",
"636 1074 OFFCURVE",
"617 1066 CURVE",
"611 1045 LINE",
"628 1053 OFFCURVE",
"642 1058 OFFCURVE",
"656 1058 CURVE SMOOTH",
"677 1058 OFFCURVE",
"683 1050 OFFCURVE",
"682 1044 CURVE SMOOTH"
);
},
{
closed = 1;
nodes = (
"675 791 OFFCURVE",
"784 865 OFFCURVE",
"820 988 CURVE",
"761 988 LINE",
"735 901 OFFCURVE",
"692 886 OFFCURVE",
"606 886 CURVE SMOOTH",
"533 886 OFFCURVE",
"495 900 OFFCURVE",
"520 988 CURVE",
"460 988 LINE",
"424 865 OFFCURVE",
"480 791 OFFCURVE",
"578 791 CURVE SMOOTH"
);
},
{
closed = 1;
nodes = (
"606 729 LINE",
"520 729 LINE",
"40 0 LINE",
"162 0 LINE",
"233 119 LINE",
"533 119 LINE",
"522 0 LINE",
"651 0 LINE"
);
},
{
closed = 1;
nodes = (
"293 235 LINE",
"543 668 LINE",
"539 235 LINE"
);
}
);
width = 860;
},
{
layerId = "FBE4A9D6-0C93-4AEC-8266-BAD92744962A";
paths = (
{
closed = 1;
nodes = (
"667 1047 OFFCURVE",
"662 1042 OFFCURVE",
"658 1040 CURVE",
"645 1030 LINE",
"632 1022 OFFCURVE",
"627 1018 OFFCURVE",
"622 1012 CURVE SMOOTH",
"617 1006 OFFCURVE",
"614 998 OFFCURVE",
"612 991 CURVE SMOOTH",
"605 969 LINE",
"663 969 LINE",
"666 981 OFFCURVE",
"667 984 OFFCURVE",
"669 986 CURVE",
"670 988 OFFCURVE",
"672 989 OFFCURVE",
"676 991 CURVE",
"687 998 LINE SMOOTH",
"712 1013 OFFCURVE",
"727 1035 OFFCURVE",
"723 1055 CURVE",
"722 1065 OFFCURVE",
"718 1073 OFFCURVE",
"710 1080 CURVE",
"698 1089 OFFCURVE",
"685 1093 OFFCURVE",
"668 1093 CURVE SMOOTH",
"649 1093 OFFCURVE",
"627 1087 OFFCURVE",
"605 1077 CURVE",
"588 1017 LINE",
"636 1040 OFFCURVE",
"646 1043 OFFCURVE",
"656 1043 CURVE SMOOTH",
"669 1043 OFFCURVE",
"667 1046 OFFCURVE",
"667 1046 CURVE"
);
},
{
closed = 1;
nodes = (
"696 776 OFFCURVE",
"811 873 OFFCURVE",
"839 1003 CURVE",
"750 1003 LINE",
"728 922 OFFCURVE",
"700 901 OFFCURVE",
"606 901 CURVE SMOOTH",
"523 901 OFFCURVE",
"513 920 OFFCURVE",
"540 1003 CURVE",
"449 1003 LINE",
"406 871 OFFCURVE",
"461 776 OFFCURVE",
"578 776 CURVE SMOOTH"
);
},
{
closed = 1;
nodes = (
"620 744 LINE",
"512 744 LINE",
"12 -15 LINE",
"171 -15 LINE",
"242 104 LINE",
"517 104 LINE",
"506 -15 LINE",
"667 -15 LINE"
);
},
{
closed = 1;
nodes = (
"319 250 LINE",
"527 611 LINE",
"524 250 LINE"
);
}
);
width = 860;
}
);
note = uni1EB2;
unicode = 1EB2;
},
{
glyphname = Abrevetilde;
lastChange = "2019-08-30 20:47:54 +0000";
layers = (
{
layerId = "4FCB07EB-01E7-4D87-AA20-FCB2BF85BBFF";
paths = (
{
closed = 1;
nodes = (
"652 1104 OFFCURVE",
"639 1001 OFFCURVE",
"705 1000 CURVE SMOOTH",
"754 999 OFFCURVE",
"783 1004 OFFCURVE",
"828 1150 CURVE",
"786 1150 LINE",
"769 1101 OFFCURVE",
"764 1050 OFFCURVE",
"718 1050 CURVE SMOOTH",
"678 1050 OFFCURVE",
"693 1150 OFFCURVE",
"633 1150 CURVE SMOOTH",
"568 1150 OFFCURVE",
"543 1117 OFFCURVE",
"501 1000 CURVE",
"552 1000 LINE",
"564 1043 OFFCURVE",
"582 1106 OFFCURVE",
"618 1105 CURVE SMOOTH"
);
},
{
closed = 1;
nodes = (
"676 791 OFFCURVE",
"785 865 OFFCURVE",
"821 988 CURVE",
"761 988 LINE",
"735 901 OFFCURVE",
"693 886 OFFCURVE",
"607 886 CURVE SMOOTH",
"534 886 OFFCURVE",
"495 900 OFFCURVE",
"520 988 CURVE",
"461 988 LINE",
"425 865 OFFCURVE",
"481 791 OFFCURVE",
"579 791 CURVE SMOOTH"
);
},
{
closed = 1;
nodes = (
"606 729 LINE",
"521 729 LINE",
"40 0 LINE",
"163 0 LINE",
"232 119 LINE",
"533 119 LINE",
"523 0 LINE",
"652 0 LINE"
);
},
{
closed = 1;
nodes = (
"293 235 LINE",
"544 668 LINE",
"540 235 LINE"
);
}
);
width = 868;
},
{
layerId = "FBE4A9D6-0C93-4AEC-8266-BAD92744962A";
paths = (
{
closed = 1;
nodes = (
"627 1090 OFFCURVE",
"634 986 OFFCURVE",
"705 985 CURVE SMOOTH",
"780 983 OFFCURVE",
"805 1020 OFFCURVE",
"848 1165 CURVE",
"775 1165 LINE",
"754 1109 OFFCURVE",
"753 1065 OFFCURVE",
"718 1065 CURVE SMOOTH",
"700 1065 OFFCURVE",
"704 1165 OFFCURVE",
"633 1165 CURVE SMOOTH",
"558 1165 OFFCURVE",
"529 1127 OFFCURVE",
"480 985 CURVE",
"563 985 LINE",
"584 1061 OFFCURVE",
"600 1090 OFFCURVE",
"618 1090 CURVE SMOOTH"
);
},
{
closed = 1;
nodes = (
"697 776 OFFCURVE",
"812 873 OFFCURVE",
"840 1003 CURVE",
"750 1003 LINE",
"728 922 OFFCURVE",
"701 901 OFFCURVE",
"607 901 CURVE SMOOTH",
"523 901 OFFCURVE",
"513 920 OFFCURVE",
"540 1003 CURVE",
"450 1003 LINE",
"407 871 OFFCURVE",
"462 776 OFFCURVE",
"579 776 CURVE SMOOTH"
);
},
{
closed = 1;
nodes = (
"620 744 LINE",
"513 744 LINE",
"12 -15 LINE",
"172 -15 LINE",
"241 104 LINE",
"517 104 LINE",
"507 -15 LINE",
"668 -15 LINE"
);
},
{
closed = 1;
nodes = (
"319 250 LINE",
"528 611 LINE",
"525 250 LINE"
);
}
);
width = 868;
}
);
note = uni1EB4;
unicode = 1EB4;
},
{
glyphname = Acircumflexdotbelow;
lastChange = "2019-08-30 20:47:54 +0000";
layers = (
{
layerId = "4FCB07EB-01E7-4D87-AA20-FCB2BF85BBFF";
paths = (
{
closed = 1;
nodes = (
"626 1007 LINE",
"567 943 LINE",
"406 812 LINE",
"455 812 LINE",
"615 911 LINE",
"718 812 LINE",
"768 812 LINE",
"687 943 LINE",
"670 1007 LINE"
);
},
{
closed = 1;
nodes = (
"40 0 LINE",
"162 0 LINE",
"231 119 LINE",
"531 119 LINE",
"522 0 LINE",
"652 0 LINE",
"606 729 LINE",
"520 729 LINE"
);
},
{
closed = 1;
nodes = (
"538 235 LINE",
"292 235 LINE",
"543 668 LINE"
);
},
{
closed = 1;
nodes = (
"298 -35 LINE",
"267 -136 LINE",
"360 -136 LINE",
"390 -35 LINE"
);
}
);
width = 808;
},
{
layerId = "FBE4A9D6-0C93-4AEC-8266-BAD92744962A";
paths = (
{
closed = 1;
nodes = (
"619 1022 LINE",
"557 954 LINE",
"364 797 LINE",
"459 797 LINE",
"613 892 LINE",
"712 797 LINE",
"795 797 LINE",
"701 949 LINE",
"682 1022 LINE"
);
},
{
closed = 1;
nodes = (
"12 -15 LINE",
"171 -15 LINE",
"240 104 LINE",
"515 104 LINE",
"506 -15 LINE",
"668 -15 LINE",
"620 744 LINE",
"512 744 LINE"
);
},
{
closed = 1;
nodes = (
"523 250 LINE",
"318 250 LINE",
"527 611 LINE"
);
},
{
closed = 1;
nodes = (
"287 -20 LINE",
"247 -151 LINE",
"371 -151 LINE",
"410 -20 LINE"
);
}
);
width = 808;
}
);
note = uni1EAC;
unicode = 1EAC;
},
{
glyphname = Acircumflexgrave;
lastChange = "2019-08-30 20:47:54 +0000";
layers = (
{
layerId = "4FCB07EB-01E7-4D87-AA20-FCB2BF85BBFF";
paths = (
{
closed = 1;
nodes = (
"822 905 LINE",
"939 890 LINE",
"822 1017 LINE",
"749 1017 LINE"
);
},
{
closed = 1;
nodes = (
"619 988 LINE",
"560 924 LINE",
"399 793 LINE",
"448 793 LINE",
"610 892 LINE",
"712 793 LINE",
"762 793 LINE",
"680 924 LINE",
"663 988 LINE"
);
},
{
closed = 1;
nodes = (
"40 0 LINE",
"163 0 LINE",
"232 119 LINE",
"532 119 LINE",
"523 0 LINE",
"652 0 LINE",
"606 729 LINE",
"521 729 LINE"
);
},
{
closed = 1;
nodes = (
"539 235 LINE",
"293 235 LINE",
"544 668 LINE"
);
}
);
width = 979;
},
{
layerId = "FBE4A9D6-0C93-4AEC-8266-BAD92744962A";
paths = (
{
closed = 1;
nodes = (
"813 891 LINE",
"978 870 LINE",
"829 1032 LINE",
"721 1032 LINE"
);
},
{
closed = 1;
nodes = (
"612 1003 LINE",
"550 935 LINE",
"357 778 LINE",
"452 778 LINE",
"608 873 LINE",
"706 778 LINE",
"789 778 LINE",
"694 930 LINE",
"675 1003 LINE"
);
},
{
closed = 1;
nodes = (
"12 -15 LINE",
"172 -15 LINE",
"241 104 LINE",
"516 104 LINE",
"507 -15 LINE",
"668 -15 LINE",
"620 744 LINE",
"513 744 LINE"
);
},
{
closed = 1;
nodes = (
"524 250 LINE",
"319 250 LINE",
"528 611 LINE"
);
}
);
width = 979;
}
);
note = uni1EA6;
unicode = 1EA6;
},
{
glyphname = Acircumflextilde;
lastChange = "2019-08-30 20:47:54 +0000";
layers = (
{
layerId = "4FCB07EB-01E7-4D87-AA20-FCB2BF85BBFF";
paths = (
{
closed = 1;
nodes = (
"577 1036 LINE",
"589 1079 OFFCURVE",
"609 1142 OFFCURVE",
"644 1141 CURVE SMOOTH",
"678 1140 OFFCURVE",
"664 1037 OFFCURVE",
"730 1036 CURVE SMOOTH",
"779 1035 OFFCURVE",
"809 1040 OFFCURVE",
"854 1186 CURVE",
"812 1186 LINE",
"796 1137 OFFCURVE",
"791 1086 OFFCURVE",
"745 1086 CURVE SMOOTH",
"705 1086 OFFCURVE",
"718 1186 OFFCURVE",
"658 1186 CURVE SMOOTH",
"593 1186 OFFCURVE",
"569 1153 OFFCURVE",
"527 1036 CURVE"
);
},
{
closed = 1;
nodes = (
"625 1001 LINE",
"565 937 LINE",
"405 806 LINE",
"455 806 LINE",
"615 905 LINE",
"718 806 LINE",
"767 806 LINE",
"685 937 LINE",
"670 1001 LINE"
);
},
{
closed = 1;
nodes = (
"40 0 LINE",
"163 0 LINE",
"231 119 LINE",
"532 119 LINE",
"523 0 LINE",
"651 0 LINE",
"605 729 LINE",
"521 729 LINE"
);
},
{
closed = 1;
nodes = (
"539 235 LINE",
"292 235 LINE",
"544 668 LINE"
);
}
);
width = 894;
},
{
layerId = "FBE4A9D6-0C93-4AEC-8266-BAD92744962A";
paths = (
{
closed = 1;
nodes = (
"588 1021 LINE",
"607 1093 OFFCURVE",
"626 1127 OFFCURVE",
"644 1126 CURVE",
"652 1126 OFFCURVE",
"660 1022 OFFCURVE",
"730 1021 CURVE SMOOTH",
"805 1019 OFFCURVE",
"831 1056 OFFCURVE",
"874 1201 CURVE",
"801 1201 LINE",
"782 1146 OFFCURVE",
"780 1101 OFFCURVE",
"745 1101 CURVE SMOOTH",
"727 1101 OFFCURVE",
"729 1201 OFFCURVE",
"658 1201 CURVE SMOOTH",
"584 1201 OFFCURVE",
"556 1164 OFFCURVE",
"506 1021 CURVE"
);
},
{
closed = 1;
nodes = (
"619 1016 LINE",
"555 948 LINE",
"363 791 LINE",
"459 791 LINE",
"613 886 LINE",
"712 791 LINE",
"794 791 LINE",
"699 943 LINE",
"682 1016 LINE"
);
},
{
closed = 1;
nodes = (
"12 -15 LINE",
"172 -15 LINE",
"240 104 LINE",
"516 104 LINE",
"507 -15 LINE",
"667 -15 LINE",
"619 744 LINE",
"513 744 LINE"
);
},
{
closed = 1;
nodes = (
"524 250 LINE",
"318 250 LINE",
"528 611 LINE"
);
}
);
width = 894;
}
);
note = uni1EAA;
unicode = 1EAA;
},
{
glyphname = Adieresismacron;
lastChange = "2019-08-30 20:47:54 +0000";
layers = (
{
layerId = "4FCB07EB-01E7-4D87-AA20-FCB2BF85BBFF";
paths = (
{
closed = 1;
nodes = (
"466 983 LINE",
"417 913 LINE",
"831 930 LINE",
"827 1007 LINE"
);
},
{
closed = 1;
nodes = (
"424 831 LINE",
"395 730 LINE",
"487 730 LINE",
"517 831 LINE"
);
},
{
closed = 1;
nodes = (
"673 831 LINE",
"644 730 LINE",
"736 730 LINE",
"765 831 LINE"
);
},
{
closed = 1;
nodes = (
"40 0 LINE",
"163 0 LINE",
"231 119 LINE",
"532 119 LINE",
"523 0 LINE",
"652 0 LINE",
"606 729 LINE",
"521 729 LINE"
);
},
{
closed = 1;
nodes = (
"539 235 LINE",
"293 235 LINE",
"544 668 LINE"
);
}
);
width = 871;
},
{
layerId = "FBE4A9D6-0C93-4AEC-8266-BAD92744962A";
paths = (
{
closed = 1;
nodes = (
"458 997 LINE",
"387 897 LINE",
"847 916 LINE",
"841 1023 LINE"
);
},
{
closed = 1;
nodes = (
"413 846 LINE",
"375 715 LINE",
"498 715 LINE",
"537 846 LINE"
);
},
{
closed = 1;
nodes = (
"662 846 LINE",
"624 715 LINE",
"747 715 LINE",
"785 846 LINE"
);
},
{
closed = 1;
nodes = (
"12 -15 LINE",
"172 -15 LINE",
"240 104 LINE",
"516 104 LINE",
"507 -15 LINE",
"668 -15 LINE",
"620 744 LINE",
"513 744 LINE"
);
},
{
closed = 1;
nodes = (
"524 250 LINE",
"319 250 LINE",
"528 611 LINE"
);
}
);
width = 871;
}
);
note = uni01DE;
unicode = 01DE;
},
{
glyphname = Adotbelow;
lastChange = "2019-08-30 20:47:54 +0000";
layers = (
{
layerId = "4FCB07EB-01E7-4D87-AA20-FCB2BF85BBFF";
paths = (
{
closed = 1;
nodes = (
"40 0 LINE",
"162 0 LINE",
"232 119 LINE",
"532 119 LINE",
"522 0 LINE",
"652 0 LINE",
"606 729 LINE",
"520 729 LINE"
);
},
{
closed = 1;
nodes = (
"539 235 LINE",
"293 235 LINE",
"544 668 LINE"
);
},
{
closed = 1;
nodes = (
"298 -35 LINE",
"268 -136 LINE",
"360 -136 LINE",
"391 -35 LINE"
);
}
);
width = 692;
},
{
layerId = "FBE4A9D6-0C93-4AEC-8266-BAD92744962A";
paths = (
{
closed = 1;
nodes = (
"12 -15 LINE",
"171 -15 LINE",
"241 104 LINE",
"516 104 LINE",
"506 -15 LINE",
"668 -15 LINE",
"620 744 LINE",
"512 744 LINE"
);
},
{
closed = 1;
nodes = (
"524 250 LINE",
"319 250 LINE",
"528 611 LINE"
);
},
{
closed = 1;
nodes = (
"287 -20 LINE",
"248 -151 LINE",
"371 -151 LINE",
"411 -20 LINE"
);
}
);
width = 692;
}
);
note = uni1EA0;
unicode = 1EA0;
},
{
glyphname = Ahookabove;
lastChange = "2019-08-30 20:47:54 +0000";
layers = (
{
layerId = "4FCB07EB-01E7-4D87-AA20-FCB2BF85BBFF";
paths = (
{
closed = 1;
nodes = (
"546 838 LINE",
"565 846 OFFCURVE",
"581 850 OFFCURVE",
"596 850 CURVE SMOOTH",
"612 850 OFFCURVE",
"622 846 OFFCURVE",
"630 840 CURVE SMOOTH",
"638 834 OFFCURVE",
"640 824 OFFCURVE",
"638 814 CURVE SMOOTH",
"636 804 OFFCURVE",
"625 793 OFFCURVE",
"609 783 CURVE SMOOTH",
"597 776 LINE SMOOTH",
"590 772 OFFCURVE",
"587 769 OFFCURVE",
"585 768 CURVE",
"584 765 OFFCURVE",
"582 761 OFFCURVE",
"581 756 CURVE",
"556 756 LINE",
"555 759 LINE",
"557 765 OFFCURVE",
"560 771 OFFCURVE",
"563 775 CURVE",
"567 780 OFFCURVE",
"574 784 OFFCURVE",
"583 790 CURVE",
"595 799 LINE",
"604 804 OFFCURVE",
"609 810 OFFCURVE",
"610 816 CURVE SMOOTH",
"612 822 OFFCURVE",
"607 830 OFFCURVE",
"586 830 CURVE SMOOTH",
"572 830 OFFCURVE",
"557 825 OFFCURVE",
"541 817 CURVE"
);
},
{
closed = 1;
nodes = (
"40 0 LINE",
"162 0 LINE",
"231 119 LINE",
"531 119 LINE",
"522 0 LINE",
"652 0 LINE",
"606 729 LINE",
"520 729 LINE"
);
},
{
closed = 1;
nodes = (
"538 235 LINE",
"293 235 LINE",
"543 668 LINE"
);
}
);
width = 692;
},
{
layerId = "FBE4A9D6-0C93-4AEC-8266-BAD92744962A";
paths = (
{
closed = 1;
nodes = (
"559 827 LINE",
"574 833 OFFCURVE",
"585 835 OFFCURVE",
"596 835 CURVE SMOOTH",
"607 835 OFFCURVE",
"614 833 OFFCURVE",
"621 828 CURVE SMOOTH",
"624 826 OFFCURVE",
"625 823 OFFCURVE",
"623 817 CURVE",
"622 812 OFFCURVE",
"615 804 OFFCURVE",
"601 796 CURVE SMOOTH",
"589 789 LINE",
"586 787 OFFCURVE",
"578 781 OFFCURVE",
"573 779 CURVE",
"572 776 OFFCURVE",
"571 774 OFFCURVE",
"570 771 CURVE",
"567 771 LINE",
"571 759 LINE",
"572 762 OFFCURVE",
"574 764 OFFCURVE",
"575 766 CURVE",
"577 768 OFFCURVE",
"582 772 OFFCURVE",
"592 778 CURVE",
"603 786 LINE",
"614 793 OFFCURVE",
"622 802 OFFCURVE",
"625 812 CURVE",
"630 832 OFFCURVE",
"612 845 OFFCURVE",
"586 845 CURVE SMOOTH",
"571 845 OFFCURVE",
"554 840 OFFCURVE",
"563 845 CURVE"
);
},
{
closed = 1;
nodes = (
"12 -15 LINE",
"171 -15 LINE",
"240 104 LINE",
"515 104 LINE",
"506 -15 LINE",
"668 -15 LINE",
"620 744 LINE",
"512 744 LINE"
);
},
{
closed = 1;
nodes = (
"523 250 LINE",
"319 250 LINE",
"527 611 LINE"
);
}
);
width = 692;
}
);
note = uni1EA2;
unicode = 1EA2;
},
{
glyphname = "Alpha-latin";
lastChange = "2019-08-30 20:47:54 +0000";
layers = (
{
layerId = "4FCB07EB-01E7-4D87-AA20-FCB2BF85BBFF";
paths = (
{
closed = 1;
nodes = (
"613 602 LINE",
"578 655 OFFCURVE",
"547 677 OFFCURVE",
"499 677 CURVE SMOOTH",
"490 677 OFFCURVE",
"480 676 OFFCURVE",
"469 674 CURVE SMOOTH",
"375 660 OFFCURVE",
"227 548 OFFCURVE",
"133 387 CURVE SMOOTH",
"93 318 OFFCURVE",
"68 261 OFFCURVE",
"54 214 CURVE SMOOTH",
"-6 13 OFFCURVE",
"137 -14 OFFCURVE",
"253 -14 CURVE SMOOTH",
"326 -14 OFFCURVE",
"402 17 OFFCURVE",
"456 82 CURVE",
"432 0 LINE",
"530 0 LINE",
"552 75 OFFCURVE",
"530 60 OFFCURVE",
"610 329 CURVE SMOOTH",
"692 605 OFFCURVE",
"721 600 OFFCURVE",
"742 673 CURVE",
"655 673 LINE"
);
},
{
closed = 1;
nodes = (
"252 485 OFFCURVE",
"390 600 OFFCURVE",
"448 610 CURVE",
"457 612 OFFCURVE",
"469 613 OFFCURVE",
"481 613 CURVE SMOOTH",
"535 613 OFFCURVE",
"594 581 OFFCURVE",
"539 396 CURVE SMOOTH",
"531 368 OFFCURVE",
"519 335 OFFCURVE",
"505 299 CURVE SMOOTH",
"454 173 OFFCURVE",
"453 138 OFFCURVE",
"287 138 CURVE SMOOTH",
"174 138 OFFCURVE",
"122 205 OFFCURVE",
"149 296 CURVE SMOOTH",
"155 314 OFFCURVE",
"163 333 OFFCURVE",
"174 352 CURVE SMOOTH"
);
}
);
width = 782;
},
{
layerId = "FBE4A9D6-0C93-4AEC-8266-BAD92744962A";
paths = (
{
closed = 1;
nodes = (
"612 630 LINE",
"578 674 OFFCURVE",
"545 692 OFFCURVE",
"499 692 CURVE SMOOTH",
"489 692 OFFCURVE",
"479 691 OFFCURVE",
"467 689 CURVE SMOOTH",
"358 673 OFFCURVE",
"208 545 OFFCURVE",
"120 395 CURVE SMOOTH",
"82 329 OFFCURVE",
"55 270 OFFCURVE",
"40 218 CURVE SMOOTH",
"-25 1 OFFCURVE",
"136 -29 OFFCURVE",
"253 -29 CURVE SMOOTH",
"316 -29 OFFCURVE",
"377 -7 OFFCURVE",
"426 31 CURVE",
"412 -15 LINE",
"541 -15 LINE",
"565 60 OFFCURVE",
"555 91 OFFCURVE",
"624 325 CURVE SMOOTH",
"708 606 OFFCURVE",
"735 581 OFFCURVE",
"761 688 CURVE",
"646 688 LINE"
);
},
{
closed = 1;
nodes = (
"264 475 OFFCURVE",
"397 586 OFFCURVE",
"451 595 CURVE",
"459 597 OFFCURVE",
"470 598 OFFCURVE",
"481 598 CURVE SMOOTH",
"550 598 OFFCURVE",
"564 534 OFFCURVE",
"525 400 CURVE SMOOTH",
"517 373 OFFCURVE",
"505 340 OFFCURVE",
"491 305 CURVE SMOOTH",
"439 176 OFFCURVE",
"438 153 OFFCURVE",
"287 153 CURVE SMOOTH",
"187 153 OFFCURVE",
"139 208 OFFCURVE",
"163 291 CURVE SMOOTH",
"169 310 OFFCURVE",
"177 328 OFFCURVE",
"187 344 CURVE SMOOTH"
);
}
);
width = 782;
}
);
note = uni2C6D;
unicode = 2C6D;
},
{
glyphname = Amacron;
lastChange = "2019-08-30 20:47:54 +0000";
layers = (
{
layerId = "4FCB07EB-01E7-4D87-AA20-FCB2BF85BBFF";
paths = (
{
closed = 1;
nodes = (
"437 891 LINE",
"388 821 LINE",
"800 838 LINE",
"797 915 LINE"
);
},
{
closed = 1;
nodes = (
"40 0 LINE",
"162 0 LINE",
"231 119 LINE",
"531 119 LINE",
"522 0 LINE",
"652 0 LINE",
"605 729 LINE",
"520 729 LINE"
);
},
{
closed = 1;
nodes = (
"539 235 LINE",
"292 235 LINE",
"543 668 LINE"
);
}
);
width = 840;
},
{
layerId = "FBE4A9D6-0C93-4AEC-8266-BAD92744962A";
paths = (
{
closed = 1;
nodes = (
"429 905 LINE",
"358 805 LINE",
"816 824 LINE",
"811 931 LINE"
);
},
{
closed = 1;
nodes = (
"12 -15 LINE",
"171 -15 LINE",
"240 104 LINE",
"515 104 LINE",
"506 -15 LINE",
"668 -15 LINE",
"619 744 LINE",
"512 744 LINE"
);
},
{
closed = 1;
nodes = (
"524 250 LINE",
"318 250 LINE",
"527 611 LINE"
);
}
);
width = 840;
}
);
note = Amacron;
unicode = 0100;
},
{
glyphname = Aogonek;
lastChange = "2019-08-30 20:47:54 +0000";
layers = (
{
layerId = "4FCB07EB-01E7-4D87-AA20-FCB2BF85BBFF";
paths = (
{
closed = 1;
nodes = (
"669 729 LINE",
"584 729 LINE",
"103 0 LINE",
"160 0 LINE",
"91 -50 OFFCURVE",
"54 -94 OFFCURVE",
"43 -129 CURVE SMOOTH",
"26 -185 OFFCURVE",
"79 -217 OFFCURVE",
"185 -215 CURVE",
"187 -198 OFFCURVE",
"193 -165 OFFCURVE",
"197 -145 CURVE",
"177 -148 OFFCURVE",
"157 -150 OFFCURVE",
"143 -150 CURVE SMOOTH",
"106 -150 OFFCURVE",
"92 -139 OFFCURVE",
"98 -119 CURVE SMOOTH",
"105 -95 OFFCURVE",
"144 -55 OFFCURVE",
"214 0 CURVE",
"226 0 LINE",
"295 119 LINE",
"596 119 LINE",
"586 0 LINE",
"715 0 LINE"
);
},
{
closed = 1;
nodes = (
"357 235 LINE",
"607 668 LINE",
"603 235 LINE"
);
}
);
width = 755;
},
{
layerId = "FBE4A9D6-0C93-4AEC-8266-BAD92744962A";
paths = (
{
closed = 1;
nodes = (
"683 744 LINE",
"576 744 LINE",
"75 -15 LINE",
"116 -15 LINE",
"69 -54 OFFCURVE",
"39 -91 OFFCURVE",
"29 -125 CURVE SMOOTH",
"8 -192 OFFCURVE",
"69 -232 OFFCURVE",
"185 -230 CURVE",
"200 -217 LINE",
"203 -192 OFFCURVE",
"215 -131 OFFCURVE",
"216 -127 CURVE",
"186 -132 OFFCURVE",
"159 -135 OFFCURVE",
"143 -135 CURVE SMOOTH",
"115 -135 OFFCURVE",
"110 -131 OFFCURVE",
"112 -123 CURVE",
"118 -103 OFFCURVE",
"155 -66 OFFCURVE",
"219 -15 CURVE",
"235 -15 LINE",
"304 104 LINE",
"580 104 LINE",
"570 -15 LINE",
"731 -15 LINE"
);
},
{
closed = 1;
nodes = (
"383 250 LINE",
"591 611 LINE",
"588 250 LINE"
);
}
);
width = 755;
}
);
note = Aogonek;
unicode = 0104;
},
{
glyphname = B;
lastChange = "2019-08-30 20:47:54 +0000";
layers = (
{
layerId = "4FCB07EB-01E7-4D87-AA20-FCB2BF85BBFF";
paths = (
{
closed = 1;
nodes = (
"40 0 LINE",
"280 0 LINE SMOOTH",
"431 0 OFFCURVE",
"523 0 OFFCURVE",
"584 204 CURVE SMOOTH",
"614 303 OFFCURVE",
"581 372 OFFCURVE",
"469 393 CURVE",
"546 406 OFFCURVE",
"601 459 OFFCURVE",
"628 549 CURVE SMOOTH",
"662 664 OFFCURVE",
"604 729 OFFCURVE",
"466 729 CURVE SMOOTH",
"258 729 LINE"
);
},
{
closed = 1;
nodes = (
"463 663 LINE SMOOTH",
"551 663 OFFCURVE",
"578 612 OFFCURVE",
"556 538 CURVE SMOOTH",
"534 464 OFFCURVE",
"480 428 OFFCURVE",
"392 428 CURVE SMOOTH",
"259 428 LINE",
"329 663 LINE"
);
},
{
closed = 1;
nodes = (
"379 348 LINE SMOOTH",
"427 348 OFFCURVE",
"462 338 OFFCURVE",
"478 316 CURVE SMOOTH",
"496 293 OFFCURVE",
"503 268 OFFCURVE",
"497 248 CURVE SMOOTH",
"472 160 OFFCURVE",
"416 145 OFFCURVE",
"319 145 CURVE SMOOTH",
"174 145 LINE",
"234 348 LINE"
);
}
);
width = 678;
},
{
layerId = "FBE4A9D6-0C93-4AEC-8266-BAD92744962A";
paths = (
{
closed = 1;
nodes = (
"20 -15 LINE",
"280 -15 LINE SMOOTH",
"431 -15 OFFCURVE",
"534 -15 OFFCURVE",
"598 200 CURVE SMOOTH",
"627 294 OFFCURVE",
"600 361 OFFCURVE",
"522 393 CURVE",
"579 419 OFFCURVE",
"620 471 OFFCURVE",
"642 545 CURVE SMOOTH",
"679 670 OFFCURVE",
"614 744 OFFCURVE",
"466 744 CURVE SMOOTH",
"247 744 LINE"
);
},
{
closed = 1;
nodes = (
"463 648 LINE SMOOTH",
"535 648 OFFCURVE",
"562 612 OFFCURVE",
"542 542 CURVE SMOOTH",
"522 475 OFFCURVE",
"474 443 OFFCURVE",
"392 443 CURVE SMOOTH",
"279 443 LINE",
"340 648 LINE"
);
},
{
closed = 1;
nodes = (
"379 333 LINE SMOOTH",
"424 333 OFFCURVE",
"454 324 OFFCURVE",
"466 307 CURVE SMOOTH",
"481 287 OFFCURVE",
"487 268 OFFCURVE",
"483 252 CURVE",
"462 181 OFFCURVE",
"425 160 OFFCURVE",
"319 160 CURVE SMOOTH",
"194 160 LINE",
"245 333 LINE"
);
}
);
width = 678;
}
);
note = B;
unicode = 0042;
},
{
glyphname = Bdotbelow;
lastChange = "2019-08-30 20:47:54 +0000";
layers = (
{
layerId = "4FCB07EB-01E7-4D87-AA20-FCB2BF85BBFF";
paths = (
{
closed = 1;
nodes = (
"40 0 LINE",
"280 0 LINE SMOOTH",
"431 0 OFFCURVE",
"523 0 OFFCURVE",
"584 204 CURVE SMOOTH",
"614 303 OFFCURVE",
"582 372 OFFCURVE",
"470 393 CURVE",
"547 406 OFFCURVE",
"601 459 OFFCURVE",
"628 549 CURVE SMOOTH",
"662 664 OFFCURVE",
"604 729 OFFCURVE",
"466 729 CURVE SMOOTH",
"258 729 LINE"
);
},
{
closed = 1;
nodes = (
"463 663 LINE SMOOTH",
"551 663 OFFCURVE",
"578 612 OFFCURVE",
"556 538 CURVE SMOOTH",
"534 464 OFFCURVE",
"481 428 OFFCURVE",
"393 428 CURVE SMOOTH",
"259 428 LINE",
"329 663 LINE"
);
},
{
closed = 1;
nodes = (
"379 348 LINE SMOOTH",
"427 348 OFFCURVE",
"462 338 OFFCURVE",
"478 316 CURVE SMOOTH",
"496 293 OFFCURVE",
"503 268 OFFCURVE",
"497 248 CURVE SMOOTH",
"472 160 OFFCURVE",
"416 145 OFFCURVE",
"319 145 CURVE SMOOTH",
"174 145 LINE",
"234 348 LINE"
);
},
{
closed = 1;
nodes = (
"217 -59 LINE",
"188 -160 LINE",
"281 -160 LINE",
"310 -59 LINE"
);
}
);
width = 678;
},
{
layerId = "FBE4A9D6-0C93-4AEC-8266-BAD92744962A";
paths = (
{
closed = 1;
nodes = (
"20 -15 LINE",
"280 -15 LINE SMOOTH",
"431 -15 OFFCURVE",
"534 -15 OFFCURVE",
"598 200 CURVE SMOOTH",
"627 294 OFFCURVE",
"600 361 OFFCURVE",
"523 393 CURVE",
"579 419 OFFCURVE",
"620 470 OFFCURVE",
"642 545 CURVE SMOOTH",
"679 670 OFFCURVE",
"614 744 OFFCURVE",
"466 744 CURVE SMOOTH",
"247 744 LINE"
);
},
{
closed = 1;
nodes = (
"463 648 LINE SMOOTH",
"535 648 OFFCURVE",
"562 612 OFFCURVE",
"542 542 CURVE SMOOTH",
"522 475 OFFCURVE",
"474 443 OFFCURVE",
"393 443 CURVE SMOOTH",
"279 443 LINE",
"340 648 LINE"
);
},
{
closed = 1;
nodes = (
"379 333 LINE SMOOTH",
"424 333 OFFCURVE",
"454 324 OFFCURVE",
"466 307 CURVE SMOOTH",
"481 287 OFFCURVE",
"487 268 OFFCURVE",
"483 252 CURVE",
"462 181 OFFCURVE",
"425 160 OFFCURVE",
"319 160 CURVE SMOOTH",
"194 160 LINE",
"245 333 LINE"
);
},
{
closed = 1;
nodes = (
"206 -44 LINE",
"168 -175 LINE",
"292 -175 LINE",
"330 -44 LINE"
);
}
);
width = 678;
}
);
note = uni1E04;
unicode = 1E04;
},
{
glyphname = Bhook;
lastChange = "2019-08-30 20:47:54 +0000";
layers = (
{
layerId = "4FCB07EB-01E7-4D87-AA20-FCB2BF85BBFF";
paths = (
{
closed = 1;
nodes = (
"567 406 OFFCURVE",
"623 459 OFFCURVE",
"650 549 CURVE SMOOTH",
"684 664 OFFCURVE",
"626 729 OFFCURVE",
"488 729 CURVE SMOOTH",
"278 729 LINE",
"279 728 LINE",
"169 718 OFFCURVE",
"85 611 OFFCURVE",
"59 524 CURVE SMOOTH",
"40 457 LINE",
"70 358 LINE",
"81 394 OFFCURVE",
"101 464 OFFCURVE",
"117 500 CURVE SMOOTH",
"141 552 OFFCURVE",
"182 596 OFFCURVE",
"241 600 CURVE",
"62 0 LINE",
"302 0 LINE SMOOTH",
"453 0 OFFCURVE",
"544 0 OFFCURVE",
"605 204 CURVE SMOOTH",
"635 303 OFFCURVE",
"602 372 OFFCURVE",
"490 393 CURVE"
);
},
{
closed = 1;
nodes = (
"350 663 LINE",
"483 663 LINE SMOOTH",
"571 663 OFFCURVE",
"599 612 OFFCURVE",
"577 538 CURVE SMOOTH",
"555 464 OFFCURVE",
"502 428 OFFCURVE",
"414 428 CURVE SMOOTH",
"280 428 LINE"
);
},
{
closed = 1;
nodes = (
"196 145 LINE",
"256 348 LINE",
"401 348 LINE SMOOTH",
"449 348 OFFCURVE",
"484 338 OFFCURVE",
"500 316 CURVE SMOOTH",
"518 293 OFFCURVE",
"525 268 OFFCURVE",
"519 248 CURVE SMOOTH",
"494 160 OFFCURVE",
"437 145 OFFCURVE",
"340 145 CURVE SMOOTH"
);
}
);
width = 700;
},
{
layerId = "FBE4A9D6-0C93-4AEC-8266-BAD92744962A";
paths = (
{
closed = 1;
nodes = (
"600 419 OFFCURVE",
"642 471 OFFCURVE",
"664 545 CURVE SMOOTH",
"701 670 OFFCURVE",
"636 744 OFFCURVE",
"488 744 CURVE SMOOTH",
"242 744 LINE",
"248 738 LINE",
"158 715 OFFCURVE",
"75 630 OFFCURVE",
"45 528 CURVE SMOOTH",
"24 457 LINE",
"70 306 LINE",
"95 390 OFFCURVE",
"115 459 OFFCURVE",
"131 494 CURVE SMOOTH",
"152 541 OFFCURVE",
"183 571 OFFCURVE",
"220 581 CURVE",
"42 -15 LINE",
"302 -15 LINE SMOOTH",
"453 -15 OFFCURVE",
"555 -15 OFFCURVE",
"619 200 CURVE SMOOTH",
"648 294 OFFCURVE",
"621 361 OFFCURVE",
"543 393 CURVE"
);
},
{
closed = 1;
nodes = (
"361 648 LINE",
"483 648 LINE SMOOTH",
"556 648 OFFCURVE",
"583 611 OFFCURVE",
"563 542 CURVE SMOOTH",
"543 475 OFFCURVE",
"495 443 OFFCURVE",
"414 443 CURVE SMOOTH",
"300 443 LINE"
);
},
{
closed = 1;
nodes = (
"216 160 LINE",
"267 333 LINE",
"401 333 LINE SMOOTH",
"446 333 OFFCURVE",
"476 324 OFFCURVE",
"488 307 CURVE SMOOTH",
"503 287 OFFCURVE",
"509 268 OFFCURVE",
"505 252 CURVE SMOOTH",
"485 182 OFFCURVE",
"446 160 OFFCURVE",
"340 160 CURVE SMOOTH"
);
}
);
width = 700;
}
);
note = uni0181;
unicode = 0181;
},
{
glyphname = Bstroke;
lastChange = "2019-08-30 20:47:54 +0000";
layers = (
{
layerId = "4FCB07EB-01E7-4D87-AA20-FCB2BF85BBFF";
paths = (
{
closed = 1;
nodes = (
"615 406 OFFCURVE",
"669 459 OFFCURVE",
"696 549 CURVE SMOOTH",
"730 664 OFFCURVE",
"672 729 OFFCURVE",
"534 729 CURVE SMOOTH",
"326 729 LINE",
"194 284 LINE",
"67 284 LINE",
"40 193 LINE",
"166 193 LINE",
"108 0 LINE",
"348 0 LINE SMOOTH",
"499 0 OFFCURVE",
"591 0 OFFCURVE",
"652 204 CURVE SMOOTH",
"682 303 OFFCURVE",
"650 372 OFFCURVE",
"538 393 CURVE"
);
},
{
closed = 1;
nodes = (
"397 663 LINE",
"531 663 LINE SMOOTH",
"619 663 OFFCURVE",
"646 612 OFFCURVE",
"624 538 CURVE SMOOTH",
"602 464 OFFCURVE",
"549 428 OFFCURVE",
"461 428 CURVE SMOOTH",
"327 428 LINE"
);
},
{
closed = 1;
nodes = (
"242 145 LINE",
"258 193 LINE",
"398 193 LINE",
"425 284 LINE",
"285 284 LINE",
"302 348 LINE",
"447 348 LINE SMOOTH",
"495 348 OFFCURVE",
"530 338 OFFCURVE",
"546 316 CURVE SMOOTH",
"564 293 OFFCURVE",
"571 268 OFFCURVE",
"565 248 CURVE SMOOTH",
"540 160 OFFCURVE",
"484 145 OFFCURVE",
"387 145 CURVE SMOOTH"
);
}
);
width = 746;
},
{
layerId = "FBE4A9D6-0C93-4AEC-8266-BAD92744962A";
paths = (
{
closed = 1;
nodes = (
"647 419 OFFCURVE",
"688 470 OFFCURVE",
"710 545 CURVE SMOOTH",
"747 670 OFFCURVE",
"682 744 OFFCURVE",
"534 744 CURVE SMOOTH",
"315 744 LINE",
"183 299 LINE",
"56 299 LINE",
"20 178 LINE",
"146 178 LINE",
"88 -15 LINE",
"348 -15 LINE SMOOTH",
"499 -15 OFFCURVE",
"602 -15 OFFCURVE",
"666 200 CURVE SMOOTH",
"695 294 OFFCURVE",
"668 361 OFFCURVE",
"591 393 CURVE"
);
},
{
closed = 1;
nodes = (
"408 648 LINE",
"531 648 LINE SMOOTH",
"603 648 OFFCURVE",
"630 612 OFFCURVE",
"610 542 CURVE SMOOTH",
"590 475 OFFCURVE",
"542 443 OFFCURVE",
"461 443 CURVE SMOOTH",
"347 443 LINE"
);
},
{
closed = 1;
nodes = (
"263 160 LINE",
"269 178 LINE",
"409 178 LINE",
"445 299 LINE",
"305 299 LINE",
"314 333 LINE",
"447 333 LINE SMOOTH",
"492 333 OFFCURVE",
"522 324 OFFCURVE",
"534 307 CURVE SMOOTH",
"549 287 OFFCURVE",
"555 268 OFFCURVE",
"551 252 CURVE",
"530 181 OFFCURVE",
"493 160 OFFCURVE",
"387 160 CURVE SMOOTH"
);
}
);
width = 746;
}
);
note = uni0243;
unicode = 0243;
},
{
glyphname = C;
lastChange = "2019-08-30 20:47:54 +0000";
layers = (
{
anchors = (
{
name = bottom;
position = "{382, 0}";
},
{
name = top;
position = "{549, 819}";
}
);
layerId = "4FCB07EB-01E7-4D87-AA20-FCB2BF85BBFF";
paths = (
{
closed = 1;
nodes = (
"723 732 LINE",
"645 744 OFFCURVE",
"624 746 OFFCURVE",
"543 746 CURVE SMOOTH",
"340 746 OFFCURVE",
"175 602 OFFCURVE",
"105 368 CURVE SMOOTH",
"-5 0 OFFCURVE",
"23 -13 OFFCURVE",
"197 -13 CURVE SMOOTH",
"482 -13 LINE",
"534 159 LINE",
"484 144 OFFCURVE",
"446 139 OFFCURVE",
"368 139 CURVE SMOOTH",
"216 139 OFFCURVE",
"132 197 OFFCURVE",
"184 368 CURVE SMOOTH",
"242 561 OFFCURVE",
"375 672 OFFCURVE",
"527 672 CURVE SMOOTH",
"605 672 OFFCURVE",
"604 672 OFFCURVE",
"687 656 CURVE"
);
}
);
width = 763;
},
{
anchors = (
{
name = bottom;
position = "{382, 0}";
},
{
name = top;
position = "{549, 819}";
}
);
layerId = "FBE4A9D6-0C93-4AEC-8266-BAD92744962A";
paths = (
{
closed = 1;
nodes = (
"745 744 LINE",
"650 759 OFFCURVE",
"631 761 OFFCURVE",
"543 761 CURVE SMOOTH",
"334 761 OFFCURVE",
"163 614 OFFCURVE",
"91 372 CURVE SMOOTH",
"-15 18 OFFCURVE",
"-5 -28 OFFCURVE",
"197 -28 CURVE SMOOTH",
"493 -28 LINE",
"557 182 LINE",
"492 160 OFFCURVE",
"456 154 OFFCURVE",
"368 154 CURVE SMOOTH",
"207 154 OFFCURVE",
"154 219 OFFCURVE",
"198 364 CURVE SMOOTH",
"253 546 OFFCURVE",
"378 657 OFFCURVE",
"527 657 CURVE SMOOTH",
"608 657 OFFCURVE",
"601 657 OFFCURVE",
"696 639 CURVE"
);
}
);
width = 763;
}
);
note = C;
unicode = 0043;
},
{
glyphname = Cacute;
lastChange = "2019-08-30 20:47:54 +0000";
layers = (
{
layerId = "4FCB07EB-01E7-4D87-AA20-FCB2BF85BBFF";
paths = (
{
closed = 1;
nodes = (
"576 942 LINE",
"461 788 LINE",
"531 788 LINE",
"623 942 LINE"
);
},
{
closed = 1;
nodes = (
"724 732 LINE",
"646 744 OFFCURVE",
"624 746 OFFCURVE",
"543 746 CURVE SMOOTH",
"340 746 OFFCURVE",
"175 602 OFFCURVE",
"105 368 CURVE SMOOTH",
"-5 0 OFFCURVE",
"24 -13 OFFCURVE",
"198 -13 CURVE SMOOTH",
"482 -13 LINE",
"534 159 LINE",
"484 144 OFFCURVE",
"446 139 OFFCURVE",
"368 139 CURVE SMOOTH",
"216 139 OFFCURVE",
"132 197 OFFCURVE",
"184 368 CURVE SMOOTH",
"242 561 OFFCURVE",
"375 672 OFFCURVE",
"527 672 CURVE SMOOTH",
"605 672 OFFCURVE",
"605 672 OFFCURVE",
"688 656 CURVE"
);
}
);
width = 764;
},
{
layerId = "FBE4A9D6-0C93-4AEC-8266-BAD92744962A";
paths = (
{
closed = 1;
nodes = (
"568 957 LINE",
"431 773 LINE",
"540 773 LINE",
"649 957 LINE"
);
},
{
closed = 1;
nodes = (
"746 744 LINE",
"651 759 OFFCURVE",
"631 761 OFFCURVE",
"543 761 CURVE SMOOTH",
"334 761 OFFCURVE",
"163 614 OFFCURVE",
"91 372 CURVE SMOOTH",
"-15 19 OFFCURVE",
"-4 -28 OFFCURVE",
"198 -28 CURVE SMOOTH",
"493 -28 LINE",
"557 182 LINE",
"492 160 OFFCURVE",
"456 154 OFFCURVE",
"368 154 CURVE SMOOTH",
"207 154 OFFCURVE",
"154 219 OFFCURVE",
"198 364 CURVE SMOOTH",
"253 546 OFFCURVE",
"378 657 OFFCURVE",
"527 657 CURVE SMOOTH",
"609 657 OFFCURVE",
"606 657 OFFCURVE",
"697 639 CURVE"
);
}
);
width = 764;
}
);
note = Cacute;
unicode = 0106;
},
{
glyphname = Cdotaccent;
lastChange = "2019-08-30 20:47:54 +0000";
layers = (
{
layerId = "4FCB07EB-01E7-4D87-AA20-FCB2BF85BBFF";
paths = (
{
closed = 1;
nodes = (
"499 911 LINE",
"469 810 LINE",
"561 810 LINE",
"591 911 LINE"
);
},
{
closed = 1;
nodes = (
"723 732 LINE",
"645 744 OFFCURVE",
"624 746 OFFCURVE",
"543 746 CURVE SMOOTH",
"340 746 OFFCURVE",
"175 602 OFFCURVE",
"105 368 CURVE SMOOTH",
"-5 0 OFFCURVE",
"23 -13 OFFCURVE",
"197 -13 CURVE SMOOTH",
"483 -13 LINE",
"533 159 LINE",
"483 144 OFFCURVE",
"446 139 OFFCURVE",
"368 139 CURVE SMOOTH",
"216 139 OFFCURVE",
"131 197 OFFCURVE",
"183 368 CURVE SMOOTH",
"241 561 OFFCURVE",
"374 672 OFFCURVE",
"526 672 CURVE SMOOTH",
"604 672 OFFCURVE",
"604 672 OFFCURVE",
"687 656 CURVE"
);
}
);
width = 763;
},
{
layerId = "FBE4A9D6-0C93-4AEC-8266-BAD92744962A";
paths = (
{
closed = 1;
nodes = (
"488 926 LINE",
"449 795 LINE",
"572 795 LINE",
"611 926 LINE"
);
},
{
closed = 1;
nodes = (
"745 744 LINE",
"650 759 OFFCURVE",
"631 761 OFFCURVE",
"543 761 CURVE SMOOTH",
"334 761 OFFCURVE",
"163 614 OFFCURVE",
"91 372 CURVE SMOOTH",
"-15 18 OFFCURVE",
"-5 -28 OFFCURVE",
"197 -28 CURVE SMOOTH",
"494 -28 LINE",
"555 182 LINE",
"490 160 OFFCURVE",
"456 154 OFFCURVE",
"368 154 CURVE SMOOTH",
"207 154 OFFCURVE",
"153 219 OFFCURVE",
"197 364 CURVE SMOOTH",
"252 546 OFFCURVE",
"377 657 OFFCURVE",
"526 657 CURVE SMOOTH",
"608 657 OFFCURVE",
"605 657 OFFCURVE",
"696 639 CURVE"
);
}
);
width = 763;
}
);
note = Cdotaccent;
unicode = 010A;
},
{
glyphname = Chook;
lastChange = "2019-08-30 20:47:54 +0000";
layers = (
{
layerId = "4FCB07EB-01E7-4D87-AA20-FCB2BF85BBFF";
paths = (
{
closed = 1;
nodes = (
"711 819 OFFCURVE",
"712 817 OFFCURVE",
"710 811 CURVE",
"704 792 LINE",
"703 790 LINE",
"688 737 LINE",
"637 745 OFFCURVE",
"611 746 OFFCURVE",
"544 746 CURVE SMOOTH",
"341 746 OFFCURVE",
"175 602 OFFCURVE",
"105 368 CURVE SMOOTH",
"-5 0 OFFCURVE",
"23 -13 OFFCURVE",
"197 -13 CURVE SMOOTH",
"483 -13 LINE",
"534 159 LINE",
"484 144 OFFCURVE",
"447 139 OFFCURVE",
"369 139 CURVE SMOOTH",
"217 139 OFFCURVE",
"132 197 OFFCURVE",
"184 368 CURVE SMOOTH",
"242 561 OFFCURVE",
"375 672 OFFCURVE",
"527 672 CURVE SMOOTH",
"597 672 OFFCURVE",
"604 672 OFFCURVE",
"664 660 CURVE",
"664 658 LINE",
"677 658 LINE",
"680 657 OFFCURVE",
"686 657 OFFCURVE",
"688 656 CURVE",
"689 658 LINE",
"702 658 LINE",
"741 790 LINE",
"744 798 OFFCURVE",
"745 804 OFFCURVE",
"747 811 CURVE",
"751 823 LINE SMOOTH",
"757 842 OFFCURVE",
"758 843 OFFCURVE",
"788 843 CURVE",
"797 876 LINE",
"741 877 OFFCURVE",
"730 874 OFFCURVE",
"716 831 CURVE"
);
}
);
width = 837;
},
{
layerId = "FBE4A9D6-0C93-4AEC-8266-BAD92744962A";
paths = (
{
closed = 1;
nodes = (
"697 825 OFFCURVE",
"696 816 OFFCURVE",
"696 816 CURVE",
"690 798 LINE",
"689 795 LINE",
"677 754 LINE",
"633 760 OFFCURVE",
"605 761 OFFCURVE",
"544 761 CURVE SMOOTH",
"335 761 OFFCURVE",
"163 613 OFFCURVE",
"91 372 CURVE SMOOTH",
"-15 18 OFFCURVE",
"-5 -28 OFFCURVE",
"197 -28 CURVE SMOOTH",
"494 -28 LINE",
"556 182 LINE",
"491 160 OFFCURVE",
"457 154 OFFCURVE",
"369 154 CURVE SMOOTH",
"208 154 OFFCURVE",
"154 219 OFFCURVE",
"198 364 CURVE SMOOTH",
"253 546 OFFCURVE",
"378 657 OFFCURVE",
"527 657 CURVE SMOOTH",
"597 657 OFFCURVE",
"603 657 OFFCURVE",
"649 648 CURVE",
"649 643 LINE",
"675 643 LINE",
"680 641 OFFCURVE",
"686 640 OFFCURVE",
"695 636 CURVE",
"698 643 LINE",
"713 643 LINE",
"755 785 LINE SMOOTH",
"758 794 OFFCURVE",
"760 801 OFFCURVE",
"761 807 CURVE",
"765 818 LINE SMOOTH",
"770 833 OFFCURVE",
"765 827 OFFCURVE",
"800 828 CURVE",
"816 890 LINE",
"736 893 OFFCURVE",
"719 888 OFFCURVE",
"702 836 CURVE"
);
}
);
width = 837;
}
);
note = uni0187;
unicode = 0187;
},
{
glyphname = D;
lastChange = "2019-08-30 20:47:54 +0000";
layers = (
{
anchors = (
{
name = bottom;
position = "{388, 0}";
},
{
name = center;
position = "{388, 350}";
},
{
name = top;
position = "{535, 800}";
}
);
layerId = "4FCB07EB-01E7-4D87-AA20-FCB2BF85BBFF";
paths = (
{
closed = 1;
nodes = (
"40 0 LINE",
"226 0 LINE SMOOTH",
"485 0 OFFCURVE",
"601 0 OFFCURVE",
"710 365 CURVE SMOOTH",
"785 615 OFFCURVE",
"702 729 OFFCURVE",
"443 729 CURVE SMOOTH",
"257 729 LINE"
);
},
{
closed = 1;
nodes = (
"440 659 LINE SMOOTH",
"624 659 OFFCURVE",
"699 573 OFFCURVE",
"646 393 CURVE SMOOTH",
"610 271 OFFCURVE",
"532 190 OFFCURVE",
"301 190 CURVE SMOOTH",
"192 190 LINE",
"331 659 LINE"
);
}
);
width = 776;
},
{
anchors = (
{
name = bottom;
position = "{388, 0}";
},
{
name = center;
position = "{388, 350}";
},
{
name = top;
position = "{535, 800}";
}
);
layerId = "FBE4A9D6-0C93-4AEC-8266-BAD92744962A";
paths = (
{
closed = 1;
nodes = (
"20 -15 LINE",
"226 -15 LINE SMOOTH",
"485 -15 OFFCURVE",
"612 -15 OFFCURVE",
"724 361 CURVE SMOOTH",
"802 621 OFFCURVE",
"712 744 OFFCURVE",
"443 744 CURVE SMOOTH",
"246 744 LINE"
);
},
{
closed = 1;
nodes = (
"440 644 LINE SMOOTH",
"618 644 OFFCURVE",
"681 563 OFFCURVE",
"632 397 CURVE SMOOTH",
"591 260 OFFCURVE",
"498 205 OFFCURVE",
"301 205 CURVE SMOOTH",
"212 205 LINE",
"342 644 LINE"
);
}
);
width = 776;
}
);
note = D;
unicode = 0044;
},
{
glyphname = DZ;
lastChange = "2019-08-30 20:47:54 +0000";
layers = (
{
layerId = "4FCB07EB-01E7-4D87-AA20-FCB2BF85BBFF";
paths = (
{
closed = 1;
nodes = (
"40 0 LINE",
"226 0 LINE SMOOTH",
"485 0 OFFCURVE",
"600 0 OFFCURVE",
"709 365 CURVE SMOOTH",
"784 615 OFFCURVE",
"701 729 OFFCURVE",
"442 729 CURVE SMOOTH",
"256 729 LINE"
);
},
{
closed = 1;
nodes = (
"1034 604 LINE",
"1016 681 LINE",
"1541 681 LINE",
"1519 606 LINE",
"904 146 LINE",
"1319 146 LINE",
"1320 6 LINE",
"747 0 LINE",
"789 139 LINE",
"1404 598 LINE"
);
},
{
closed = 1;
nodes = (
"440 659 LINE SMOOTH",
"624 659 OFFCURVE",
"698 573 OFFCURVE",
"645 393 CURVE SMOOTH",
"609 271 OFFCURVE",
"531 190 OFFCURVE",
"300 190 CURVE SMOOTH",
"192 190 LINE",
"331 659 LINE"
);
}
);
width = 1581;
},
{
layerId = "FBE4A9D6-0C93-4AEC-8266-BAD92744962A";
paths = (
{
closed = 1;
nodes = (
"20 -15 LINE",
"226 -15 LINE SMOOTH",
"485 -15 OFFCURVE",
"611 -15 OFFCURVE",
"723 361 CURVE SMOOTH",
"801 621 OFFCURVE",
"711 744 OFFCURVE",
"442 744 CURVE SMOOTH",
"245 744 LINE"
);
},
{
closed = 1;
nodes = (
"1046 619 LINE",
"1035 666 LINE",
"1521 666 LINE",
"1506 615 LINE",
"859 131 LINE",
"1304 131 LINE",
"1305 21 LINE",
"767 15 LINE",
"802 130 LINE",
"1448 612 LINE"
);
},
{
closed = 1;
nodes = (
"440 644 LINE SMOOTH",
"618 644 OFFCURVE",
"680 564 OFFCURVE",
"631 397 CURVE SMOOTH",
"590 260 OFFCURVE",
"497 205 OFFCURVE",
"300 205 CURVE SMOOTH",
"212 205 LINE",
"342 644 LINE"
);
}
);
width = 1581;
}
);
note = uni01F1;
unicode = 01F1;
},
{
glyphname = Dafrican;
lastChange = "2019-08-30 20:47:54 +0000";
layers = (
{
layerId = "4FCB07EB-01E7-4D87-AA20-FCB2BF85BBFF";
paths = (
{
closed = 1;
nodes = (
"268 729 LINE",
"182 439 LINE",
"66 439 LINE",
"40 348 LINE",
"155 348 LINE",
"52 0 LINE",
"238 0 LINE SMOOTH",
"497 0 OFFCURVE",
"612 0 OFFCURVE",
"721 365 CURVE SMOOTH",
"796 615 OFFCURVE",
"713 729 OFFCURVE",
"454 729 CURVE SMOOTH"
);
},
{
closed = 1;
nodes = (
"204 190 LINE",
"250 348 LINE",
"398 348 LINE",
"425 439 LINE",
"277 439 LINE",
"343 659 LINE",
"452 659 LINE SMOOTH",
"636 659 OFFCURVE",
"711 573 OFFCURVE",
"658 393 CURVE SMOOTH",
"622 271 OFFCURVE",
"544 190 OFFCURVE",
"313 190 CURVE SMOOTH"
);
}
);
width = 787;
},
{
layerId = "FBE4A9D6-0C93-4AEC-8266-BAD92744962A";
paths = (
{
closed = 1;
nodes = (
"257 744 LINE",
"171 454 LINE",
"55 454 LINE",
"20 333 LINE",
"135 333 LINE",
"32 -15 LINE",
"238 -15 LINE SMOOTH",
"497 -15 OFFCURVE",
"623 -15 OFFCURVE",
"735 361 CURVE SMOOTH",
"813 621 OFFCURVE",
"723 744 OFFCURVE",
"454 744 CURVE SMOOTH"
);
},
{
closed = 1;
nodes = (
"224 205 LINE",
"261 333 LINE",
"409 333 LINE",
"445 454 LINE",
"297 454 LINE",
"354 644 LINE",
"452 644 LINE SMOOTH",
"630 644 OFFCURVE",
"693 563 OFFCURVE",
"644 397 CURVE SMOOTH",
"603 260 OFFCURVE",
"510 205 OFFCURVE",
"313 205 CURVE SMOOTH"
);
}
);
width = 787;
}
);
note = uni0189;
unicode = 0189;
},
{
glyphname = Dcircumflexbelow;
lastChange = "2019-08-30 20:47:54 +0000";
layers = (
{
layerId = "4FCB07EB-01E7-4D87-AA20-FCB2BF85BBFF";
paths = (
{
closed = 1;
nodes = (
"40 0 LINE",
"226 0 LINE SMOOTH",
"485 0 OFFCURVE",
"600 0 OFFCURVE",
"709 365 CURVE SMOOTH",
"784 615 OFFCURVE",
"701 729 OFFCURVE",
"442 729 CURVE SMOOTH",
"256 729 LINE"
);
},
{
closed = 1;
nodes = (
"440 659 LINE SMOOTH",
"624 659 OFFCURVE",
"697 573 OFFCURVE",
"644 393 CURVE SMOOTH",
"608 271 OFFCURVE",
"531 190 OFFCURVE",
"300 190 CURVE SMOOTH",
"192 190 LINE",
"331 659 LINE"
);
},
{
closed = 1;
nodes = (
"270 -113 LINE",
"211 -177 LINE",
"50 -308 LINE",
"100 -308 LINE",
"260 -209 LINE",
"363 -308 LINE",
"413 -308 LINE",
"331 -177 LINE",
"315 -113 LINE"
);
}
);
width = 775;
},
{
layerId = "FBE4A9D6-0C93-4AEC-8266-BAD92744962A";
paths = (
{
closed = 1;
nodes = (
"20 -15 LINE",
"226 -15 LINE SMOOTH",
"485 -15 OFFCURVE",
"611 -15 OFFCURVE",
"723 361 CURVE SMOOTH",
"801 621 OFFCURVE",
"711 744 OFFCURVE",
"442 744 CURVE SMOOTH",
"245 744 LINE"
);
},
{
closed = 1;
nodes = (
"440 644 LINE SMOOTH",
"617 644 OFFCURVE",
"679 564 OFFCURVE",
"630 397 CURVE SMOOTH",
"589 260 OFFCURVE",
"496 205 OFFCURVE",
"300 205 CURVE SMOOTH",
"212 205 LINE",
"342 644 LINE"
);
},
{
closed = 1;
nodes = (
"263 -98 LINE",
"201 -166 LINE",
"8 -323 LINE",
"104 -323 LINE",
"258 -228 LINE",
"357 -323 LINE",
"440 -323 LINE",
"345 -171 LINE",
"327 -98 LINE"
);
}
);
width = 775;
}
);
note = uni1E12;
unicode = 1E12;
},
{
glyphname = Dcroat;
lastChange = "2019-08-30 20:47:54 +0000";
layers = (
{
layerId = "4FCB07EB-01E7-4D87-AA20-FCB2BF85BBFF";
paths = (
{
closed = 1;
nodes = (
"257 729 LINE",
"167 423 LINE",
"89 423 LINE",
"62 332 LINE",
"140 332 LINE",
"40 0 LINE",
"226 0 LINE SMOOTH",
"485 0 OFFCURVE",
"601 0 OFFCURVE",
"710 365 CURVE SMOOTH",
"785 615 OFFCURVE",
"702 729 OFFCURVE",
"443 729 CURVE SMOOTH"
);
},
{
closed = 1;
nodes = (
"192 190 LINE",
"234 332 LINE",
"420 332 LINE",
"448 423 LINE",
"262 423 LINE",
"332 659 LINE",
"441 659 LINE SMOOTH",
"625 659 OFFCURVE",
"699 573 OFFCURVE",
"646 393 CURVE SMOOTH",
"610 271 OFFCURVE",
"532 190 OFFCURVE",
"301 190 CURVE SMOOTH"
);
}
);
width = 776;
},
{
layerId = "FBE4A9D6-0C93-4AEC-8266-BAD92744962A";
paths = (
{
closed = 1;
nodes = (
"246 744 LINE",
"156 438 LINE",
"78 438 LINE",
"42 317 LINE",
"120 317 LINE",
"20 -15 LINE",
"226 -15 LINE SMOOTH",
"485 -15 OFFCURVE",
"612 -15 OFFCURVE",
"724 361 CURVE SMOOTH",
"802 621 OFFCURVE",
"712 744 OFFCURVE",
"443 744 CURVE SMOOTH"
);
},
{
closed = 1;
nodes = (
"212 205 LINE",
"245 317 LINE",
"431 317 LINE",
"468 438 LINE",
"282 438 LINE",
"343 644 LINE",
"441 644 LINE SMOOTH",
"619 644 OFFCURVE",
"681 564 OFFCURVE",
"632 397 CURVE SMOOTH",
"591 260 OFFCURVE",
"498 205 OFFCURVE",
"301 205 CURVE SMOOTH"
);
}
);
width = 776;
}
);
note = Dcroat;
unicode = 0110;
},
{
glyphname = Ddotaccent;
lastChange = "2019-08-30 20:47:54 +0000";
layers = (
{
layerId = "4FCB07EB-01E7-4D87-AA20-FCB2BF85BBFF";
paths = (
{
closed = 1;
nodes = (
"518 911 LINE",
"488 810 LINE",
"580 810 LINE",
"610 911 LINE"
);
},
{
closed = 1;
nodes = (
"40 0 LINE",
"226 0 LINE SMOOTH",
"485 0 OFFCURVE",
"600 0 OFFCURVE",
"709 365 CURVE SMOOTH",
"784 615 OFFCURVE",
"701 729 OFFCURVE",
"442 729 CURVE SMOOTH",
"256 729 LINE"
);
},
{
closed = 1;
nodes = (
"440 659 LINE SMOOTH",
"624 659 OFFCURVE",
"699 573 OFFCURVE",
"646 393 CURVE SMOOTH",
"610 271 OFFCURVE",
"532 190 OFFCURVE",
"301 190 CURVE SMOOTH",
"192 190 LINE",
"331 659 LINE"
);
}
);
width = 775;
},
{
layerId = "FBE4A9D6-0C93-4AEC-8266-BAD92744962A";
paths = (
{
closed = 1;
nodes = (
"507 926 LINE",
"468 795 LINE",
"591 795 LINE",
"630 926 LINE"
);
},
{
closed = 1;
nodes = (
"20 -15 LINE",
"226 -15 LINE SMOOTH",
"485 -15 OFFCURVE",
"611 -15 OFFCURVE",
"723 361 CURVE SMOOTH",
"801 621 OFFCURVE",
"711 744 OFFCURVE",
"442 744 CURVE SMOOTH",
"245 744 LINE"
);
},
{
closed = 1;
nodes = (
"440 644 LINE SMOOTH",
"618 644 OFFCURVE",
"681 563 OFFCURVE",
"632 397 CURVE SMOOTH",
"591 260 OFFCURVE",
"498 205 OFFCURVE",
"301 205 CURVE SMOOTH",
"212 205 LINE",
"342 644 LINE"
);
}
);
width = 775;
}
);
note = uni1E0A;
unicode = 1E0A;
},
{
glyphname = Ddotbelow;
lastChange = "2019-08-30 20:47:54 +0000";
layers = (
{
layerId = "4FCB07EB-01E7-4D87-AA20-FCB2BF85BBFF";
paths = (
{
closed = 1;
nodes = (
"40 0 LINE",
"226 0 LINE SMOOTH",
"485 0 OFFCURVE",
"601 0 OFFCURVE",
"710 365 CURVE SMOOTH",
"785 615 OFFCURVE",
"702 729 OFFCURVE",
"443 729 CURVE SMOOTH",
"257 729 LINE"
);
},
{
closed = 1;
nodes = (
"440 659 LINE SMOOTH",
"624 659 OFFCURVE",
"698 573 OFFCURVE",
"645 393 CURVE SMOOTH",
"609 271 OFFCURVE",
"532 190 OFFCURVE",
"301 190 CURVE SMOOTH",
"192 190 LINE",
"332 659 LINE"
);
},
{
closed = 1;
nodes = (
"256 -59 LINE",
"227 -160 LINE",
"320 -160 LINE",
"349 -59 LINE"
);
}
);
width = 776;
},
{
layerId = "FBE4A9D6-0C93-4AEC-8266-BAD92744962A";
paths = (
{
closed = 1;
nodes = (
"20 -15 LINE",
"226 -15 LINE SMOOTH",
"485 -15 OFFCURVE",
"612 -15 OFFCURVE",
"724 361 CURVE SMOOTH",
"802 621 OFFCURVE",
"712 744 OFFCURVE",
"443 744 CURVE SMOOTH",
"246 744 LINE"
);
},
{
closed = 1;
nodes = (
"440 644 LINE SMOOTH",
"618 644 OFFCURVE",
"680 564 OFFCURVE",
"631 397 CURVE SMOOTH",
"590 260 OFFCURVE",
"497 205 OFFCURVE",
"301 205 CURVE SMOOTH",
"212 205 LINE",
"343 644 LINE"
);
},
{
closed = 1;
nodes = (
"245 -44 LINE",
"207 -175 LINE",
"331 -175 LINE",
"369 -44 LINE"
);
}
);
width = 776;
}
);
note = uni1E0C;
unicode = 1E0C;
},
{
glyphname = Dhook;
lastChange = "2019-08-30 20:47:54 +0000";
layers = (
{
layerId = "4FCB07EB-01E7-4D87-AA20-FCB2BF85BBFF";
paths = (
{
closed = 1;
nodes = (
"295 729 LINE",
"296 730 LINE",
"177 730 OFFCURVE",
"87 616 OFFCURVE",
"60 525 CURVE SMOOTH",
"40 458 LINE",
"70 359 LINE",
"81 395 OFFCURVE",
"101 465 OFFCURVE",
"118 501 CURVE SMOOTH",
"142 555 OFFCURVE",
"186 601 OFFCURVE",
"249 601 CURVE",
"249 604 OFFCURVE",
"252 607 OFFCURVE",
"253 610 CURVE",
"71 0 LINE",
"257 0 LINE SMOOTH",
"516 0 OFFCURVE",
"632 0 OFFCURVE",
"741 365 CURVE SMOOTH",
"816 615 OFFCURVE",
"733 729 OFFCURVE",
"474 729 CURVE SMOOTH"
);
},
{
closed = 1;
nodes = (
"223 190 LINE",
"362 659 LINE",
"471 659 LINE SMOOTH",
"655 659 OFFCURVE",
"729 573 OFFCURVE",
"676 393 CURVE SMOOTH",
"640 271 OFFCURVE",
"563 190 OFFCURVE",
"332 190 CURVE SMOOTH"
);
}
);
width = 807;
},
{
layerId = "FBE4A9D6-0C93-4AEC-8266-BAD92744962A";
paths = (
{
closed = 1;
nodes = (
"331 744 LINE",
"329 742 LINE",
"212 764 OFFCURVE",
"86 664 OFFCURVE",
"46 529 CURVE SMOOTH",
"24 458 LINE",
"70 307 LINE",
"95 391 OFFCURVE",
"115 460 OFFCURVE",
"132 495 CURVE",
"160 559 OFFCURVE",
"209 592 OFFCURVE",
"264 586 CURVE",
"264 592 OFFCURVE",
"265 597 OFFCURVE",
"267 605 CURVE",
"239 614 LINE",
"51 -15 LINE",
"257 -15 LINE SMOOTH",
"516 -15 OFFCURVE",
"643 -15 OFFCURVE",
"755 361 CURVE SMOOTH",
"833 621 OFFCURVE",
"743 744 OFFCURVE",
"474 744 CURVE SMOOTH"
);
},
{
closed = 1;
nodes = (
"243 205 LINE",
"373 644 LINE",
"471 644 LINE SMOOTH",
"649 644 OFFCURVE",
"711 564 OFFCURVE",
"662 397 CURVE SMOOTH",
"621 260 OFFCURVE",
"528 205 OFFCURVE",
"332 205 CURVE SMOOTH"
);
}
);
width = 807;
}
);
note = uni018A;
unicode = 018A;
},
{
glyphname = Dlinebelow;
lastChange = "2019-08-30 20:47:54 +0000";
layers = (
{
layerId = "4FCB07EB-01E7-4D87-AA20-FCB2BF85BBFF";
paths = (
{
closed = 1;
nodes = (
"40 0 LINE",
"226 0 LINE SMOOTH",
"485 0 OFFCURVE",
"602 0 OFFCURVE",
"711 365 CURVE SMOOTH",
"786 615 OFFCURVE",
"702 729 OFFCURVE",
"443 729 CURVE SMOOTH",
"257 729 LINE"
);
},
{
closed = 1;
nodes = (
"441 659 LINE SMOOTH",
"625 659 OFFCURVE",
"699 573 OFFCURVE",
"646 393 CURVE SMOOTH",
"610 271 OFFCURVE",
"533 190 OFFCURVE",
"302 190 CURVE SMOOTH",
"192 190 LINE",
"332 659 LINE"
);
},
{
closed = 1;
nodes = (
"165 -56 LINE",
"127 -108 LINE",
"456 -95 LINE",
"451 -38 LINE"
);
}
);
width = 777;
},
{
layerId = "FBE4A9D6-0C93-4AEC-8266-BAD92744962A";
paths = (
{
closed = 1;
nodes = (
"20 -15 LINE",
"226 -15 LINE SMOOTH",
"485 -15 OFFCURVE",
"613 -15 OFFCURVE",
"725 361 CURVE SMOOTH",
"803 620 OFFCURVE",
"712 744 OFFCURVE",
"443 744 CURVE SMOOTH",
"246 744 LINE"
);
},
{
closed = 1;
nodes = (
"441 644 LINE SMOOTH",
"619 644 OFFCURVE",
"681 564 OFFCURVE",
"632 397 CURVE SMOOTH",
"591 260 OFFCURVE",
"498 205 OFFCURVE",
"302 205 CURVE SMOOTH",
"212 205 LINE",
"343 644 LINE"
);
},
{
closed = 1;
nodes = (
"157 -41 LINE",
"97 -124 LINE",
"472 -109 LINE",
"465 -22 LINE"
);
}
);
width = 777;
}
);
note = uni1E0E;
unicode = 1E0E;
},
{
glyphname = Dz;
lastChange = "2019-08-30 20:47:54 +0000";
layers = (
{
layerId = "4FCB07EB-01E7-4D87-AA20-FCB2BF85BBFF";
paths = (
{
closed = 1;
nodes = (
"40 0 LINE",
"226 0 LINE SMOOTH",
"485 0 OFFCURVE",
"600 0 OFFCURVE",
"709 365 CURVE SMOOTH",
"784 615 OFFCURVE",
"701 729 OFFCURVE",
"442 729 CURVE SMOOTH",
"256 729 LINE"
);
},
{
closed = 1;
nodes = (
"440 659 LINE SMOOTH",
"624 659 OFFCURVE",
"699 573 OFFCURVE",
"646 393 CURVE SMOOTH",
"610 271 OFFCURVE",
"532 190 OFFCURVE",
"301 190 CURVE SMOOTH",
"192 190 LINE",
"331 659 LINE"
);
},
{
closed = 1;
nodes = (
"973 482 LINE",
"1259 482 LINE",
"809 131 LINE",
"747 0 LINE",
"1207 0 LINE",
"1190 121 LINE",
"930 121 LINE",
"1359 482 LINE",
"1368 549 LINE",
"993 549 LINE"
);
}
);
width = 1408;
},
{
layerId = "FBE4A9D6-0C93-4AEC-8266-BAD92744962A";
paths = (
{
closed = 1;
nodes = (
"20 -15 LINE",
"226 -15 LINE SMOOTH",
"485 -15 OFFCURVE",
"611 -15 OFFCURVE",
"723 361 CURVE SMOOTH",
"801 621 OFFCURVE",
"711 744 OFFCURVE",
"442 744 CURVE SMOOTH",
"245 744 LINE"
);
},
{
closed = 1;
nodes = (
"440 644 LINE SMOOTH",
"618 644 OFFCURVE",
"681 563 OFFCURVE",
"632 397 CURVE SMOOTH",
"591 260 OFFCURVE",
"498 205 OFFCURVE",
"301 205 CURVE SMOOTH",
"212 205 LINE",
"342 644 LINE"
);
},
{
closed = 1;
nodes = (
"953 467 LINE",
"1215 467 LINE",
"797 141 LINE",
"723 -15 LINE",
"1224 -15 LINE",
"1203 136 LINE",
"971 136 LINE",
"1373 474 LINE",
"1385 564 LINE",
"982 564 LINE"
);
}
);
width = 1408;
}
);
note = uni01F2;
unicode = 01F2;
},
{
glyphname = Dzcaron;
lastChange = "2019-08-30 20:47:54 +0000";
layers = (
{
layerId = "4FCB07EB-01E7-4D87-AA20-FCB2BF85BBFF";
paths = (
{
closed = 1;
nodes = (
"1151 597 LINE",
"1195 597 LINE",
"1250 661 LINE",
"1409 792 LINE",
"1360 792 LINE",
"1198 693 LINE",
"1096 792 LINE",
"1047 792 LINE",
"1130 661 LINE"
);
},
{
closed = 1;
nodes = (
"40 0 LINE",
"225 0 LINE SMOOTH",
"484 0 OFFCURVE",
"601 0 OFFCURVE",
"710 365 CURVE SMOOTH",
"785 615 OFFCURVE",
"702 729 OFFCURVE",
"443 729 CURVE SMOOTH",
"257 729 LINE"
);
},
{
closed = 1;
nodes = (
"440 659 LINE SMOOTH",
"624 659 OFFCURVE",
"698 573 OFFCURVE",
"645 393 CURVE SMOOTH",
"609 271 OFFCURVE",
"532 190 OFFCURVE",
"301 190 CURVE SMOOTH",
"191 190 LINE",
"331 659 LINE"
);
},
{
closed = 1;
nodes = (
"972 482 LINE",
"1259 482 LINE",
"808 131 LINE",
"748 0 LINE",
"1206 0 LINE",
"1191 121 LINE",
"929 121 LINE",
"1359 482 LINE",
"1367 549 LINE",
"993 549 LINE"
);
}
);
width = 1449;
},
{
layerId = "FBE4A9D6-0C93-4AEC-8266-BAD92744962A";
paths = (
{
closed = 1;
nodes = (
"1140 582 LINE",
"1202 582 LINE",
"1261 650 LINE",
"1451 807 LINE",
"1356 807 LINE",
"1200 712 LINE",
"1102 807 LINE",
"1020 807 LINE",
"1116 655 LINE"
);
},
{
closed = 1;
nodes = (
"20 -15 LINE",
"225 -15 LINE SMOOTH",
"484 -15 OFFCURVE",
"612 -15 OFFCURVE",
"724 361 CURVE SMOOTH",
"802 621 OFFCURVE",
"712 744 OFFCURVE",
"443 744 CURVE SMOOTH",
"246 744 LINE"
);
},
{
closed = 1;
nodes = (
"440 644 LINE SMOOTH",
"618 644 OFFCURVE",
"680 564 OFFCURVE",
"631 397 CURVE SMOOTH",
"590 260 OFFCURVE",
"497 205 OFFCURVE",
"301 205 CURVE SMOOTH",
"211 205 LINE",
"342 644 LINE"
);
},
{
closed = 1;
nodes = (
"952 467 LINE",
"1215 467 LINE",
"796 141 LINE",
"725 -15 LINE",
"1223 -15 LINE",
"1204 136 LINE",
"970 136 LINE",
"1373 474 LINE",
"1384 564 LINE",
"982 564 LINE"
);
}
);
width = 1449;
}
);
note = uni01C5;
unicode = 01C5;
},
{
glyphname = E;
lastChange = "2019-08-30 20:47:54 +0000";
layers = (
{
layerId = "4FCB07EB-01E7-4D87-AA20-FCB2BF85BBFF";
paths = (
{
closed = 1;
nodes = (
"40 0 LINE",
"482 0 LINE",
"496 151 LINE",
"192 151 LINE",
"245 331 LINE",
"474 347 LINE",
"499 430 LINE",
"272 419 LINE",
"337 637 LINE",
"643 656 LINE",
"685 729 LINE",
"275 714 LINE"
);
}
);
width = 725;
},
{
layerId = "FBE4A9D6-0C93-4AEC-8266-BAD92744962A";
paths = (
{
closed = 1;
nodes = (
"19 -15 LINE",
"496 -15 LINE",
"512 166 LINE",
"212 166 LINE",
"256 317 LINE",
"485 333 LINE",
"519 446 LINE",
"292 435 LINE",
"348 623 LINE",
"652 642 LINE",
"711 745 LINE",
"264 729 LINE"
);
}
);
width = 725;
}
);
note = E;
unicode = 0045;
},
{
glyphname = Ebreve;
lastChange = "2019-08-30 20:47:54 +0000";
layers = (
{
layerId = "4FCB07EB-01E7-4D87-AA20-FCB2BF85BBFF";
paths = (
{
closed = 1;
nodes = (
"600 795 OFFCURVE",
"709 869 OFFCURVE",
"745 992 CURVE",
"686 992 LINE",
"660 905 OFFCURVE",
"616 890 OFFCURVE",
"530 890 CURVE SMOOTH",
"457 890 OFFCURVE",
"420 904 OFFCURVE",
"445 992 CURVE",
"386 992 LINE",
"350 869 OFFCURVE",
"405 795 OFFCURVE",
"503 795 CURVE SMOOTH"
);
},
{
closed = 1;
nodes = (
"498 151 LINE",
"193 151 LINE",
"245 331 LINE",
"474 347 LINE",
"500 430 LINE",
"272 419 LINE",
"337 637 LINE",
"645 656 LINE",
"685 729 LINE",
"275 714 LINE",
"40 0 LINE",
"483 0 LINE"
);
}
);
width = 785;
},
{
layerId = "FBE4A9D6-0C93-4AEC-8266-BAD92744962A";
paths = (
{
closed = 1;
nodes = (
"621 780 OFFCURVE",
"736 877 OFFCURVE",
"764 1007 CURVE",
"675 1007 LINE",
"653 926 OFFCURVE",
"625 905 OFFCURVE",
"530 905 CURVE SMOOTH",
"448 905 OFFCURVE",
"438 923 OFFCURVE",
"465 1007 CURVE",
"375 1007 LINE",
"332 875 OFFCURVE",
"386 780 OFFCURVE",
"503 780 CURVE SMOOTH"
);
},
{
closed = 1;
nodes = (
"515 166 LINE",
"213 166 LINE",
"257 317 LINE",
"485 333 LINE",
"521 446 LINE",
"292 435 LINE",
"348 623 LINE",
"654 642 LINE",
"711 745 LINE",
"264 729 LINE",
"19 -15 LINE",
"497 -15 LINE"
);
}
);
width = 785;
}
);
note = Ebreve;
unicode = 0114;
},
{
glyphname = Ecaron;
lastChange = "2019-08-30 20:47:54 +0000";
layers = (
{
layerId = "4FCB07EB-01E7-4D87-AA20-FCB2BF85BBFF";
paths = (
{
closed = 1;
nodes = (
"492 816 LINE",
"536 816 LINE",
"591 880 LINE",
"751 1011 LINE",
"702 1011 LINE",
"540 912 LINE",
"438 1011 LINE",
"388 1011 LINE",
"471 880 LINE"
);
},
{
closed = 1;
nodes = (
"40 0 LINE",
"482 0 LINE",
"497 151 LINE",
"192 151 LINE",
"245 331 LINE",
"474 347 LINE",
"499 430 LINE",
"272 419 LINE",
"337 637 LINE",
"644 656 LINE",
"685 729 LINE",
"274 714 LINE"
);
}
);
width = 791;
},
{
layerId = "FBE4A9D6-0C93-4AEC-8266-BAD92744962A";
paths = (
{
closed = 1;
nodes = (
"481 801 LINE",
"543 801 LINE",
"602 869 LINE",
"793 1026 LINE",
"698 1026 LINE",
"542 931 LINE",
"444 1026 LINE",
"361 1026 LINE",
"457 874 LINE"
);
},
{
closed = 1;
nodes = (
"19 -15 LINE",
"496 -15 LINE",
"514 166 LINE",
"212 166 LINE",
"256 317 LINE",
"485 333 LINE",
"519 446 LINE",
"292 435 LINE",
"348 623 LINE",
"653 642 LINE",
"711 745 LINE",
"263 729 LINE"
);
}
);
width = 791;
}
);
note = Ecaron;
unicode = 011A;
},
{
glyphname = Ecedilla;
lastChange = "2019-08-30 20:47:54 +0000";
layers = (
{
layerId = "4FCB07EB-01E7-4D87-AA20-FCB2BF85BBFF";
paths = (
{
closed = 1;
nodes = (
"228 -80 LINE",
"278 0 LINE",
"482 0 LINE",
"497 151 LINE",
"192 151 LINE",
"245 331 LINE",
"475 347 LINE",
"499 430 LINE",
"272 419 LINE",
"336 637 LINE",
"644 656 LINE",
"686 729 LINE",
"275 714 LINE",
"40 0 LINE",
"249 0 LINE",
"183 -110 LINE",
"205 -107 OFFCURVE",
"224 -105 OFFCURVE",
"240 -105 CURVE SMOOTH",
"263 -105 OFFCURVE",
"296 -107 OFFCURVE",
"283 -151 CURVE SMOOTH",
"278 -167 OFFCURVE",
"246 -186 OFFCURVE",
"213 -186 CURVE SMOOTH",
"193 -186 OFFCURVE",
"186 -186 OFFCURVE",
"166 -181 CURVE",
"141 -234 LINE",
"198 -234 LINE SMOOTH",
"250 -234 OFFCURVE",
"294 -205 OFFCURVE",
"315 -156 CURVE SMOOTH",
"342 -96 OFFCURVE",
"291 -80 OFFCURVE",
"256 -80 CURVE SMOOTH"
);
}
);
width = 726;
},
{
layerId = "FBE4A9D6-0C93-4AEC-8266-BAD92744962A";
paths = (
{
closed = 1;
nodes = (
"255 -65 LINE",
"286 -15 LINE",
"496 -15 LINE",
"514 166 LINE",
"212 166 LINE",
"256 317 LINE",
"486 333 LINE",
"519 446 LINE",
"292 435 LINE",
"347 623 LINE",
"653 642 LINE",
"712 745 LINE",
"264 729 LINE",
"19 -15 LINE",
"223 -15 LINE",
"154 -129 LINE",
"190 -124 OFFCURVE",
"218 -120 OFFCURVE",
"240 -120 CURVE SMOOTH",
"270 -120 OFFCURVE",
"275 -124 OFFCURVE",
"269 -147 CURVE",
"265 -157 OFFCURVE",
"236 -171 OFFCURVE",
"213 -171 CURVE SMOOTH",
"189 -171 OFFCURVE",
"186 -171 OFFCURVE",
"158 -163 CURVE",
"117 -249 LINE",
"198 -249 LINE SMOOTH",
"256 -249 OFFCURVE",
"306 -216 OFFCURVE",
"329 -162 CURVE SMOOTH",
"354 -106 OFFCURVE",
"322 -65 OFFCURVE",
"256 -65 CURVE SMOOTH"
);
}
);
width = 726;
}
);
note = uni0228;
unicode = 0228;
},
{
glyphname = Ecircumflexacute;
lastChange = "2019-08-30 20:47:54 +0000";
layers = (
{
layerId = "4FCB07EB-01E7-4D87-AA20-FCB2BF85BBFF";
paths = (
{
closed = 1;
nodes = (
"794 1026 LINE",
"679 872 LINE",
"748 872 LINE",
"841 1026 LINE"
);
},
{
closed = 1;
nodes = (
"546 995 LINE",
"486 931 LINE",
"325 800 LINE",
"375 800 LINE",
"535 899 LINE",
"639 800 LINE",
"688 800 LINE",
"606 931 LINE",
"589 995 LINE"
);
},
{
closed = 1;
nodes = (
"40 0 LINE",
"482 0 LINE",
"497 151 LINE",
"192 151 LINE",
"245 331 LINE",
"475 347 LINE",
"499 430 LINE",
"272 419 LINE",
"336 637 LINE",
"644 656 LINE",
"685 729 LINE",
"274 714 LINE"
);
}
);
width = 881;
},
{
layerId = "FBE4A9D6-0C93-4AEC-8266-BAD92744962A";
paths = (
{
closed = 1;
nodes = (
"786 1041 LINE",
"649 857 LINE",
"756 857 LINE",
"868 1041 LINE"
);
},
{
closed = 1;
nodes = (
"540 1010 LINE",
"476 942 LINE",
"283 785 LINE",
"379 785 LINE",
"533 880 LINE",
"633 785 LINE",
"715 785 LINE",
"620 937 LINE",
"601 1010 LINE"
);
},
{
closed = 1;
nodes = (
"19 -15 LINE",
"496 -15 LINE",
"514 166 LINE",
"212 166 LINE",
"256 317 LINE",
"486 333 LINE",
"519 446 LINE",
"292 435 LINE",
"347 623 LINE",
"653 642 LINE",
"711 745 LINE",
"263 729 LINE"
);
}
);
width = 881;
}
);
note = uni1EBE;
unicode = 1EBE;
},
{
glyphname = Ecircumflexdotbelow;
lastChange = "2019-08-30 20:47:54 +0000";
layers = (
{
layerId = "4FCB07EB-01E7-4D87-AA20-FCB2BF85BBFF";
paths = (
{
closed = 1;
nodes = (
"531 969 LINE",
"471 905 LINE",
"310 774 LINE",
"360 774 LINE",
"520 873 LINE",
"624 774 LINE",
"673 774 LINE",
"591 905 LINE",
"574 969 LINE"
);
},
{
closed = 1;
nodes = (
"40 0 LINE",
"483 0 LINE",
"498 151 LINE",
"193 151 LINE",
"246 331 LINE",
"475 347 LINE",
"500 430 LINE",
"272 419 LINE",
"337 637 LINE",
"645 656 LINE",
"685 729 LINE",
"275 714 LINE"
);
},
{
closed = 1;
nodes = (
"205 -59 LINE",
"175 -160 LINE",
"268 -160 LINE",
"298 -59 LINE"
);
}
);
width = 725;
},
{
layerId = "FBE4A9D6-0C93-4AEC-8266-BAD92744962A";
paths = (
{
closed = 1;
nodes = (
"525 984 LINE",
"461 916 LINE",
"268 759 LINE",
"364 759 LINE",
"518 854 LINE",
"618 759 LINE",
"700 759 LINE",
"605 911 LINE",
"586 984 LINE"
);
},
{
closed = 1;
nodes = (
"19 -15 LINE",
"497 -15 LINE",
"515 166 LINE",
"213 166 LINE",
"257 317 LINE",
"486 333 LINE",
"520 446 LINE",
"292 435 LINE",
"348 623 LINE",
"654 642 LINE",
"711 745 LINE",
"264 729 LINE"
);
},
{
closed = 1;
nodes = (
"194 -44 LINE",
"155 -175 LINE",
"279 -175 LINE",
"318 -44 LINE"
);
}
);
width = 725;
}
);
note = uni1EC6;
unicode = 1EC6;
},
{
glyphname = Ecircumflexgrave;
lastChange = "2019-08-30 20:47:54 +0000";
layers = (
{
layerId = "4FCB07EB-01E7-4D87-AA20-FCB2BF85BBFF";
paths = (
{
closed = 1;
nodes = (
"748 912 LINE",
"865 897 LINE",
"747 1024 LINE",
"675 1024 LINE"
);
},
{
closed = 1;
nodes = (
"546 995 LINE",
"486 931 LINE",
"325 800 LINE",
"375 800 LINE",
"536 899 LINE",
"639 800 LINE",
"688 800 LINE",
"606 931 LINE",
"589 995 LINE"
);
},
{
closed = 1;
nodes = (
"40 0 LINE",
"483 0 LINE",
"497 151 LINE",
"193 151 LINE",
"246 331 LINE",
"475 347 LINE",
"500 430 LINE",
"272 419 LINE",
"337 637 LINE",
"644 656 LINE",
"685 729 LINE",
"274 714 LINE"
);
}
);
width = 905;
},
{
layerId = "FBE4A9D6-0C93-4AEC-8266-BAD92744962A";
paths = (
{
closed = 1;
nodes = (
"739 898 LINE",
"904 877 LINE",
"754 1039 LINE",
"647 1039 LINE"
);
},
{
closed = 1;
nodes = (
"540 1010 LINE",
"476 942 LINE",
"283 785 LINE",
"379 785 LINE",
"534 880 LINE",
"633 785 LINE",
"715 785 LINE",
"620 937 LINE",
"601 1010 LINE"
);
},
{
closed = 1;
nodes = (
"19 -15 LINE",
"497 -15 LINE",
"513 166 LINE",
"213 166 LINE",
"257 317 LINE",
"486 333 LINE",
"520 446 LINE",
"292 435 LINE",
"348 623 LINE",
"653 642 LINE",
"711 745 LINE",
"263 729 LINE"
);
}
);
width = 905;
}
);
note = uni1EC0;
unicode = 1EC0;
},
{
glyphname = Ecircumflexhookabove;
lastChange = "2019-08-30 20:47:54 +0000";
layers = (
{
layerId = "4FCB07EB-01E7-4D87-AA20-FCB2BF85BBFF";
paths = (
{
closed = 1;
nodes = (
"657 1038 LINE",
"675 1046 OFFCURVE",
"692 1050 OFFCURVE",
"707 1050 CURVE SMOOTH",
"723 1050 OFFCURVE",
"733 1046 OFFCURVE",
"741 1040 CURVE SMOOTH",
"749 1034 OFFCURVE",
"750 1024 OFFCURVE",
"748 1014 CURVE SMOOTH",
"746 1004 OFFCURVE",
"735 993 OFFCURVE",
"719 983 CURVE SMOOTH",
"707 976 LINE SMOOTH",
"700 972 OFFCURVE",
"698 969 OFFCURVE",
"696 968 CURVE",
"695 965 OFFCURVE",
"693 961 OFFCURVE",
"692 956 CURVE",
"666 956 LINE",
"666 959 LINE SMOOTH",
"668 965 OFFCURVE",
"671 971 OFFCURVE",
"674 975 CURVE",
"678 980 OFFCURVE",
"684 984 OFFCURVE",
"694 990 CURVE",
"706 999 LINE",
"714 1004 OFFCURVE",
"720 1010 OFFCURVE",
"722 1016 CURVE SMOOTH",
"723 1022 OFFCURVE",
"717 1030 OFFCURVE",
"696 1030 CURVE SMOOTH",
"682 1030 OFFCURVE",
"668 1025 OFFCURVE",
"651 1017 CURVE"
);
},
{
closed = 1;
nodes = (
"545 995 LINE",
"486 931 LINE",
"325 800 LINE",
"375 800 LINE",
"536 899 LINE",
"639 800 LINE",
"688 800 LINE",
"606 931 LINE",
"590 995 LINE"
);
},
{
closed = 1;
nodes = (
"40 0 LINE",
"483 0 LINE",
"498 151 LINE",
"193 151 LINE",
"246 331 LINE",
"476 347 LINE",
"500 430 LINE",
"273 419 LINE",
"337 637 LINE",
"645 656 LINE",
"686 729 LINE",
"275 714 LINE"
);
}
);
width = 789;
},
{
layerId = "FBE4A9D6-0C93-4AEC-8266-BAD92744962A";
paths = (
{
closed = 1;
nodes = (
"669 1027 LINE",
"683 1032 OFFCURVE",
"696 1035 OFFCURVE",
"707 1035 CURVE SMOOTH",
"718 1035 OFFCURVE",
"725 1033 OFFCURVE",
"732 1028 CURVE",
"734 1027 OFFCURVE",
"735 1024 OFFCURVE",
"733 1017 CURVE",
"732 1012 OFFCURVE",
"725 1004 OFFCURVE",
"711 996 CURVE SMOOTH",
"699 989 LINE",
"695 986 OFFCURVE",
"688 981 OFFCURVE",
"684 979 CURVE",
"683 976 OFFCURVE",
"682 974 OFFCURVE",
"681 971 CURVE",
"681 956 LINE",
"683 960 OFFCURVE",
"684 964 OFFCURVE",
"686 966 CURVE SMOOTH",
"688 968 OFFCURVE",
"691 971 OFFCURVE",
"702 978 CURVE",
"715 987 LINE SMOOTH",
"727 995 OFFCURVE",
"738 1008 OFFCURVE",
"737 1018 CURVE",
"737 1034 OFFCURVE",
"720 1045 OFFCURVE",
"696 1045 CURVE SMOOTH",
"681 1045 OFFCURVE",
"666 1041 OFFCURVE",
"674 1045 CURVE"
);
},
{
closed = 1;
nodes = (
"538 1010 LINE",
"476 942 LINE",
"283 785 LINE",
"379 785 LINE",
"534 880 LINE",
"633 785 LINE",
"715 785 LINE",
"620 937 LINE",
"602 1010 LINE"
);
},
{
closed = 1;
nodes = (
"19 -15 LINE",
"497 -15 LINE",
"515 166 LINE",
"213 166 LINE",
"257 317 LINE",
"487 333 LINE",
"520 446 LINE",
"293 435 LINE",
"348 623 LINE",
"654 642 LINE",
"712 745 LINE",
"264 729 LINE"
);
}
);
width = 789;
}
);
note = uni1EC2;
unicode = 1EC2;
},
{
glyphname = Ecircumflextilde;
lastChange = "2019-08-30 20:47:54 +0000";
layers = (
{
layerId = "4FCB07EB-01E7-4D87-AA20-FCB2BF85BBFF";
paths = (
{
closed = 1;
nodes = (
"503 1043 LINE",
"515 1086 OFFCURVE",
"534 1149 OFFCURVE",
"570 1148 CURVE SMOOTH",
"604 1147 OFFCURVE",
"591 1044 OFFCURVE",
"657 1043 CURVE SMOOTH",
"706 1042 OFFCURVE",
"735 1047 OFFCURVE",
"779 1193 CURVE",
"737 1193 LINE",
"721 1144 OFFCURVE",
"716 1093 OFFCURVE",
"670 1093 CURVE SMOOTH",
"630 1093 OFFCURVE",
"643 1193 OFFCURVE",
"583 1193 CURVE SMOOTH",
"518 1193 OFFCURVE",
"495 1160 OFFCURVE",
"453 1043 CURVE"
);
},
{
closed = 1;
nodes = (
"552 1008 LINE",
"493 944 LINE",
"332 813 LINE",
"381 813 LINE",
"542 912 LINE",
"645 813 LINE",
"695 813 LINE",
"613 944 LINE",
"596 1008 LINE"
);
},
{
closed = 1;
nodes = (
"40 0 LINE",
"483 0 LINE",
"497 151 LINE",
"192 151 LINE",
"245 331 LINE",
"475 347 LINE",
"500 430 LINE",
"272 419 LINE",
"337 637 LINE",
"644 656 LINE",
"685 729 LINE",
"274 714 LINE"
);
}
);
width = 819;
},
{
layerId = "FBE4A9D6-0C93-4AEC-8266-BAD92744962A";
paths = (
{
closed = 1;
nodes = (
"514 1028 LINE",
"534 1102 OFFCURVE",
"552 1134 OFFCURVE",
"570 1133 CURVE",
"579 1133 OFFCURVE",
"586 1029 OFFCURVE",
"657 1028 CURVE SMOOTH",
"732 1026 OFFCURVE",
"757 1063 OFFCURVE",
"799 1208 CURVE",
"726 1208 LINE",
"707 1153 OFFCURVE",
"705 1108 OFFCURVE",
"670 1108 CURVE SMOOTH",
"652 1108 OFFCURVE",
"654 1208 OFFCURVE",
"583 1208 CURVE SMOOTH",
"509 1208 OFFCURVE",
"482 1172 OFFCURVE",
"432 1028 CURVE"
);
},
{
closed = 1;
nodes = (
"545 1023 LINE",
"483 955 LINE",
"290 798 LINE",
"385 798 LINE",
"540 893 LINE",
"639 798 LINE",
"722 798 LINE",
"627 950 LINE",
"608 1023 LINE"
);
},
{
closed = 1;
nodes = (
"19 -15 LINE",
"497 -15 LINE",
"513 166 LINE",
"212 166 LINE",
"256 317 LINE",
"486 333 LINE",
"520 446 LINE",
"292 435 LINE",
"348 623 LINE",
"653 642 LINE",
"711 745 LINE",
"263 729 LINE"
);
}
);
width = 819;
}
);
note = uni1EC4;
unicode = 1EC4;
},
{
glyphname = Edotaccent;
lastChange = "2019-08-30 20:47:54 +0000";
layers = (
{
layerId = "4FCB07EB-01E7-4D87-AA20-FCB2BF85BBFF";
paths = (
{
closed = 1;
nodes = (
"503 948 LINE",
"473 847 LINE",
"565 847 LINE",
"596 948 LINE"
);
},
{
closed = 1;
nodes = (
"40 0 LINE",
"483 0 LINE",
"498 151 LINE",
"193 151 LINE",
"245 331 LINE",
"475 347 LINE",
"500 430 LINE",
"273 419 LINE",
"337 637 LINE",
"645 656 LINE",
"686 729 LINE",
"275 714 LINE"
);
}
);
width = 726;
},
{
layerId = "FBE4A9D6-0C93-4AEC-8266-BAD92744962A";
paths = (
{
closed = 1;
nodes = (
"492 963 LINE",
"453 832 LINE",
"576 832 LINE",
"616 963 LINE"
);
},
{
closed = 1;
nodes = (
"19 -15 LINE",
"497 -15 LINE",
"515 166 LINE",
"213 166 LINE",
"257 317 LINE",
"486 333 LINE",
"520 446 LINE",
"293 435 LINE",
"348 623 LINE",
"654 642 LINE",
"712 745 LINE",
"264 729 LINE"
);
}
);
width = 726;
}
);
note = Edotaccent;
unicode = 0116;
},
{
glyphname = Edotbelow;
lastChange = "2019-08-30 20:47:54 +0000";
layers = (
{
layerId = "4FCB07EB-01E7-4D87-AA20-FCB2BF85BBFF";
paths = (
{
closed = 1;
nodes = (
"40 0 LINE",
"482 0 LINE",
"497 151 LINE",
"192 151 LINE",
"245 331 LINE",
"474 347 LINE",
"500 430 LINE",
"272 419 LINE",
"337 637 LINE",
"644 656 LINE",
"685 729 LINE",
"274 714 LINE"
);
},
{
closed = 1;
nodes = (
"205 -59 LINE",
"175 -160 LINE",
"267 -160 LINE",
"298 -59 LINE"
);
}
);
width = 725;
},
{
layerId = "FBE4A9D6-0C93-4AEC-8266-BAD92744962A";
paths = (
{
closed = 1;
nodes = (
"19 -15 LINE",
"496 -15 LINE",
"514 166 LINE",
"212 166 LINE",
"256 317 LINE",
"485 333 LINE",
"521 446 LINE",
"292 435 LINE",
"348 623 LINE",
"653 642 LINE",
"711 745 LINE",
"263 729 LINE"
);
},
{
closed = 1;
nodes = (
"194 -44 LINE",
"155 -175 LINE",
"278 -175 LINE",
"318 -44 LINE"
);
}
);
width = 725;
}
);
note = uni1EB8;
unicode = 1EB8;
},
{
glyphname = Ehookabove;
lastChange = "2019-08-30 20:47:54 +0000";
layers = (
{
layerId = "4FCB07EB-01E7-4D87-AA20-FCB2BF85BBFF";
paths = (
{
closed = 1;
nodes = (
"475 844 LINE",
"494 852 OFFCURVE",
"511 856 OFFCURVE",
"526 856 CURVE SMOOTH",
"542 856 OFFCURVE",
"552 852 OFFCURVE",
"559 846 CURVE SMOOTH",
"567 840 OFFCURVE",
"569 830 OFFCURVE",
"566 820 CURVE SMOOTH",
"564 810 OFFCURVE",
"554 799 OFFCURVE",
"538 789 CURVE",
"526 782 LINE SMOOTH",
"519 778 OFFCURVE",
"517 775 OFFCURVE",
"516 774 CURVE",
"514 771 OFFCURVE",
"511 767 OFFCURVE",
"510 762 CURVE",
"484 762 LINE",
"485 765 LINE SMOOTH",
"486 771 OFFCURVE",
"489 777 OFFCURVE",
"492 781 CURVE",
"496 786 OFFCURVE",
"502 790 OFFCURVE",
"512 796 CURVE",
"524 805 LINE",
"532 810 OFFCURVE",
"537 816 OFFCURVE",
"539 822 CURVE SMOOTH",
"540 828 OFFCURVE",
"535 836 OFFCURVE",
"514 836 CURVE SMOOTH",
"500 836 OFFCURVE",
"486 831 OFFCURVE",
"469 823 CURVE"
);
},
{
closed = 1;
nodes = (
"40 0 LINE",
"482 0 LINE",
"497 151 LINE",
"192 151 LINE",
"245 331 LINE",
"474 347 LINE",
"499 430 LINE",
"272 419 LINE",
"337 637 LINE",
"644 656 LINE",
"685 729 LINE",
"275 714 LINE"
);
}
);
width = 725;
},
{
layerId = "FBE4A9D6-0C93-4AEC-8266-BAD92744962A";
paths = (
{
closed = 1;
nodes = (
"487 833 LINE",
"502 838 OFFCURVE",
"515 841 OFFCURVE",
"526 841 CURVE SMOOTH",
"537 841 OFFCURVE",
"544 839 OFFCURVE",
"550 834 CURVE",
"553 832 OFFCURVE",
"553 828 OFFCURVE",
"549 818 CURVE",
"546 814 OFFCURVE",
"540 808 OFFCURVE",
"530 802 CURVE SMOOTH",
"518 795 LINE",
"515 793 OFFCURVE",
"511 790 OFFCURVE",
"509 788 CURVE",
"507 788 OFFCURVE",
"503 783 OFFCURVE",
"500 777 CURVE",
"505 777 LINE",
"500 762 LINE",
"500 764 OFFCURVE",
"502 769 OFFCURVE",
"504 772 CURVE",
"506 774 OFFCURVE",
"509 777 OFFCURVE",
"520 784 CURVE",
"533 793 LINE SMOOTH",
"546 802 OFFCURVE",
"558 818 OFFCURVE",
"554 829 CURVE",
"551 843 OFFCURVE",
"534 851 OFFCURVE",
"514 851 CURVE SMOOTH",
"499 851 OFFCURVE",
"484 847 OFFCURVE",
"492 851 CURVE"
);
},
{
closed = 1;
nodes = (
"19 -15 LINE",
"496 -15 LINE",
"514 166 LINE",
"212 166 LINE",
"256 317 LINE",
"485 333 LINE",
"519 446 LINE",
"292 435 LINE",
"348 623 LINE",
"653 642 LINE",
"711 745 LINE",
"264 729 LINE"
);
}
);
width = 725;
}
);
note = uni1EBA;
unicode = 1EBA;
},
{
glyphname = Emacron;
lastChange = "2019-08-30 20:47:54 +0000";
layers = (
{
layerId = "4FCB07EB-01E7-4D87-AA20-FCB2BF85BBFF";
paths = (
{
closed = 1;
nodes = (
"364 898 LINE",
"315 828 LINE",
"728 845 LINE",
"725 922 LINE"
);
},
{
closed = 1;
nodes = (
"40 0 LINE",
"483 0 LINE",
"497 151 LINE",
"193 151 LINE",
"246 331 LINE",
"475 347 LINE",
"500 430 LINE",
"272 419 LINE",
"337 637 LINE",
"644 656 LINE",
"686 729 LINE",
"275 714 LINE"
);
}
);
width = 768;
},
{
layerId = "FBE4A9D6-0C93-4AEC-8266-BAD92744962A";
paths = (
{
closed = 1;
nodes = (
"356 912 LINE",
"285 812 LINE",
"744 831 LINE",
"739 938 LINE"
);
},
{
closed = 1;
nodes = (
"19 -15 LINE",
"497 -15 LINE",
"513 166 LINE",
"213 166 LINE",
"257 317 LINE",
"486 333 LINE",
"520 446 LINE",
"292 435 LINE",
"348 623 LINE",
"653 642 LINE",
"712 745 LINE",
"264 729 LINE"
);
}
);
width = 768;
}
);
note = Emacron;
unicode = 0112;
},
{
glyphname = Eogonek;
lastChange = "2019-08-30 20:47:54 +0000";
layers = (
{
layerId = "4FCB07EB-01E7-4D87-AA20-FCB2BF85BBFF";
paths = (
{
closed = 1;
nodes = (
"416 -148 OFFCURVE",
"398 -150 OFFCURVE",
"384 -150 CURVE SMOOTH",
"347 -150 OFFCURVE",
"331 -139 OFFCURVE",
"337 -119 CURVE SMOOTH",
"344 -95 OFFCURVE",
"384 -55 OFFCURVE",
"454 0 CURVE",
"483 0 LINE",
"498 151 LINE",
"193 151 LINE",
"246 331 LINE",
"475 347 LINE",
"500 430 LINE",
"272 419 LINE",
"337 637 LINE",
"645 656 LINE",
"685 729 LINE",
"275 714 LINE",
"40 0 LINE",
"400 0 LINE",
"331 -50 OFFCURVE",
"294 -94 OFFCURVE",
"283 -129 CURVE SMOOTH",
"266 -185 OFFCURVE",
"318 -217 OFFCURVE",
"424 -215 CURVE",
"426 -198 OFFCURVE",
"432 -165 OFFCURVE",
"436 -145 CURVE"
);
}
);
width = 725;
},
{
layerId = "FBE4A9D6-0C93-4AEC-8266-BAD92744962A";
paths = (
{
closed = 1;
nodes = (
"421 -133 OFFCURVE",
"399 -135 OFFCURVE",
"384 -135 CURVE SMOOTH",
"356 -135 OFFCURVE",
"349 -131 OFFCURVE",
"351 -123 CURVE",
"357 -104 OFFCURVE",
"393 -67 OFFCURVE",
"459 -15 CURVE",
"497 -15 LINE",
"515 166 LINE",
"213 166 LINE",
"257 317 LINE",
"486 333 LINE",
"520 446 LINE",
"292 435 LINE",
"348 623 LINE",
"654 642 LINE",
"711 745 LINE",
"264 729 LINE",
"19 -15 LINE",
"356 -15 LINE",
"309 -54 OFFCURVE",
"279 -91 OFFCURVE",
"269 -125 CURVE SMOOTH",
"248 -192 OFFCURVE",
"308 -232 OFFCURVE",
"424 -230 CURVE",
"439 -217 LINE",
"442 -192 OFFCURVE",
"454 -131 OFFCURVE",
"455 -127 CURVE"
);
}
);
width = 725;
}
);
note = Eogonek;
unicode = 0118;
},
{
glyphname = Eopen;
lastChange = "2019-08-30 20:47:54 +0000";
layers = (
{
layerId = "4FCB07EB-01E7-4D87-AA20-FCB2BF85BBFF";
paths = (
{
closed = 1;
nodes = (
"161 405 OFFCURVE",
"139 450 OFFCURVE",
"162 527 CURVE SMOOTH",
"195 639 OFFCURVE",
"297 708 OFFCURVE",
"430 708 CURVE SMOOTH",
"481 708 OFFCURVE",
"584 674 OFFCURVE",
"547 550 CURVE",
"485 537 LINE",
"510 620 OFFCURVE",
"467 646 OFFCURVE",
"421 646 CURVE SMOOTH",
"332 646 OFFCURVE",
"249 610 OFFCURVE",
"226 534 CURVE SMOOTH",
"200 445 OFFCURVE",
"251 418 OFFCURVE",
"337 418 CURVE SMOOTH",
"368 418 LINE",
"362 343 LINE",
"332 343 LINE SMOOTH",
"236 344 OFFCURVE",
"172 297 OFFCURVE",
"153 234 CURVE SMOOTH",
"133 170 OFFCURVE",
"151 113 OFFCURVE",
"239 112 CURVE SMOOTH",
"302 110 OFFCURVE",
"369 112 OFFCURVE",
"379 258 CURVE",
"486 268 LINE",
"489 24 OFFCURVE",
"265 -17 OFFCURVE",
"210 -17 CURVE SMOOTH",
"91 -17 OFFCURVE",
"7 57 OFFCURVE",
"52 208 CURVE SMOOTH",
"79 297 OFFCURVE",
"127 357 OFFCURVE",
"234 373 CURVE"
);
}
);
width = 595;
},
{
layerId = "FBE4A9D6-0C93-4AEC-8266-BAD92744962A";
paths = (
{
closed = 1;
nodes = (
"240 387 LINE",
"173 416 OFFCURVE",
"156 454 OFFCURVE",
"176 523 CURVE SMOOTH",
"207 628 OFFCURVE",
"304 693 OFFCURVE",
"430 693 CURVE SMOOTH",
"477 693 OFFCURVE",
"561 666 OFFCURVE",
"535 563 CURVE",
"505 557 LINE",
"516 621 OFFCURVE",
"484 661 OFFCURVE",
"421 661 CURVE SMOOTH",
"315 661 OFFCURVE",
"235 614 OFFCURVE",
"212 538 CURVE SMOOTH",
"185 448 OFFCURVE",
"229 403 OFFCURVE",
"337 403 CURVE SMOOTH",
"352 403 LINE",
"348 358 LINE",
"332 358 LINE SMOOTH",
"236 359 OFFCURVE",
"161 313 OFFCURVE",
"139 238 CURVE SMOOTH",
"112 154 OFFCURVE",
"151 98 OFFCURVE",
"239 97 CURVE SMOOTH",
"300 95 OFFCURVE",
"379 97 OFFCURVE",
"393 244 CURVE",
"471 252 LINE",
"464 35 OFFCURVE",
"262 -2 OFFCURVE",
"210 -2 CURVE SMOOTH",
"85 -2 OFFCURVE",
"29 77 OFFCURVE",
"66 204 CURVE SMOOTH",
"95 299 OFFCURVE",
"146 345 OFFCURVE",
"236 358 CURVE"
);
}
);
width = 595;
}
);
note = uni0190;
unicode = 0190;
},
{
glyphname = Ereversed;
lastChange = "2019-08-30 20:47:54 +0000";
layers = (
{
layerId = "4FCB07EB-01E7-4D87-AA20-FCB2BF85BBFF";
paths = (
{
closed = 1;
nodes = (
"483 0 LINE",
"673 714 LINE",
"270 729 LINE",
"268 656 LINE",
"565 637 LINE",
"500 419 LINE",
"278 430 LINE",
"254 347 LINE",
"473 331 LINE",
"420 151 LINE",
"115 151 LINE",
"40 0 LINE"
);
}
);
width = 713;
},
{
layerId = "FBE4A9D6-0C93-4AEC-8266-BAD92744962A";
paths = (
{
closed = 1;
nodes = (
"495 -15 LINE",
"692 728 LINE",
"255 745 LINE",
"253 642 LINE",
"545 623 LINE",
"489 435 LINE",
"267 446 LINE",
"234 333 LINE",
"453 317 LINE",
"409 166 LINE",
"106 166 LINE",
"16 -15 LINE"
);
}
);
width = 713;
}
);
note = uni018E;
unicode = 018E;
},
{
glyphname = Esh;
lastChange = "2019-08-30 20:47:54 +0000";
layers = (
{
layerId = "4FCB07EB-01E7-4D87-AA20-FCB2BF85BBFF";
paths = (
{
closed = 1;
nodes = (
"630 629 LINE",
"651 700 LINE",
"250 700 LINE",
"228 629 LINE",
"229 629 LINE",
"229 627 LINE",
"391 349 LINE",
"72 103 LINE",
"39 -7 LINE",
"40 -6 LINE",
"442 -6 LINE",
"474 103 LINE",
"169 103 LINE",
"413 311 LINE",
"413 309 LINE",
"435 381 LINE",
"433 382 LINE",
"434 383 LINE",
"290 629 LINE"
);
}
);
width = 691;
},
{
layerId = "FBE4A9D6-0C93-4AEC-8266-BAD92744962A";
paths = (
{
closed = 1;
nodes = (
"641 614 LINE",
"671 715 LINE",
"239 715 LINE",
"208 614 LINE",
"214 614 LINE",
"214 623 LINE",
"371 353 LINE",
"59 112 LINE",
"8 -60 LINE",
"46 -21 LINE",
"453 -21 LINE",
"494 118 LINE",
"210 118 LINE",
"398 279 LINE",
"398 209 LINE",
"453 389 LINE",
"458 386 LINE",
"453 381 LINE",
"316 614 LINE"
);
}
);
width = 691;
}
);
note = uni01A9;
unicode = 01A9;
},
{
glyphname = Etilde;
lastChange = "2019-08-30 20:47:54 +0000";
layers = (
{
layerId = "4FCB07EB-01E7-4D87-AA20-FCB2BF85BBFF";
paths = (
{
closed = 1;
nodes = (
"410 778 LINE",
"422 821 OFFCURVE",
"441 884 OFFCURVE",
"477 883 CURVE SMOOTH",
"511 882 OFFCURVE",
"497 779 OFFCURVE",
"563 778 CURVE SMOOTH",
"611 777 OFFCURVE",
"642 782 OFFCURVE",
"686 928 CURVE",
"643 928 LINE",
"627 879 OFFCURVE",
"623 828 OFFCURVE",
"577 828 CURVE SMOOTH",
"537 828 OFFCURVE",
"550 928 OFFCURVE",
"490 928 CURVE SMOOTH",
"425 928 OFFCURVE",
"402 895 OFFCURVE",
"360 778 CURVE"
);
},
{
closed = 1;
nodes = (
"40 0 LINE",
"483 0 LINE",
"498 151 LINE",
"193 151 LINE",
"246 331 LINE",
"476 347 LINE",
"500 430 LINE",
"273 419 LINE",
"337 637 LINE",
"645 656 LINE",
"686 729 LINE",
"275 714 LINE"
);
}
);
width = 726;
},
{
layerId = "FBE4A9D6-0C93-4AEC-8266-BAD92744962A";
paths = (
{
closed = 1;
nodes = (
"421 763 LINE",
"441 837 OFFCURVE",
"459 869 OFFCURVE",
"477 868 CURVE",
"485 868 OFFCURVE",
"493 764 OFFCURVE",
"563 763 CURVE SMOOTH",
"637 761 OFFCURVE",
"664 799 OFFCURVE",
"706 943 CURVE",
"632 943 LINE",
"612 887 OFFCURVE",
"612 843 OFFCURVE",
"577 843 CURVE SMOOTH",
"559 843 OFFCURVE",
"561 943 OFFCURVE",
"490 943 CURVE SMOOTH",
"416 943 OFFCURVE",
"389 907 OFFCURVE",
"339 763 CURVE"
);
},
{
closed = 1;
nodes = (
"19 -15 LINE",
"497 -15 LINE",
"515 166 LINE",
"213 166 LINE",
"257 317 LINE",
"487 333 LINE",
"520 446 LINE",
"293 435 LINE",
"348 623 LINE",
"654 642 LINE",
"712 745 LINE",
"264 729 LINE"
);
}
);
width = 726;
}
);
note = uni1EBC;
unicode = 1EBC;
},
{
glyphname = Ezh;
lastChange = "2019-08-30 20:47:54 +0000";
layers = (
{
layerId = "4FCB07EB-01E7-4D87-AA20-FCB2BF85BBFF";
paths = (
{
closed = 1;
nodes = (
"533 406 OFFCURVE",
"563 427 OFFCURVE",
"675 527 CURVE",
"689 598 OFFCURVE",
"689 598 OFFCURVE",
"699 667 CURVE",
"627 671 OFFCURVE",
"355 667 OFFCURVE",
"265 667 CURVE",
"236 573 LINE",
"371 572 OFFCURVE",
"495 572 OFFCURVE",
"598 573 CURVE",
"481 468 OFFCURVE",
"420 430 OFFCURVE",
"286 325 CURVE",
"258 232 LINE",
"390 245 OFFCURVE",
"482 205 OFFCURVE",
"465 126 CURVE",
"424 -23 OFFCURVE",
"276 -111 OFFCURVE",
"188 27 CURVE",
"40 -77 LINE",
"119 -202 OFFCURVE",
"235 -200 OFFCURVE",
"265 -200 CURVE SMOOTH",
"461 -200 OFFCURVE",
"539 -57 OFFCURVE",
"575 107 CURVE SMOOTH",
"596 203 OFFCURVE",
"529 305 OFFCURVE",
"422 314 CURVE"
);
}
);
width = 739;
},
{
layerId = "FBE4A9D6-0C93-4AEC-8266-BAD92744962A";
paths = (
{
closed = 1;
nodes = (
"548 398 OFFCURVE",
"582 424 OFFCURVE",
"685 516 CURVE",
"690 524 LINE",
"704 595 OFFCURVE",
"704 595 OFFCURVE",
"714 665 CURVE",
"700 682 LINE",
"624 686 OFFCURVE",
"330 682 OFFCURVE",
"254 682 CURVE",
"216 558 LINE",
"341 557 OFFCURVE",
"458 557 OFFCURVE",
"558 558 CURVE",
"459 471 OFFCURVE",
"398 432 OFFCURVE",
"273 334 CURVE",
"237 214 LINE",
"377 234 OFFCURVE",
"465 197 OFFCURVE",
"450 130 CURVE",
"406 -32 OFFCURVE",
"262 -82 OFFCURVE",
"193 49 CURVE",
"20 -73 LINE",
"103 -217 OFFCURVE",
"234 -215 OFFCURVE",
"265 -215 CURVE SMOOTH",
"437 -215 OFFCURVE",
"543 -111 OFFCURVE",
"590 104 CURVE SMOOTH",
"611 202 OFFCURVE",
"550 298 OFFCURVE",
"457 323 CURVE"
);
}
);
width = 739;
}
);
note = uni01B7;
unicode = 01B7;
},
{
glyphname = F;
lastChange = "2019-08-30 20:47:54 +0000";
layers = (
{
layerId = "4FCB07EB-01E7-4D87-AA20-FCB2BF85BBFF";
paths = (
{
closed = 1;
nodes = (
"40 0 LINE",
"160 0 LINE",
"247 348 LINE",
"495 366 LINE",
"524 468 LINE",
"273 450 LINE",
"354 646 LINE",
"625 663 LINE",
"645 729 LINE",
"289 717 LINE"
);
}
);
width = 685;
},
{
layerId = "FBE4A9D6-0C93-4AEC-8266-BAD92744962A";
paths = (
{
closed = 1;
nodes = (
"19 -15 LINE",
"172 -15 LINE",
"259 334 LINE",
"507 352 LINE",
"544 484 LINE",
"296 467 LINE",
"364 632 LINE",
"636 649 LINE",
"665 745 LINE",
"278 732 LINE"
);
}
);
width = 685;
}
);
note = F;
unicode = 0046;
},
{
glyphname = Fdotaccent;
lastChange = "2019-08-30 20:47:54 +0000";
layers = (
{
layerId = "4FCB07EB-01E7-4D87-AA20-FCB2BF85BBFF";
paths = (
{
closed = 1;
nodes = (
"447 882 LINE",
"416 781 LINE",
"508 781 LINE",
"540 882 LINE"
);
},
{
closed = 1;
nodes = (
"40 0 LINE",
"160 0 LINE",
"248 348 LINE",
"495 366 LINE",
"525 468 LINE",
"274 450 LINE",
"354 646 LINE",
"625 663 LINE",
"644 729 LINE",
"290 717 LINE"
);
}
);
width = 684;
},
{
layerId = "FBE4A9D6-0C93-4AEC-8266-BAD92744962A";
paths = (
{
closed = 1;
nodes = (
"436 897 LINE",
"396 766 LINE",
"519 766 LINE",
"560 897 LINE"
);
},
{
closed = 1;
nodes = (
"19 -15 LINE",
"172 -15 LINE",
"260 334 LINE",
"506 352 LINE",
"545 485 LINE",
"297 467 LINE",
"364 632 LINE",
"636 649 LINE",
"664 745 LINE",
"279 732 LINE"
);
}
);
width = 684;
}
);
note = uni1E1E;
unicode = 1E1E;
},
{
glyphname = Fhook;
lastChange = "2019-08-30 20:47:54 +0000";
layers = (
{
layerId = "4FCB07EB-01E7-4D87-AA20-FCB2BF85BBFF";
paths = (
{
closed = 1;
nodes = (
"786 663 LINE",
"805 729 LINE",
"451 717 LINE",
"207 17 LINE",
"181 -27 OFFCURVE",
"142 -61 OFFCURVE",
"87 -61 CURVE",
"66 -113 OFFCURVE",
"57 -137 OFFCURVE",
"40 -190 CURVE",
"159 -190 OFFCURVE",
"307 -109 OFFCURVE",
"330 -29 CURVE",
"333 -19 OFFCURVE",
"330 -2 OFFCURVE",
"325 17 CURVE",
"409 348 LINE",
"656 366 LINE",
"686 468 LINE",
"435 450 LINE",
"515 646 LINE"
);
}
);
width = 845;
},
{
layerId = "FBE4A9D6-0C93-4AEC-8266-BAD92744962A";
paths = (
{
closed = 1;
nodes = (
"797 649 LINE",
"825 745 LINE",
"440 732 LINE",
"193 23 LINE",
"164 -26 OFFCURVE",
"125 -49 OFFCURVE",
"77 -46 CURVE",
"53 -105 OFFCURVE",
"44 -129 OFFCURVE",
"26 -185 CURVE",
"40 -205 LINE",
"167 -205 OFFCURVE",
"320 -119 OFFCURVE",
"344 -33 CURVE",
"348 -22 OFFCURVE",
"346 -6 OFFCURVE",
"340 17 CURVE",
"421 334 LINE",
"667 352 LINE",
"706 485 LINE",
"458 467 LINE",
"525 632 LINE"
);
}
);
width = 845;
}
);
note = uni0191;
unicode = 0191;
},
{
glyphname = G;
lastChange = "2019-08-30 20:47:54 +0000";
layers = (
{
anchors = (
{
name = bottom;
position = "{364, 0}";
},
{
name = top;
position = "{537, 789}";
}
);
layerId = "4FCB07EB-01E7-4D87-AA20-FCB2BF85BBFF";
paths = (
{
closed = 1;
nodes = (
"491 182 LINE",
"462 157 OFFCURVE",
"404 145 OFFCURVE",
"340 145 CURVE SMOOTH",
"177 145 OFFCURVE",
"116 194 OFFCURVE",
"162 374 CURVE",
"246 654 OFFCURVE",
"332 665 OFFCURVE",
"495 665 CURVE SMOOTH",
"540 665 OFFCURVE",
"609 661 OFFCURVE",
"674 644 CURVE",
"687 722 LINE",
"667 726 OFFCURVE",
"596 736 OFFCURVE",
"509 736 CURVE SMOOTH",
"300 736 OFFCURVE",
"160 685 OFFCURVE",
"65 364 CURVE SMOOTH",
"-6 126 OFFCURVE",
"77 -14 OFFCURVE",
"286 -14 CURVE SMOOTH",
"381 -14 OFFCURVE",
"447 -14 OFFCURVE",
"537 40 CURVE",
"589 246 LINE",
"651 245 LINE",
"664 341 LINE",
"415 373 LINE",
"396 279 LINE",
"514 261 LINE"
);
}
);
width = 727;
},
{
anchors = (
{
name = bottom;
position = "{364, 0}";
},
{
name = top;
position = "{537, 789}";
}
);
layerId = "FBE4A9D6-0C93-4AEC-8266-BAD92744962A";
paths = (
{
closed = 1;
nodes = (
"478 191 LINE",
"452 171 OFFCURVE",
"402 160 OFFCURVE",
"340 160 CURVE SMOOTH",
"176 160 OFFCURVE",
"136 211 OFFCURVE",
"176 370 CURVE",
"258 640 OFFCURVE",
"333 650 OFFCURVE",
"495 650 CURVE SMOOTH",
"564 650 OFFCURVE",
"633 641 OFFCURVE",
"686 625 CURVE",
"704 734 LINE",
"670 741 OFFCURVE",
"597 751 OFFCURVE",
"509 751 CURVE SMOOTH",
"297 751 OFFCURVE",
"148 697 OFFCURVE",
"51 368 CURVE SMOOTH",
"-23 121 OFFCURVE",
"66 -29 OFFCURVE",
"286 -29 CURVE SMOOTH",
"383 -29 OFFCURVE",
"454 -29 OFFCURVE",
"550 30 CURVE",
"601 231 LINE",
"664 230 LINE",
"681 354 LINE",
"403 390 LINE",
"378 267 LINE",
"495 249 LINE"
);
}
);
width = 727;
}
);
note = G;
unicode = 0047;
},
{
glyphname = Gacute;
lastChange = "2019-08-30 20:47:54 +0000";
layers = (
{
layerId = "4FCB07EB-01E7-4D87-AA20-FCB2BF85BBFF";
paths = (
{
closed = 1;
nodes = (
"580 929 LINE",
"466 775 LINE",
"535 775 LINE",
"627 929 LINE"
);
},
{
closed = 1;
nodes = (
"492 182 LINE",
"463 157 OFFCURVE",
"404 145 OFFCURVE",
"340 145 CURVE SMOOTH",
"177 145 OFFCURVE",
"116 194 OFFCURVE",
"162 374 CURVE",
"246 654 OFFCURVE",
"333 665 OFFCURVE",
"496 665 CURVE SMOOTH",
"541 665 OFFCURVE",
"610 661 OFFCURVE",
"675 644 CURVE",
"687 722 LINE",
"667 726 OFFCURVE",
"597 736 OFFCURVE",
"510 736 CURVE SMOOTH",
"301 736 OFFCURVE",
"160 685 OFFCURVE",
"65 364 CURVE SMOOTH",
"-6 126 OFFCURVE",
"77 -14 OFFCURVE",
"286 -14 CURVE SMOOTH",
"381 -14 OFFCURVE",
"447 -14 OFFCURVE",
"537 40 CURVE",
"589 246 LINE",
"651 245 LINE",
"665 341 LINE",
"415 373 LINE",
"397 279 LINE",
"515 261 LINE"
);
}
);
width = 727;
},
{
layerId = "FBE4A9D6-0C93-4AEC-8266-BAD92744962A";
paths = (
{
closed = 1;
nodes = (
"572 944 LINE",
"436 760 LINE",
"544 760 LINE",
"653 944 LINE"
);
},
{
closed = 1;
nodes = (
"479 191 LINE",
"453 171 OFFCURVE",
"403 160 OFFCURVE",
"340 160 CURVE SMOOTH",
"176 160 OFFCURVE",
"136 211 OFFCURVE",
"176 370 CURVE",
"258 640 OFFCURVE",
"334 650 OFFCURVE",
"496 650 CURVE SMOOTH",
"565 650 OFFCURVE",
"634 641 OFFCURVE",
"687 625 CURVE",
"704 734 LINE",
"670 741 OFFCURVE",
"598 751 OFFCURVE",
"510 751 CURVE SMOOTH",
"298 751 OFFCURVE",
"148 697 OFFCURVE",
"51 368 CURVE SMOOTH",
"-23 121 OFFCURVE",
"66 -29 OFFCURVE",
"286 -29 CURVE SMOOTH",
"383 -29 OFFCURVE",
"454 -29 OFFCURVE",
"550 30 CURVE",
"601 231 LINE",
"664 230 LINE",
"682 354 LINE",
"403 390 LINE",
"379 267 LINE",
"496 249 LINE"
);
}
);
width = 727;
}
);
note = uni01F4;
unicode = 01F4;
},
{
glyphname = Gbreve;
lastChange = "2019-08-30 20:47:54 +0000";
layers = (
{
layerId = "4FCB07EB-01E7-4D87-AA20-FCB2BF85BBFF";
paths = (
{
closed = 1;
nodes = (
"601 745 OFFCURVE",
"710 819 OFFCURVE",
"746 942 CURVE",
"687 942 LINE",
"661 855 OFFCURVE",
"618 840 OFFCURVE",
"532 840 CURVE SMOOTH",
"459 840 OFFCURVE",
"421 854 OFFCURVE",
"446 942 CURVE",
"386 942 LINE",
"350 819 OFFCURVE",
"406 745 OFFCURVE",
"504 745 CURVE SMOOTH"
);
},
{
closed = 1;
nodes = (
"651 245 LINE",
"665 341 LINE",
"415 373 LINE",
"396 279 LINE",
"515 261 LINE",
"492 182 LINE",
"463 157 OFFCURVE",
"404 145 OFFCURVE",
"340 145 CURVE SMOOTH",
"177 145 OFFCURVE",
"116 194 OFFCURVE",
"162 374 CURVE",
"246 654 OFFCURVE",
"333 665 OFFCURVE",
"496 665 CURVE SMOOTH",
"541 665 OFFCURVE",
"610 661 OFFCURVE",
"675 644 CURVE",
"687 722 LINE",
"667 726 OFFCURVE",
"596 736 OFFCURVE",
"509 736 CURVE SMOOTH",
"300 736 OFFCURVE",
"160 685 OFFCURVE",
"65 364 CURVE SMOOTH",
"-6 126 OFFCURVE",
"77 -14 OFFCURVE",
"286 -14 CURVE SMOOTH",
"381 -14 OFFCURVE",
"447 -14 OFFCURVE",
"537 40 CURVE",
"589 246 LINE"
);
}
);
width = 786;
},
{
layerId = "FBE4A9D6-0C93-4AEC-8266-BAD92744962A";
paths = (
{
closed = 1;
nodes = (
"622 730 OFFCURVE",
"737 827 OFFCURVE",
"765 957 CURVE",
"676 957 LINE",
"654 876 OFFCURVE",
"626 855 OFFCURVE",
"532 855 CURVE SMOOTH",
"449 855 OFFCURVE",
"439 874 OFFCURVE",
"466 957 CURVE",
"375 957 LINE",
"332 825 OFFCURVE",
"387 730 OFFCURVE",
"504 730 CURVE SMOOTH"
);
},
{
closed = 1;
nodes = (
"664 230 LINE",
"682 354 LINE",
"403 390 LINE",
"378 267 LINE",
"496 249 LINE",
"479 191 LINE",
"453 171 OFFCURVE",
"403 160 OFFCURVE",
"340 160 CURVE SMOOTH",
"176 160 OFFCURVE",
"136 211 OFFCURVE",
"176 370 CURVE",
"258 640 OFFCURVE",
"334 650 OFFCURVE",
"496 650 CURVE SMOOTH",
"565 650 OFFCURVE",
"634 641 OFFCURVE",
"687 625 CURVE",
"704 734 LINE",
"670 741 OFFCURVE",
"597 751 OFFCURVE",
"509 751 CURVE SMOOTH",
"297 751 OFFCURVE",
"148 697 OFFCURVE",
"51 368 CURVE SMOOTH",
"-23 121 OFFCURVE",
"66 -29 OFFCURVE",
"286 -29 CURVE SMOOTH",
"383 -29 OFFCURVE",
"454 -29 OFFCURVE",
"550 30 CURVE",
"601 231 LINE"
);
}
);
width = 786;
}
);
note = Gbreve;
unicode = 011E;
},
{
glyphname = Gcommaaccent;
lastChange = "2019-08-30 20:47:54 +0000";
layers = (
{
layerId = "4FCB07EB-01E7-4D87-AA20-FCB2BF85BBFF";
paths = (
{
closed = 1;
nodes = (
"538 761 LINE",
"667 994 LINE",
"566 994 LINE",
"539 907 LINE",
"542 907 LINE",
"451 761 LINE"
);
},
{
closed = 1;
nodes = (
"652 245 LINE",
"664 341 LINE",
"416 373 LINE",
"396 279 LINE",
"515 261 LINE",
"491 182 LINE",
"462 157 OFFCURVE",
"404 145 OFFCURVE",
"340 145 CURVE SMOOTH",
"177 145 OFFCURVE",
"117 194 OFFCURVE",
"163 374 CURVE",
"247 654 OFFCURVE",
"333 665 OFFCURVE",
"496 665 CURVE SMOOTH",
"541 665 OFFCURVE",
"609 661 OFFCURVE",
"674 644 CURVE",
"688 722 LINE",
"668 726 OFFCURVE",
"596 736 OFFCURVE",
"509 736 CURVE SMOOTH",
"300 736 OFFCURVE",
"160 685 OFFCURVE",
"65 364 CURVE SMOOTH",
"-6 126 OFFCURVE",
"77 -14 OFFCURVE",
"286 -14 CURVE SMOOTH",
"381 -14 OFFCURVE",
"448 -14 OFFCURVE",
"538 40 CURVE",
"590 246 LINE"
);
}
);
width = 728;
},
{
layerId = "FBE4A9D6-0C93-4AEC-8266-BAD92744962A";
paths = (
{
closed = 1;
nodes = (
"547 746 LINE",
"692 1009 LINE",
"555 1009 LINE",
"519 892 LINE",
"515 892 LINE",
"424 746 LINE"
);
},
{
closed = 1;
nodes = (
"665 230 LINE",
"681 354 LINE",
"404 390 LINE",
"378 267 LINE",
"496 249 LINE",
"478 191 LINE",
"452 171 OFFCURVE",
"402 160 OFFCURVE",
"340 160 CURVE SMOOTH",
"176 160 OFFCURVE",
"137 210 OFFCURVE",
"177 370 CURVE",
"259 640 OFFCURVE",
"334 650 OFFCURVE",
"496 650 CURVE SMOOTH",
"564 650 OFFCURVE",
"633 641 OFFCURVE",
"686 625 CURVE",
"705 734 LINE",
"671 741 OFFCURVE",
"597 751 OFFCURVE",
"509 751 CURVE SMOOTH",
"297 751 OFFCURVE",
"148 697 OFFCURVE",
"51 368 CURVE SMOOTH",
"-23 121 OFFCURVE",
"66 -29 OFFCURVE",
"286 -29 CURVE SMOOTH",
"383 -29 OFFCURVE",
"455 -29 OFFCURVE",
"551 30 CURVE",
"602 231 LINE"
);
}
);
width = 728;
}
);
note = uni0122;
unicode = 0122;
},
{
glyphname = Gdotaccent;
lastChange = "2019-08-30 20:47:54 +0000";
layers = (
{
layerId = "4FCB07EB-01E7-4D87-AA20-FCB2BF85BBFF";
paths = (
{
closed = 1;
nodes = (
"504 898 LINE",
"475 797 LINE",
"567 797 LINE",
"597 898 LINE"
);
},
{
closed = 1;
nodes = (
"492 182 LINE",
"463 157 OFFCURVE",
"404 145 OFFCURVE",
"340 145 CURVE SMOOTH",
"177 145 OFFCURVE",
"118 194 OFFCURVE",
"164 374 CURVE",
"248 654 OFFCURVE",
"333 665 OFFCURVE",
"496 665 CURVE SMOOTH",
"541 665 OFFCURVE",
"610 661 OFFCURVE",
"675 644 CURVE",
"688 722 LINE",
"668 726 OFFCURVE",
"597 736 OFFCURVE",
"510 736 CURVE SMOOTH",
"301 736 OFFCURVE",
"160 685 OFFCURVE",
"65 364 CURVE SMOOTH",
"-6 126 OFFCURVE",
"77 -14 OFFCURVE",
"286 -14 CURVE SMOOTH",
"381 -14 OFFCURVE",
"449 -14 OFFCURVE",
"539 40 CURVE",
"590 246 LINE",
"653 245 LINE",
"665 341 LINE",
"416 373 LINE",
"397 279 LINE",
"515 261 LINE"
);
}
);
width = 728;
},
{
layerId = "FBE4A9D6-0C93-4AEC-8266-BAD92744962A";
paths = (
{
closed = 1;
nodes = (
"493 913 LINE",
"455 782 LINE",
"578 782 LINE",
"617 913 LINE"
);
},
{
closed = 1;
nodes = (
"479 191 LINE",
"453 171 OFFCURVE",
"403 160 OFFCURVE",
"340 160 CURVE SMOOTH",
"177 160 OFFCURVE",
"137 209 OFFCURVE",
"178 370 CURVE",
"260 640 OFFCURVE",
"334 650 OFFCURVE",
"496 650 CURVE SMOOTH",
"565 650 OFFCURVE",
"634 641 OFFCURVE",
"687 625 CURVE",
"705 734 LINE",
"671 741 OFFCURVE",
"598 751 OFFCURVE",
"510 751 CURVE SMOOTH",
"298 751 OFFCURVE",
"148 697 OFFCURVE",
"51 368 CURVE SMOOTH",
"-23 121 OFFCURVE",
"66 -29 OFFCURVE",
"286 -29 CURVE SMOOTH",
"383 -29 OFFCURVE",
"456 -29 OFFCURVE",
"552 30 CURVE",
"602 231 LINE",
"666 230 LINE",
"682 354 LINE",
"404 390 LINE",
"379 267 LINE",
"496 249 LINE"
);
}
);
width = 728;
}
);
note = Gdotaccent;
unicode = 0120;
},
{
glyphname = Ghook;
lastChange = "2019-08-30 20:47:54 +0000";
layers = (
{
layerId = "4FCB07EB-01E7-4D87-AA20-FCB2BF85BBFF";
paths = (
{
closed = 1;
nodes = (
"651 245 LINE",
"665 341 LINE",
"415 373 LINE",
"396 279 LINE",
"515 261 LINE",
"491 182 LINE",
"462 157 OFFCURVE",
"404 145 OFFCURVE",
"340 145 CURVE SMOOTH",
"177 145 OFFCURVE",
"116 194 OFFCURVE",
"162 374 CURVE",
"246 654 OFFCURVE",
"332 665 OFFCURVE",
"495 665 CURVE SMOOTH",
"540 665 OFFCURVE",
"609 661 OFFCURVE",
"674 644 CURVE",
"678 666 LINE",
"679 666 LINE",
"735 854 LINE SMOOTH",
"739 865 OFFCURVE",
"742 874 OFFCURVE",
"744 883 CURVE",
"749 900 LINE SMOOTH",
"757 927 OFFCURVE",
"759 928 OFFCURVE",
"809 928 CURVE",
"822 975 LINE",
"728 976 OFFCURVE",
"711 972 OFFCURVE",
"689 911 CURVE SMOOTH",
"684 895 OFFCURVE",
"683 891 OFFCURVE",
"680 883 CURVE",
"672 856 LINE",
"671 854 LINE",
"634 729 LINE",
"602 733 OFFCURVE",
"558 736 OFFCURVE",
"509 736 CURVE SMOOTH",
"300 736 OFFCURVE",
"160 685 OFFCURVE",
"65 364 CURVE SMOOTH",
"-6 126 OFFCURVE",
"77 -14 OFFCURVE",
"286 -14 CURVE SMOOTH",
"381 -14 OFFCURVE",
"447 -14 OFFCURVE",
"537 40 CURVE",
"589 246 LINE"
);
}
);
width = 862;
},
{
layerId = "FBE4A9D6-0C93-4AEC-8266-BAD92744962A";
paths = (
{
closed = 1;
nodes = (
"664 230 LINE",
"682 354 LINE",
"403 390 LINE",
"378 267 LINE",
"496 249 LINE",
"478 191 LINE",
"452 171 OFFCURVE",
"402 160 OFFCURVE",
"340 160 CURVE SMOOTH",
"176 160 OFFCURVE",
"136 211 OFFCURVE",
"176 370 CURVE",
"258 640 OFFCURVE",
"333 650 OFFCURVE",
"495 650 CURVE SMOOTH",
"564 650 OFFCURVE",
"633 641 OFFCURVE",
"686 625 CURVE",
"691 651 LINE",
"690 651 LINE",
"749 849 LINE",
"754 861 OFFCURVE",
"757 870 OFFCURVE",
"759 879 CURVE SMOOTH",
"763 896 LINE",
"769 916 OFFCURVE",
"763 913 OFFCURVE",
"820 913 CURVE",
"842 990 LINE",
"721 992 OFFCURVE",
"700 986 OFFCURVE",
"675 916 CURVE SMOOTH",
"669 899 OFFCURVE",
"669 895 OFFCURVE",
"666 888 CURVE",
"658 862 LINE",
"657 860 LINE",
"623 745 LINE",
"589 749 OFFCURVE",
"549 751 OFFCURVE",
"509 751 CURVE SMOOTH",
"297 751 OFFCURVE",
"148 697 OFFCURVE",
"51 368 CURVE SMOOTH",
"-23 121 OFFCURVE",
"66 -29 OFFCURVE",
"286 -29 CURVE SMOOTH",
"383 -29 OFFCURVE",
"454 -29 OFFCURVE",
"550 30 CURVE",
"601 231 LINE"
);
}
);
width = 862;
}
);
note = uni0193;
unicode = 0193;
},
{
glyphname = H;
lastChange = "2019-08-30 20:47:54 +0000";
layers = (
{
anchors = (
{
name = bottom;
position = "{414, 0}";
},
{
name = center;
position = "{414, 350}";
},
{
name = gram;
position = "{855, 340}";
},
{
name = top;
position = "{414, 700}";
},
{
name = topleft;
position = "{340, 700}";
}
);
layerId = "4FCB07EB-01E7-4D87-AA20-FCB2BF85BBFF";
paths = (
{
closed = 1;
nodes = (
"670 0 LINE",
"858 729 LINE",
"762 729 LINE",
"633 332 LINE",
"336 332 LINE",
"440 729 LINE",
"345 729 LINE",
"110 0 LINE",
"249 0 LINE",
"298 187 LINE",
"585 187 LINE",
"524 0 LINE"
);
}
);
width = 828;
},
{
anchors = (
{
name = bottom;
position = "{414, 0}";
},
{
name = center;
position = "{414, 350}";
},
{
name = gram;
position = "{855, 340}";
},
{
name = top;
position = "{414, 700}";
},
{
name = topleft;
position = "{340, 700}";
}
);
layerId = "FBE4A9D6-0C93-4AEC-8266-BAD92744962A";
paths = (
{
closed = 1;
nodes = (
"682 -15 LINE",
"877 744 LINE",
"751 744 LINE",
"622 347 LINE",
"355 347 LINE",
"459 744 LINE",
"334 744 LINE",
"89 -15 LINE",
"261 -15 LINE",
"310 172 LINE",
"564 172 LINE",
"503 -15 LINE"
);
}
);
width = 828;
}
);
note = H;
unicode = 0048;
},
{
glyphname = Hbar;
lastChange = "2019-08-30 20:47:54 +0000";
layers = (
{
layerId = "4FCB07EB-01E7-4D87-AA20-FCB2BF85BBFF";
paths = (
{
closed = 1;
nodes = (
"844 583 LINE",
"751 583 LINE",
"788 729 LINE",
"693 729 LINE",
"646 584 LINE",
"333 584 LINE",
"370 729 LINE",
"275 729 LINE",
"228 585 LINE",
"146 585 LINE",
"113 494 LINE",
"200 494 LINE",
"40 0 LINE",
"180 0 LINE",
"229 187 LINE",
"515 187 LINE",
"454 0 LINE",
"600 0 LINE",
"727 492 LINE",
"809 492 LINE"
);
},
{
closed = 1;
nodes = (
"563 332 LINE",
"266 332 LINE",
"309 493 LINE",
"616 493 LINE"
);
}
);
width = 884;
},
{
layerId = "FBE4A9D6-0C93-4AEC-8266-BAD92744962A";
paths = (
{
closed = 1;
nodes = (
"866 598 LINE",
"770 598 LINE",
"807 744 LINE",
"682 744 LINE",
"635 599 LINE",
"352 599 LINE",
"389 744 LINE",
"264 744 LINE",
"217 600 LINE",
"135 600 LINE",
"92 479 LINE",
"179 479 LINE",
"19 -15 LINE",
"192 -15 LINE",
"241 172 LINE",
"494 172 LINE",
"433 -15 LINE",
"612 -15 LINE",
"739 477 LINE",
"819 477 LINE"
);
},
{
closed = 1;
nodes = (
"552 347 LINE",
"286 347 LINE",
"321 478 LINE",
"595 478 LINE"
);
}
);
width = 884;
}
);
note = Hbar;
unicode = 0126;
},
{
glyphname = Hdotbelow;
lastChange = "2019-08-30 20:47:54 +0000";
layers = (
{
layerId = "4FCB07EB-01E7-4D87-AA20-FCB2BF85BBFF";
paths = (
{
closed = 1;
nodes = (
"600 0 LINE",
"787 729 LINE",
"693 729 LINE",
"563 332 LINE",
"266 332 LINE",
"370 729 LINE",
"275 729 LINE",
"40 0 LINE",
"179 0 LINE",
"229 187 LINE",
"515 187 LINE",
"454 0 LINE"
);
},
{
closed = 1;
nodes = (
"226 -160 LINE",
"319 -160 LINE",
"348 -59 LINE",
"255 -59 LINE"
);
}
);
width = 827;
},
{
layerId = "FBE4A9D6-0C93-4AEC-8266-BAD92744962A";
paths = (
{
closed = 1;
nodes = (
"612 -15 LINE",
"806 744 LINE",
"682 744 LINE",
"552 347 LINE",
"285 347 LINE",
"389 744 LINE",
"264 744 LINE",
"19 -15 LINE",
"191 -15 LINE",
"241 172 LINE",
"494 172 LINE",
"433 -15 LINE"
);
},
{
closed = 1;
nodes = (
"206 -175 LINE",
"330 -175 LINE",
"368 -44 LINE",
"244 -44 LINE"
);
}
);
width = 827;
}
);
note = uni1E24;
unicode = 1E24;
},
{
glyphname = Hhook;
lastChange = "2019-08-30 20:47:54 +0000";
layers = (
{
layerId = "4FCB07EB-01E7-4D87-AA20-FCB2BF85BBFF";
paths = (
{
closed = 1;
nodes = (
"600 0 LINE",
"789 729 LINE",
"693 729 LINE",
"564 332 LINE",
"267 332 LINE",
"371 729 LINE",
"301 729 LINE",
"302 732 LINE",
"183 732 OFFCURVE",
"93 618 OFFCURVE",
"66 527 CURVE SMOOTH",
"46 460 LINE",
"77 361 LINE",
"89 397 OFFCURVE",
"108 467 OFFCURVE",
"124 503 CURVE SMOOTH",
"145 551 OFFCURVE",
"182 592 OFFCURVE",
"234 601 CURVE",
"40 0 LINE",
"180 0 LINE",
"229 187 LINE",
"515 187 LINE",
"454 0 LINE"
);
}
);
width = 829;
},
{
layerId = "FBE4A9D6-0C93-4AEC-8266-BAD92744962A";
paths = (
{
closed = 1;
nodes = (
"612 -15 LINE",
"808 744 LINE",
"682 744 LINE",
"553 347 LINE",
"286 347 LINE",
"390 744 LINE",
"322 744 LINE",
"322 746 LINE",
"209 759 OFFCURVE",
"90 661 OFFCURVE",
"52 531 CURVE SMOOTH",
"30 460 LINE",
"77 312 LINE",
"103 393 OFFCURVE",
"122 462 OFFCURVE",
"138 497 CURVE SMOOTH",
"155 537 OFFCURVE",
"181 565 OFFCURVE",
"211 578 CURVE",
"19 -15 LINE",
"192 -15 LINE",
"241 172 LINE",
"494 172 LINE",
"433 -15 LINE"
);
}
);
width = 829;
}
);
note = uniA7AA;
unicode = A7AA;
},
{
glyphname = Hturned;
lastChange = "2019-08-30 20:47:54 +0000";
layers = (
{
layerId = "4FCB07EB-01E7-4D87-AA20-FCB2BF85BBFF";
paths = (
{
closed = 1;
nodes = (
"58 430 LINE SMOOTH",
"36 355 OFFCURVE",
"34 297 OFFCURVE",
"54 256 CURVE SMOOTH",
"75 216 OFFCURVE",
"113 196 OFFCURVE",
"171 196 CURVE SMOOTH",
"253 196 OFFCURVE",
"316 223 OFFCURVE",
"365 278 CURVE",
"276 0 LINE",
"391 0 LINE",
"590 730 LINE",
"514 730 LINE",
"427 477 LINE SMOOTH",
"410 424 OFFCURVE",
"385 383 OFFCURVE",
"351 354 CURVE SMOOTH",
"316 326 OFFCURVE",
"277 312 OFFCURVE",
"233 312 CURVE SMOOTH",
"194 312 OFFCURVE",
"167 321 OFFCURVE",
"152 339 CURVE SMOOTH",
"134 362 OFFCURVE",
"134 402 OFFCURVE",
"150 459 CURVE SMOOTH",
"226 730 LINE",
"152 730 LINE"
);
}
);
width = 630;
},
{
layerId = "FBE4A9D6-0C93-4AEC-8266-BAD92744962A";
paths = (
{
closed = 1;
nodes = (
"44 434 LINE SMOOTH",
"20 355 OFFCURVE",
"19 293 OFFCURVE",
"41 249 CURVE SMOOTH",
"64 204 OFFCURVE",
"108 181 OFFCURVE",
"171 181 CURVE SMOOTH",
"235 181 OFFCURVE",
"289 197 OFFCURVE",
"334 229 CURVE",
"255 -15 LINE",
"402 -15 LINE",
"610 745 LINE",
"503 745 LINE",
"413 482 LINE SMOOTH",
"396 431 OFFCURVE",
"373 392 OFFCURVE",
"341 366 CURVE SMOOTH",
"309 340 OFFCURVE",
"274 327 OFFCURVE",
"233 327 CURVE SMOOTH",
"198 327 OFFCURVE",
"176 334 OFFCURVE",
"164 348 CURVE",
"150 367 OFFCURVE",
"149 401 OFFCURVE",
"164 455 CURVE SMOOTH",
"246 745 LINE",
"141 745 LINE"
);
}
);
width = 630;
}
);
note = uniA78D;
unicode = A78D;
},
{
glyphname = I;
lastChange = "2019-08-30 20:47:54 +0000";
layers = (
{
anchors = (
{
name = bottom;
position = "{201, 0}";
},
{
name = ogonek;
position = "{362, 10}";
},
{
name = top;
position = "{341, 777}";
},
{
name = topleft;
position = "{20, 700}";
}
);
layerId = "4FCB07EB-01E7-4D87-AA20-FCB2BF85BBFF";
paths = (
{
closed = 1;
nodes = (
"169 0 LINE",
"218 243 OFFCURVE",
"283 492 OFFCURVE",
"362 729 CURVE",
"262 729 LINE",
"243 632 OFFCURVE",
"155 292 OFFCURVE",
"40 0 CURVE"
);
}
);
width = 402;
},
{
anchors = (
{
name = bottom;
position = "{201, 0}";
},
{
name = ogonek;
position = "{362, 10}";
},
{
name = top;
position = "{341, 777}";
},
{
name = topleft;
position = "{20, 700}";
}
);
layerId = "FBE4A9D6-0C93-4AEC-8266-BAD92744962A";
paths = (
{
closed = 1;
nodes = (
"181 -15 LINE",
"234 247 OFFCURVE",
"302 506 OFFCURVE",
"383 744 CURVE",
"250 744 LINE",
"236 666 OFFCURVE",
"142 294 OFFCURVE",
"18 -15 CURVE"
);
}
);
width = 402;
}
);
note = I;
unicode = 0049;
},
{
glyphname = Idieresisacute;
lastChange = "2019-08-30 20:47:54 +0000";
layers = (
{
layerId = "4FCB07EB-01E7-4D87-AA20-FCB2BF85BBFF";
paths = (
{
closed = 1;
nodes = (
"440 1084 LINE",
"325 930 LINE",
"395 930 LINE",
"487 1084 LINE"
);
},
{
closed = 1;
nodes = (
"181 851 LINE",
"151 750 LINE",
"244 750 LINE",
"274 851 LINE"
);
},
{
closed = 1;
nodes = (
"430 851 LINE",
"401 750 LINE",
"493 750 LINE",
"523 851 LINE"
);
},
{
closed = 1;
nodes = (
"168 0 LINE",
"217 243 OFFCURVE",
"282 492 OFFCURVE",
"361 729 CURVE",
"261 729 LINE",
"242 632 OFFCURVE",
"155 292 OFFCURVE",
"40 0 CURVE"
);
}
);
width = 563;
},
{
layerId = "FBE4A9D6-0C93-4AEC-8266-BAD92744962A";
paths = (
{
closed = 1;
nodes = (
"432 1099 LINE",
"295 915 LINE",
"404 915 LINE",
"513 1099 LINE"
);
},
{
closed = 1;
nodes = (
"170 866 LINE",
"131 735 LINE",
"255 735 LINE",
"294 866 LINE"
);
},
{
closed = 1;
nodes = (
"419 866 LINE",
"381 735 LINE",
"504 735 LINE",
"543 866 LINE"
);
},
{
closed = 1;
nodes = (
"180 -15 LINE",
"233 247 OFFCURVE",
"301 506 OFFCURVE",
"382 744 CURVE",
"249 744 LINE",
"235 666 OFFCURVE",
"142 294 OFFCURVE",
"18 -15 CURVE"
);
}
);
width = 563;
}
);
note = uni1E2E;
unicode = 1E2E;
},
{
glyphname = Idotaccent;
lastChange = "2019-08-30 20:47:54 +0000";
layers = (
{
layerId = "4FCB07EB-01E7-4D87-AA20-FCB2BF85BBFF";
paths = (
{
closed = 1;
nodes = (
"334 961 LINE",
"305 860 LINE",
"397 860 LINE",
"427 961 LINE"
);
},
{
closed = 1;
nodes = (
"169 0 LINE",
"218 243 OFFCURVE",
"283 492 OFFCURVE",
"362 729 CURVE",
"261 729 LINE",
"242 632 OFFCURVE",
"155 292 OFFCURVE",
"40 0 CURVE"
);
}
);
width = 467;
},
{
layerId = "FBE4A9D6-0C93-4AEC-8266-BAD92744962A";
paths = (
{
closed = 1;
nodes = (
"323 976 LINE",
"285 845 LINE",
"408 845 LINE",
"447 976 LINE"
);
},
{
closed = 1;
nodes = (
"181 -15 LINE",
"234 247 OFFCURVE",
"302 506 OFFCURVE",
"383 744 CURVE",
"249 744 LINE",
"235 666 OFFCURVE",
"142 294 OFFCURVE",
"18 -15 CURVE"
);
}
);
width = 467;
}
);
note = Idotaccent;
unicode = 0130;
},
{
glyphname = Idotbelow;
lastChange = "2019-08-30 20:47:54 +0000";
layers = (
{
layerId = "4FCB07EB-01E7-4D87-AA20-FCB2BF85BBFF";
paths = (
{
closed = 1;
nodes = (
"192 0 LINE",
"241 243 OFFCURVE",
"306 492 OFFCURVE",
"385 729 CURVE",
"286 729 LINE",
"267 632 OFFCURVE",
"180 292 OFFCURVE",
"65 0 CURVE"
);
},
{
closed = 1;
nodes = (
"70 -55 LINE",
"40 -156 LINE",
"132 -156 LINE",
"162 -55 LINE"
);
}
);
width = 425;
},
{
layerId = "FBE4A9D6-0C93-4AEC-8266-BAD92744962A";
paths = (
{
closed = 1;
nodes = (
"204 -15 LINE",
"257 247 OFFCURVE",
"325 506 OFFCURVE",
"406 744 CURVE",
"274 744 LINE",
"260 666 OFFCURVE",
"167 294 OFFCURVE",
"43 -15 CURVE"
);
},
{
closed = 1;
nodes = (
"59 -40 LINE",
"20 -171 LINE",
"143 -171 LINE",
"182 -40 LINE"
);
}
);
width = 425;
}
);
note = uni1ECA;
unicode = 1ECA;
},
{
glyphname = Ihookabove;
lastChange = "2019-08-30 20:47:54 +0000";
layers = (
{
layerId = "4FCB07EB-01E7-4D87-AA20-FCB2BF85BBFF";
paths = (
{
closed = 1;
nodes = (
"306 857 LINE",
"325 865 OFFCURVE",
"342 869 OFFCURVE",
"357 869 CURVE SMOOTH",
"373 869 OFFCURVE",
"383 865 OFFCURVE",
"390 859 CURVE SMOOTH",
"398 853 OFFCURVE",
"400 843 OFFCURVE",
"397 833 CURVE SMOOTH",
"395 823 OFFCURVE",
"385 812 OFFCURVE",
"369 802 CURVE",
"357 795 LINE SMOOTH",
"350 791 OFFCURVE",
"348 788 OFFCURVE",
"347 787 CURVE",
"345 784 OFFCURVE",
"342 780 OFFCURVE",
"341 775 CURVE",
"315 775 LINE",
"316 778 LINE SMOOTH",
"317 784 OFFCURVE",
"320 790 OFFCURVE",
"323 794 CURVE",
"327 799 OFFCURVE",
"333 803 OFFCURVE",
"343 809 CURVE",
"355 818 LINE",
"363 823 OFFCURVE",
"368 829 OFFCURVE",
"370 835 CURVE SMOOTH",
"371 841 OFFCURVE",
"366 849 OFFCURVE",
"345 849 CURVE SMOOTH",
"331 849 OFFCURVE",
"317 844 OFFCURVE",
"300 836 CURVE"
);
},
{
closed = 1;
nodes = (
"168 0 LINE",
"217 243 OFFCURVE",
"281 492 OFFCURVE",
"360 729 CURVE",
"261 729 LINE",
"242 632 OFFCURVE",
"155 292 OFFCURVE",
"40 0 CURVE"
);
}
);
width = 438;
},
{
layerId = "FBE4A9D6-0C93-4AEC-8266-BAD92744962A";
paths = (
{
closed = 1;
nodes = (
"318 846 LINE",
"333 851 OFFCURVE",
"346 854 OFFCURVE",
"357 854 CURVE SMOOTH",
"368 854 OFFCURVE",
"375 852 OFFCURVE",
"381 847 CURVE",
"384 845 OFFCURVE",
"384 841 OFFCURVE",
"380 831 CURVE",
"377 827 OFFCURVE",
"371 821 OFFCURVE",
"361 815 CURVE SMOOTH",
"349 808 LINE",
"346 806 OFFCURVE",
"342 803 OFFCURVE",
"340 801 CURVE",
"338 801 OFFCURVE",
"334 796 OFFCURVE",
"331 790 CURVE",
"336 790 LINE",
"331 775 LINE",
"331 777 OFFCURVE",
"333 782 OFFCURVE",
"335 785 CURVE",
"337 787 OFFCURVE",
"340 790 OFFCURVE",
"351 797 CURVE",
"364 806 LINE SMOOTH",
"377 815 OFFCURVE",
"389 831 OFFCURVE",
"385 842 CURVE",
"382 856 OFFCURVE",
"365 864 OFFCURVE",
"345 864 CURVE SMOOTH",
"330 864 OFFCURVE",
"315 860 OFFCURVE",
"323 864 CURVE"
);
},
{
closed = 1;
nodes = (
"180 -15 LINE",
"231 238 OFFCURVE",
"298 498 OFFCURVE",
"381 744 CURVE",
"249 744 LINE",
"235 666 OFFCURVE",
"142 294 OFFCURVE",
"18 -15 CURVE"
);
}
);
width = 438;
}
);
note = uni1EC8;
unicode = 1EC8;
},
{
glyphname = Imacron;
lastChange = "2019-08-30 20:47:54 +0000";
layers = (
{
layerId = "4FCB07EB-01E7-4D87-AA20-FCB2BF85BBFF";
paths = (
{
closed = 1;
nodes = (
"196 911 LINE",
"147 841 LINE",
"560 858 LINE",
"557 935 LINE"
);
},
{
closed = 1;
nodes = (
"169 0 LINE",
"218 243 OFFCURVE",
"283 492 OFFCURVE",
"362 729 CURVE",
"262 729 LINE",
"243 632 OFFCURVE",
"155 292 OFFCURVE",
"40 0 CURVE"
);
}
);
width = 600;
},
{
layerId = "FBE4A9D6-0C93-4AEC-8266-BAD92744962A";
paths = (
{
closed = 1;
nodes = (
"188 925 LINE",
"117 825 LINE",
"576 844 LINE",
"571 951 LINE"
);
},
{
closed = 1;
nodes = (
"181 -15 LINE",
"234 247 OFFCURVE",
"302 506 OFFCURVE",
"383 744 CURVE",
"250 744 LINE",
"236 666 OFFCURVE",
"142 294 OFFCURVE",
"18 -15 CURVE"
);
}
);
width = 600;
}
);
note = Imacron;
unicode = 012A;
},
{
glyphname = Iogonek;
lastChange = "2019-08-30 20:47:54 +0000";
layers = (
{
layerId = "4FCB07EB-01E7-4D87-AA20-FCB2BF85BBFF";
paths = (
{
closed = 1;
nodes = (
"107 -129 OFFCURVE",
"91 -118 OFFCURVE",
"96 -98 CURVE SMOOTH",
"102 -77 OFFCURVE",
"134 -44 OFFCURVE",
"188 0 CURVE",
"257 0 LINE",
"306 243 OFFCURVE",
"371 492 OFFCURVE",
"450 729 CURVE",
"350 729 LINE",
"331 632 OFFCURVE",
"244 292 OFFCURVE",
"129 0 CURVE",
"133 0 LINE",
"82 -41 OFFCURVE",
"52 -78 OFFCURVE",
"43 -108 CURVE SMOOTH",
"26 -164 OFFCURVE",
"78 -196 OFFCURVE",
"184 -194 CURVE",
"186 -177 OFFCURVE",
"192 -144 OFFCURVE",
"195 -124 CURVE",
"176 -127 OFFCURVE",
"158 -129 OFFCURVE",
"144 -129 CURVE SMOOTH"
);
}
);
width = 490;
},
{
layerId = "FBE4A9D6-0C93-4AEC-8266-BAD92744962A";
paths = (
{
closed = 1;
nodes = (
"116 -114 OFFCURVE",
"109 -109 OFFCURVE",
"110 -102 CURVE",
"115 -86 OFFCURVE",
"143 -57 OFFCURVE",
"193 -15 CURVE",
"269 -15 LINE",
"322 247 OFFCURVE",
"390 506 OFFCURVE",
"471 744 CURVE",
"338 744 LINE",
"325 668 OFFCURVE",
"235 310 OFFCURVE",
"107 -15 CURVE",
"93 -15 LINE",
"59 -47 OFFCURVE",
"37 -77 OFFCURVE",
"29 -104 CURVE SMOOTH",
"8 -171 OFFCURVE",
"68 -211 OFFCURVE",
"184 -209 CURVE",
"199 -196 LINE",
"202 -171 OFFCURVE",
"214 -110 OFFCURVE",
"213 -106 CURVE",
"182 -111 OFFCURVE",
"159 -114 OFFCURVE",
"144 -114 CURVE SMOOTH"
);
}
);
width = 490;
}
);
note = Iogonek;
unicode = 012E;
},
{
glyphname = Iotaafrican;
lastChange = "2019-08-30 20:47:54 +0000";
layers = (
{
layerId = "4FCB07EB-01E7-4D87-AA20-FCB2BF85BBFF";
paths = (
{
closed = 1;
nodes = (
"175 137 LINE",
"215 365 OFFCURVE",
"267 541 OFFCURVE",
"331 737 CURVE",
"259 737 LINE",
"182 477 OFFCURVE",
"143 367 OFFCURVE",
"64 142 CURVE",
"53 104 LINE SMOOTH",
"35 44 OFFCURVE",
"29 -7 OFFCURVE",
"78 -7 CURVE SMOOTH",
"200 -7 LINE",
"226 77 LINE",
"194 73 OFFCURVE",
"160 68 OFFCURVE",
"173 137 CURVE"
);
}
);
width = 371;
},
{
layerId = "FBE4A9D6-0C93-4AEC-8266-BAD92744962A";
paths = (
{
closed = 1;
nodes = (
"188 122 LINE",
"231 370 OFFCURVE",
"285 548 OFFCURVE",
"352 752 CURVE",
"248 752 LINE",
"169 485 OFFCURVE",
"130 375 OFFCURVE",
"50 147 CURVE",
"39 108 LINE SMOOTH",
"13 22 OFFCURVE",
"25 -22 OFFCURVE",
"78 -22 CURVE SMOOTH",
"211 -22 LINE",
"247 94 LINE",
"202 91 OFFCURVE",
"180 78 OFFCURVE",
"186 122 CURVE"
);
}
);
width = 371;
}
);
note = uni0196;
unicode = 0196;
},
{
glyphname = Istroke;
lastChange = "2019-08-30 20:47:54 +0000";
layers = (
{
layerId = "4FCB07EB-01E7-4D87-AA20-FCB2BF85BBFF";
paths = (
{
closed = 1;
nodes = (
"330 397 LINE",
"262 397 LINE",
"292 509 OFFCURVE",
"325 620 OFFCURVE",
"362 729 CURVE",
"262 729 LINE",
"251 676 OFFCURVE",
"221 549 OFFCURVE",
"176 397 CURVE",
"112 397 LINE",
"85 306 LINE",
"148 306 LINE",
"118 206 OFFCURVE",
"80 100 OFFCURVE",
"40 0 CURVE",
"169 0 LINE",
"188 101 OFFCURVE",
"213 204 OFFCURVE",
"239 306 CURVE",
"304 306 LINE"
);
}
);
width = 402;
},
{
layerId = "FBE4A9D6-0C93-4AEC-8266-BAD92744962A";
paths = (
{
closed = 1;
nodes = (
"350 412 LINE",
"282 412 LINE",
"312 524 OFFCURVE",
"345 635 OFFCURVE",
"383 744 CURVE",
"250 744 LINE",
"242 702 OFFCURVE",
"212 572 OFFCURVE",
"165 412 CURVE",
"101 412 LINE",
"65 291 LINE",
"128 291 LINE",
"97 190 OFFCURVE",
"58 84 OFFCURVE",
"18 -15 CURVE",
"181 -15 LINE",
"200 86 OFFCURVE",
"225 189 OFFCURVE",
"251 291 CURVE",
"315 291 LINE"
);
}
);
width = 402;
}
);
note = uni0197;
unicode = 0197;
},
{
glyphname = Itilde;
lastChange = "2019-08-30 20:47:54 +0000";
layers = (
{
layerId = "4FCB07EB-01E7-4D87-AA20-FCB2BF85BBFF";
paths = (
{
closed = 1;
nodes = (
"241 791 LINE",
"253 834 OFFCURVE",
"272 897 OFFCURVE",
"308 896 CURVE SMOOTH",
"342 895 OFFCURVE",
"327 792 OFFCURVE",
"393 791 CURVE SMOOTH",
"441 790 OFFCURVE",
"473 795 OFFCURVE",
"517 941 CURVE",
"474 941 LINE",
"458 892 OFFCURVE",
"454 841 OFFCURVE",
"408 841 CURVE SMOOTH",
"368 841 OFFCURVE",
"381 941 OFFCURVE",
"321 941 CURVE SMOOTH",
"256 941 OFFCURVE",
"233 908 OFFCURVE",
"191 791 CURVE"
);
},
{
closed = 1;
nodes = (
"168 0 LINE",
"217 243 OFFCURVE",
"282 492 OFFCURVE",
"361 729 CURVE",
"261 729 LINE",
"242 632 OFFCURVE",
"155 292 OFFCURVE",
"40 0 CURVE"
);
}
);
width = 557;
},
{
layerId = "FBE4A9D6-0C93-4AEC-8266-BAD92744962A";
paths = (
{
closed = 1;
nodes = (
"252 776 LINE",
"272 850 OFFCURVE",
"290 882 OFFCURVE",
"308 881 CURVE",
"316 881 OFFCURVE",
"323 777 OFFCURVE",
"393 776 CURVE SMOOTH",
"468 774 OFFCURVE",
"496 813 OFFCURVE",
"537 956 CURVE",
"463 956 LINE",
"443 900 OFFCURVE",
"443 856 OFFCURVE",
"408 856 CURVE SMOOTH",
"390 856 OFFCURVE",
"392 956 OFFCURVE",
"321 956 CURVE SMOOTH",
"247 956 OFFCURVE",
"220 920 OFFCURVE",
"170 776 CURVE"
);
},
{
closed = 1;
nodes = (
"180 -15 LINE",
"233 247 OFFCURVE",
"301 506 OFFCURVE",
"382 744 CURVE",
"249 744 LINE",
"235 666 OFFCURVE",
"142 294 OFFCURVE",
"18 -15 CURVE"
);
}
);
width = 557;
}
);
note = Itilde;
unicode = 0128;
},
{
glyphname = J;
lastChange = "2019-08-30 20:47:54 +0000";
layers = (
{
layerId = "4FCB07EB-01E7-4D87-AA20-FCB2BF85BBFF";
paths = (
{
closed = 1;
nodes = (
"507 727 LINE",
"612 727 LINE",
"373 31 LINE SMOOTH",
"313 -145 OFFCURVE",
"242 -209 OFFCURVE",
"98 -211 CURVE",
"40 -205 LINE",
"95 -44 LINE",
"137 -55 LINE SMOOTH",
"210 -74 OFFCURVE",
"262 -16 OFFCURVE",
"281 37 CURVE SMOOTH"
);
}
);
width = 652;
},
{
layerId = "FBE4A9D6-0C93-4AEC-8266-BAD92744962A";
paths = (
{
closed = 1;
nodes = (
"518 712 LINE",
"591 712 LINE",
"359 36 LINE SMOOTH",
"300 -135 OFFCURVE",
"235 -194 OFFCURVE",
"99 -196 CURVE",
"60 -192 LINE",
"105 -62 LINE",
"133 -70 LINE SMOOTH",
"201 -87 OFFCURVE",
"268 -44 OFFCURVE",
"295 32 CURVE SMOOTH"
);
}
);
width = 652;
}
);
note = J;
unicode = 004A;
},
{
glyphname = K;
lastChange = "2019-08-30 20:47:54 +0000";
layers = (
{
layerId = "4FCB07EB-01E7-4D87-AA20-FCB2BF85BBFF";
paths = (
{
closed = 1;
nodes = (
"40 0 LINE",
"157 0 LINE",
"255 289 LINE",
"348 0 LINE",
"562 0 LINE",
"348 327 LINE",
"691 729 LINE",
"575 729 LINE",
"275 359 LINE",
"397 729 LINE",
"316 729 LINE"
);
}
);
width = 731;
},
{
layerId = "FBE4A9D6-0C93-4AEC-8266-BAD92744962A";
paths = (
{
closed = 1;
nodes = (
"18 -15 LINE",
"168 -15 LINE",
"255 241 LINE",
"337 -15 LINE",
"590 -15 LINE",
"367 326 LINE",
"724 744 LINE",
"568 744 LINE",
"315 432 LINE",
"418 744 LINE",
"306 744 LINE"
);
}
);
width = 731;
}
);
note = K;
unicode = 004B;
},
{
glyphname = Kcommaaccent;
lastChange = "2019-08-30 20:47:54 +0000";
layers = (
{
layerId = "4FCB07EB-01E7-4D87-AA20-FCB2BF85BBFF";
paths = (
{
closed = 1;
nodes = (
"560 774 LINE",
"689 1007 LINE",
"588 1007 LINE",
"562 920 LINE",
"565 920 LINE",
"473 774 LINE"
);
},
{
closed = 1;
nodes = (
"349 327 LINE",
"691 729 LINE",
"575 729 LINE",
"275 359 LINE",
"396 729 LINE",
"316 729 LINE",
"40 0 LINE",
"157 0 LINE",
"254 289 LINE",
"348 0 LINE",
"561 0 LINE"
);
}
);
width = 731;
},
{
layerId = "FBE4A9D6-0C93-4AEC-8266-BAD92744962A";
paths = (
{
closed = 1;
nodes = (
"569 759 LINE",
"714 1022 LINE",
"577 1022 LINE",
"542 905 LINE",
"538 905 LINE",
"446 759 LINE"
);
},
{
closed = 1;
nodes = (
"368 326 LINE",
"723 744 LINE",
"568 744 LINE",
"315 432 LINE",
"417 744 LINE",
"306 744 LINE",
"18 -15 LINE",
"168 -15 LINE",
"254 241 LINE",
"337 -15 LINE",
"589 -15 LINE"
);
}
);
width = 731;
}
);
note = uni0136;
unicode = 0136;
},
{
glyphname = Khook;
lastChange = "2019-08-30 20:47:54 +0000";
layers = (
{
layerId = "4FCB07EB-01E7-4D87-AA20-FCB2BF85BBFF";
paths = (
{
closed = 1;
nodes = (
"348 327 LINE",
"608 631 LINE",
"632 614 OFFCURVE",
"637 581 OFFCURVE",
"632 545 CURVE SMOOTH",
"627 509 OFFCURVE",
"606 439 OFFCURVE",
"595 403 CURVE",
"684 502 LINE",
"704 569 LINE SMOOTH",
"720 623 OFFCURVE",
"719 686 OFFCURVE",
"690 727 CURVE",
"691 729 LINE",
"688 729 LINE",
"670 756 OFFCURVE",
"637 774 OFFCURVE",
"591 774 CURVE",
"586 757 OFFCURVE",
"582 742 OFFCURVE",
"578 729 CURVE",
"575 729 LINE",
"274 359 LINE",
"396 729 LINE",
"315 729 LINE",
"40 0 LINE",
"157 0 LINE",
"253 289 LINE",
"347 0 LINE",
"561 0 LINE"
);
}
);
width = 754;
},
{
layerId = "FBE4A9D6-0C93-4AEC-8266-BAD92744962A";
paths = (
{
closed = 1;
nodes = (
"367 326 LINE",
"609 609 LINE",
"618 596 OFFCURVE",
"621 575 OFFCURVE",
"617 547 CURVE SMOOTH",
"612 512 OFFCURVE",
"592 443 OFFCURVE",
"561 343 CURVE",
"697 494 LINE",
"718 565 LINE SMOOTH",
"737 629 OFFCURVE",
"731 695 OFFCURVE",
"707 728 CURVE",
"715 744 LINE",
"696 744 LINE",
"671 775 OFFCURVE",
"629 792 OFFCURVE",
"580 789 CURVE",
"573 767 OFFCURVE",
"568 749 OFFCURVE",
"567 744 CURVE",
"568 744 LINE",
"314 432 LINE",
"417 744 LINE",
"305 744 LINE",
"18 -15 LINE",
"168 -15 LINE",
"253 241 LINE",
"336 -15 LINE",
"589 -15 LINE"
);
}
);
width = 754;
}
);
note = uni0198;
unicode = 0198;
},
{
glyphname = L;
lastChange = "2019-08-30 20:47:54 +0000";
layers = (
{
anchors = (
{
name = bottom;
position = "{273, 0}";
},
{
name = center;
position = "{273, 350}";
},
{
name = top;
position = "{273, 700}";
},
{
name = topright;
position = "{370, 464}";
}
);
layerId = "4FCB07EB-01E7-4D87-AA20-FCB2BF85BBFF";
paths = (
{
closed = 1;
nodes = (
"40 0 LINE",
"469 0 LINE",
"505 151 LINE",
"178 145 LINE",
"352 729 LINE",
"280 729 LINE"
);
}
);
width = 545;
},
{
anchors = (
{
name = bottom;
position = "{273, 0}";
},
{
name = center;
position = "{273, 350}";
},
{
name = top;
position = "{273, 700}";
},
{
name = topright;
position = "{370, 464}";
}
);
layerId = "FBE4A9D6-0C93-4AEC-8266-BAD92744962A";
paths = (
{
closed = 1;
nodes = (
"19 -15 LINE",
"481 -15 LINE",
"524 166 LINE",
"198 160 LINE",
"372 744 LINE",
"269 744 LINE"
);
}
);
width = 545;
}
);
note = L;
unicode = 004C;
},
{
glyphname = LJ;
lastChange = "2019-08-30 20:47:54 +0000";
layers = (
{
layerId = "4FCB07EB-01E7-4D87-AA20-FCB2BF85BBFF";
paths = (
{
closed = 1;
nodes = (
"40 0 LINE",
"470 0 LINE",
"505 151 LINE",
"178 145 LINE",
"352 729 LINE",
"281 729 LINE"
);
},
{
closed = 1;
nodes = (
"1021 727 LINE",
"1126 727 LINE",
"888 31 LINE SMOOTH",
"828 -145 OFFCURVE",
"758 -209 OFFCURVE",
"614 -211 CURVE",
"555 -205 LINE",
"610 -44 LINE",
"651 -55 LINE SMOOTH",
"724 -74 OFFCURVE",
"776 -16 OFFCURVE",
"795 37 CURVE SMOOTH"
);
}
);
width = 1166;
},
{
layerId = "FBE4A9D6-0C93-4AEC-8266-BAD92744962A";
paths = (
{
closed = 1;
nodes = (
"19 -15 LINE",
"482 -15 LINE",
"524 166 LINE",
"198 160 LINE",
"372 744 LINE",
"270 744 LINE"
);
},
{
closed = 1;
nodes = (
"1032 712 LINE",
"1105 712 LINE",
"874 36 LINE SMOOTH",
"815 -136 OFFCURVE",
"750 -194 OFFCURVE",
"615 -196 CURVE",
"575 -192 LINE",
"620 -62 LINE",
"647 -70 LINE",
"715 -87 OFFCURVE",
"782 -44 OFFCURVE",
"809 32 CURVE SMOOTH"
);
}
);
width = 1166;
}
);
note = uni01C7;
unicode = 01C7;
},
{
glyphname = Lacute;
lastChange = "2019-08-30 20:47:54 +0000";
layers = (
{
layerId = "4FCB07EB-01E7-4D87-AA20-FCB2BF85BBFF";
paths = (
{
closed = 1;
nodes = (
"394 942 LINE",
"280 788 LINE",
"349 788 LINE",
"441 942 LINE"
);
},
{
closed = 1;
nodes = (
"40 0 LINE",
"468 0 LINE",
"505 151 LINE",
"177 145 LINE",
"351 729 LINE",
"280 729 LINE"
);
}
);
width = 545;
},
{
layerId = "FBE4A9D6-0C93-4AEC-8266-BAD92744962A";
paths = (
{
closed = 1;
nodes = (
"386 957 LINE",
"250 773 LINE",
"358 773 LINE",
"467 957 LINE"
);
},
{
closed = 1;
nodes = (
"19 -15 LINE",
"480 -15 LINE",
"524 166 LINE",
"197 160 LINE",
"371 744 LINE",
"269 744 LINE"
);
}
);
width = 545;
}
);
note = Lacute;
unicode = 0139;
},
{
glyphname = Lcircumflexbelow;
lastChange = "2019-08-30 20:47:54 +0000";
layers = (
{
layerId = "4FCB07EB-01E7-4D87-AA20-FCB2BF85BBFF";
paths = (
{
closed = 1;
nodes = (
"91 0 LINE",
"521 0 LINE",
"557 151 LINE",
"229 145 LINE",
"403 729 LINE",
"332 729 LINE"
);
},
{
closed = 1;
nodes = (
"260 -108 LINE",
"200 -172 LINE",
"40 -303 LINE",
"89 -303 LINE",
"249 -204 LINE",
"353 -303 LINE",
"402 -303 LINE",
"320 -172 LINE",
"303 -108 LINE"
);
}
);
width = 597;
},
{
layerId = "FBE4A9D6-0C93-4AEC-8266-BAD92744962A";
paths = (
{
closed = 1;
nodes = (
"70 -15 LINE",
"533 -15 LINE",
"576 166 LINE",
"249 160 LINE",
"423 744 LINE",
"321 744 LINE"
);
},
{
closed = 1;
nodes = (
"254 -93 LINE",
"190 -161 LINE",
"-2 -318 LINE",
"93 -318 LINE",
"247 -223 LINE",
"347 -318 LINE",
"429 -318 LINE",
"334 -166 LINE",
"315 -93 LINE"
);
}
);
width = 597;
}
);
note = uni1E3C;
unicode = 1E3C;
},
{
glyphname = Lcommaaccent;
lastChange = "2019-08-30 20:47:54 +0000";
layers = (
{
layerId = "4FCB07EB-01E7-4D87-AA20-FCB2BF85BBFF";
paths = (
{
closed = 1;
nodes = (
"352 774 LINE",
"482 1007 LINE",
"381 1007 LINE",
"354 920 LINE",
"357 920 LINE",
"266 774 LINE"
);
},
{
closed = 1;
nodes = (
"506 151 LINE",
"178 145 LINE",
"352 729 LINE",
"281 729 LINE",
"40 0 LINE",
"470 0 LINE"
);
}
);
width = 546;
},
{
layerId = "FBE4A9D6-0C93-4AEC-8266-BAD92744962A";
paths = (
{
closed = 1;
nodes = (
"361 759 LINE",
"508 1022 LINE",
"370 1022 LINE",
"334 905 LINE",
"330 905 LINE",
"239 759 LINE"
);
},
{
closed = 1;
nodes = (
"525 166 LINE",
"198 160 LINE",
"372 744 LINE",
"270 744 LINE",
"19 -15 LINE",
"482 -15 LINE"
);
}
);
width = 546;
}
);
note = uni013B;
unicode = 013B;
},
{
glyphname = Ldot;
lastChange = "2019-08-30 20:47:54 +0000";
layers = (
{
layerId = "4FCB07EB-01E7-4D87-AA20-FCB2BF85BBFF";
paths = (
{
closed = 1;
nodes = (
"40 0 LINE",
"469 0 LINE",
"505 151 LINE",
"178 145 LINE",
"352 729 LINE",
"280 729 LINE"
);
},
{
closed = 1;
nodes = (
"514 698 LINE",
"485 597 LINE",
"578 597 LINE",
"607 698 LINE"
);
}
);
width = 647;
},
{
layerId = "FBE4A9D6-0C93-4AEC-8266-BAD92744962A";
paths = (
{
closed = 1;
nodes = (
"19 -15 LINE",
"481 -15 LINE",
"524 166 LINE",
"198 160 LINE",
"372 744 LINE",
"269 744 LINE"
);
},
{
closed = 1;
nodes = (
"503 713 LINE",
"465 582 LINE",
"589 582 LINE",
"627 713 LINE"
);
}
);
width = 647;
}
);
note = Ldot;
unicode = 013F;
},
{
glyphname = Ldotbelow;
lastChange = "2019-08-30 20:47:54 +0000";
layers = (
{
layerId = "4FCB07EB-01E7-4D87-AA20-FCB2BF85BBFF";
paths = (
{
closed = 1;
nodes = (
"40 0 LINE",
"470 0 LINE",
"506 151 LINE",
"178 145 LINE",
"352 729 LINE",
"281 729 LINE"
);
},
{
closed = 1;
nodes = (
"195 -54 LINE",
"164 -155 LINE",
"257 -155 LINE",
"287 -54 LINE"
);
}
);
width = 546;
},
{
layerId = "FBE4A9D6-0C93-4AEC-8266-BAD92744962A";
paths = (
{
closed = 1;
nodes = (
"19 -15 LINE",
"482 -15 LINE",
"525 166 LINE",
"198 160 LINE",
"372 744 LINE",
"270 744 LINE"
);
},
{
closed = 1;
nodes = (
"184 -39 LINE",
"144 -170 LINE",
"268 -170 LINE",
"307 -39 LINE"
);
}
);
width = 546;
}
);
note = uni1E36;
unicode = 1E36;
},
{
glyphname = Lj;
lastChange = "2019-08-30 20:47:54 +0000";
layers = (
{
layerId = "4FCB07EB-01E7-4D87-AA20-FCB2BF85BBFF";
paths = (
{
closed = 1;
nodes = (
"40 0 LINE",
"469 0 LINE",
"506 151 LINE",
"178 145 LINE",
"352 729 LINE",
"280 729 LINE"
);
},
{
closed = 1;
nodes = (
"817 708 LINE",
"788 607 LINE",
"880 607 LINE",
"910 708 LINE"
);
},
{
closed = 1;
nodes = (
"481 -172 OFFCURVE",
"479 -171 OFFCURVE",
"438 -151 CURVE",
"384 -263 LINE",
"424 -265 OFFCURVE",
"524 -271 OFFCURVE",
"560 -240 CURVE SMOOTH",
"591 -213 OFFCURVE",
"611 -161 OFFCURVE",
"650 -54 CURVE SMOOTH",
"840 480 LINE",
"762 480 LINE",
"632 78 OFFCURVE",
"587 -67 OFFCURVE",
"536 -118 CURVE SMOOTH"
);
}
);
width = 950;
},
{
layerId = "FBE4A9D6-0C93-4AEC-8266-BAD92744962A";
paths = (
{
closed = 1;
nodes = (
"19 -15 LINE",
"481 -15 LINE",
"525 166 LINE",
"198 160 LINE",
"372 744 LINE",
"269 744 LINE"
);
},
{
closed = 1;
nodes = (
"806 723 LINE",
"768 592 LINE",
"891 592 LINE",
"930 723 LINE"
);
},
{
closed = 1;
nodes = (
"475 -157 OFFCURVE",
"484 -156 OFFCURVE",
"431 -131 CURVE",
"361 -277 LINE",
"475 -284 OFFCURVE",
"539 -278 OFFCURVE",
"570 -251 CURVE SMOOTH",
"604 -222 OFFCURVE",
"625 -166 OFFCURVE",
"664 -59 CURVE SMOOTH",
"861 495 LINE",
"751 495 LINE",
"618 85 OFFCURVE",
"574 -59 OFFCURVE",
"525 -107 CURVE SMOOTH"
);
}
);
width = 950;
}
);
note = uni01C8;
unicode = 01C8;
},
{
glyphname = Lmiddletilde;
lastChange = "2019-08-30 20:47:54 +0000";
layers = (
{
layerId = "4FCB07EB-01E7-4D87-AA20-FCB2BF85BBFF";
paths = (
{
closed = 1;
nodes = (
"505 0 LINE",
"540 151 LINE",
"213 145 LINE",
"257 290 LINE",
"268 281 OFFCURVE",
"282 275 OFFCURVE",
"302 275 CURVE SMOOTH",
"366 274 OFFCURVE",
"403 279 OFFCURVE",
"449 425 CURVE",
"395 425 LINE",
"378 376 OFFCURVE",
"375 325 OFFCURVE",
"316 325 CURVE SMOOTH",
"296 325 OFFCURVE",
"288 339 OFFCURVE",
"277 356 CURVE",
"387 729 LINE",
"316 729 LINE",
"215 423 LINE",
"209 424 OFFCURVE",
"203 425 OFFCURVE",
"196 425 CURVE SMOOTH",
"112 425 OFFCURVE",
"84 392 OFFCURVE",
"40 275 CURVE",
"105 275 LINE",
"117 318 OFFCURVE",
"138 381 OFFCURVE",
"183 380 CURVE SMOOTH",
"190 380 OFFCURVE",
"193 378 OFFCURVE",
"198 374 CURVE",
"75 0 LINE"
);
}
);
width = 580;
},
{
layerId = "FBE4A9D6-0C93-4AEC-8266-BAD92744962A";
paths = (
{
closed = 1;
nodes = (
"517 -15 LINE",
"559 166 LINE",
"233 160 LINE",
"266 267 LINE",
"277 262 OFFCURVE",
"289 260 OFFCURVE",
"302 260 CURVE SMOOTH",
"395 259 OFFCURVE",
"425 294 OFFCURVE",
"469 440 CURVE",
"384 440 LINE",
"363 384 OFFCURVE",
"364 340 OFFCURVE",
"316 340 CURVE SMOOTH",
"306 340 OFFCURVE",
"302 345 OFFCURVE",
"293 358 CURVE",
"407 744 LINE",
"305 744 LINE",
"205 440 LINE",
"202 440 OFFCURVE",
"199 440 OFFCURVE",
"196 440 CURVE SMOOTH",
"103 440 OFFCURVE",
"70 403 OFFCURVE",
"18 260 CURVE",
"116 260 LINE",
"135 332 OFFCURVE",
"156 366 OFFCURVE",
"183 365 CURVE",
"182 365 OFFCURVE",
"181 365 OFFCURVE",
"179 365 CURVE",
"54 -15 LINE"
);
}
);
width = 580;
}
);
note = uni2C62;
unicode = 2C62;
},
{
glyphname = Lslash;
lastChange = "2019-08-30 20:47:54 +0000";
layers = (
{
layerId = "4FCB07EB-01E7-4D87-AA20-FCB2BF85BBFF";
paths = (
{
closed = 1;
nodes = (
"545 0 LINE",
"581 151 LINE",
"253 145 LINE",
"333 411 LINE",
"574 581 LINE",
"530 607 LINE",
"358 494 LINE",
"427 729 LINE",
"357 729 LINE",
"257 428 LINE",
"40 285 LINE",
"125 263 LINE",
"226 335 LINE",
"115 0 LINE"
);
}
);
width = 621;
},
{
layerId = "FBE4A9D6-0C93-4AEC-8266-BAD92744962A";
paths = (
{
closed = 1;
nodes = (
"557 -15 LINE",
"600 166 LINE",
"273 160 LINE",
"346 402 LINE",
"602 582 LINE",
"530 625 LINE",
"384 529 LINE",
"447 744 LINE",
"346 744 LINE",
"244 438 LINE",
"4 279 LINE",
"128 247 LINE",
"197 296 LINE",
"94 -15 LINE"
);
}
);
width = 621;
}
);
note = Lslash;
unicode = 0141;
},
{
glyphname = M;
lastChange = "2019-08-30 20:47:54 +0000";
layers = (
{
layerId = "4FCB07EB-01E7-4D87-AA20-FCB2BF85BBFF";
paths = (
{
closed = 1;
nodes = (
"40 0 LINE",
"171 0 LINE",
"328 671 LINE",
"338 63 LINE",
"437 63 LINE",
"791 671 LINE",
"545 0 LINE",
"693 0 LINE",
"882 729 LINE",
"756 729 LINE",
"457 289 LINE",
"415 729 LINE",
"280 729 LINE"
);
}
);
width = 922;
},
{
layerId = "FBE4A9D6-0C93-4AEC-8266-BAD92744962A";
paths = (
{
closed = 1;
nodes = (
"19 -15 LINE",
"183 -15 LINE",
"343 668 LINE",
"313 671 LINE",
"323 48 LINE",
"446 48 LINE",
"804 663 LINE",
"777 676 LINE",
"524 -15 LINE",
"705 -15 LINE",
"901 744 LINE",
"748 744 LINE",
"468 332 LINE",
"429 744 LINE",
"269 744 LINE"
);
}
);
width = 922;
}
);
note = M;
unicode = 004D;
},
{
glyphname = Macute;
lastChange = "2019-08-30 20:47:54 +0000";
layers = (
{
layerId = "4FCB07EB-01E7-4D87-AA20-FCB2BF85BBFF";
paths = (
{
closed = 1;
nodes = (
"656 913 LINE",
"541 759 LINE",
"610 759 LINE",
"703 913 LINE"
);
},
{
closed = 1;
nodes = (
"40 0 LINE",
"171 0 LINE",
"329 671 LINE",
"338 63 LINE",
"439 63 LINE",
"792 671 LINE",
"547 0 LINE",
"694 0 LINE",
"882 729 LINE",
"757 729 LINE",
"457 289 LINE",
"415 729 LINE",
"281 729 LINE"
);
}
);
width = 922;
},
{
layerId = "FBE4A9D6-0C93-4AEC-8266-BAD92744962A";
paths = (
{
closed = 1;
nodes = (
"648 928 LINE",
"511 744 LINE",
"618 744 LINE",
"730 928 LINE"
);
},
{
closed = 1;
nodes = (
"19 -15 LINE",
"183 -15 LINE",
"344 668 LINE",
"314 671 LINE",
"323 48 LINE",
"448 48 LINE",
"805 663 LINE",
"778 676 LINE",
"526 -15 LINE",
"706 -15 LINE",
"901 744 LINE",
"749 744 LINE",
"468 332 LINE",
"429 744 LINE",
"270 744 LINE"
);
}
);
width = 922;
}
);
note = uni1E3E;
unicode = 1E3E;
},
{
glyphname = Mdotaccent;
lastChange = "2019-08-30 20:47:54 +0000";
layers = (
{
layerId = "4FCB07EB-01E7-4D87-AA20-FCB2BF85BBFF";
paths = (
{
closed = 1;
nodes = (
"580 882 LINE",
"549 781 LINE",
"642 781 LINE",
"673 882 LINE"
);
},
{
closed = 1;
nodes = (
"40 0 LINE",
"172 0 LINE",
"329 671 LINE",
"339 63 LINE",
"439 63 LINE",
"793 671 LINE",
"547 0 LINE",
"694 0 LINE",
"883 729 LINE",
"757 729 LINE",
"459 289 LINE",
"416 729 LINE",
"281 729 LINE"
);
}
);
width = 923;
},
{
layerId = "FBE4A9D6-0C93-4AEC-8266-BAD92744962A";
paths = (
{
closed = 1;
nodes = (
"569 897 LINE",
"529 766 LINE",
"653 766 LINE",
"693 897 LINE"
);
},
{
closed = 1;
nodes = (
"19 -15 LINE",
"184 -15 LINE",
"344 668 LINE",
"314 671 LINE",
"324 48 LINE",
"448 48 LINE",
"806 663 LINE",
"779 676 LINE",
"526 -15 LINE",
"706 -15 LINE",
"902 744 LINE",
"749 744 LINE",
"470 332 LINE",
"430 744 LINE",
"270 744 LINE"
);
}
);
width = 923;
}
);
note = uni1E40;
unicode = 1E40;
},
{
glyphname = N;
lastChange = "2019-08-30 20:47:54 +0000";
layers = (
{
anchors = (
{
name = bottom;
position = "{422, 0}";
},
{
name = top;
position = "{555, 708}";
}
);
layerId = "4FCB07EB-01E7-4D87-AA20-FCB2BF85BBFF";
paths = (
{
closed = 1;
nodes = (
"40 0 LINE",
"187 0 LINE",
"352 616 LINE",
"403 0 LINE",
"550 0 LINE",
"803 727 LINE",
"720 727 LINE",
"499 139 LINE",
"414 700 LINE",
"301 700 LINE"
);
}
);
width = 843;
},
{
anchors = (
{
name = bottom;
position = "{422, 0}";
},
{
name = top;
position = "{555, 708}";
}
);
layerId = "FBE4A9D6-0C93-4AEC-8266-BAD92744962A";
paths = (
{
closed = 1;
nodes = (
"18 -15 LINE",
"199 -15 LINE",
"344 529 LINE",
"389 -15 LINE",
"561 -15 LINE",
"824 742 LINE",
"710 742 LINE",
"505 198 LINE",
"427 715 LINE",
"291 715 LINE"
);
}
);
width = 843;
}
);
note = N;
unicode = 004E;
},
{
glyphname = NJ;
lastChange = "2019-08-30 20:47:54 +0000";
layers = (
{
layerId = "4FCB07EB-01E7-4D87-AA20-FCB2BF85BBFF";
paths = (
{
closed = 1;
nodes = (
"40 0 LINE",
"187 0 LINE",
"352 616 LINE",
"403 0 LINE",
"550 0 LINE",
"803 727 LINE",
"720 727 LINE",
"500 139 LINE",
"415 700 LINE",
"302 700 LINE"
);
},
{
closed = 1;
nodes = (
"1139 727 LINE",
"1244 727 LINE",
"1005 31 LINE SMOOTH",
"945 -145 OFFCURVE",
"874 -209 OFFCURVE",
"730 -211 CURVE",
"672 -205 LINE",
"727 -44 LINE",
"769 -55 LINE SMOOTH",
"842 -74 OFFCURVE",
"893 -16 OFFCURVE",
"912 37 CURVE SMOOTH"
);
}
);
width = 1284;
},
{
layerId = "FBE4A9D6-0C93-4AEC-8266-BAD92744962A";
paths = (
{
closed = 1;
nodes = (
"18 -15 LINE",
"199 -15 LINE",
"344 529 LINE",
"389 -15 LINE",
"561 -15 LINE",
"824 742 LINE",
"710 742 LINE",
"506 198 LINE",
"428 715 LINE",
"292 715 LINE"
);
},
{
closed = 1;
nodes = (
"1150 712 LINE",
"1223 712 LINE",
"991 36 LINE SMOOTH",
"932 -135 OFFCURVE",
"867 -194 OFFCURVE",
"731 -196 CURVE",
"692 -192 LINE",
"737 -62 LINE",
"765 -70 LINE SMOOTH",
"833 -87 OFFCURVE",
"899 -45 OFFCURVE",
"926 32 CURVE SMOOTH"
);
}
);
width = 1284;
}
);
note = uni01CA;
unicode = 01CA;
},
{
glyphname = Nacute;
lastChange = "2019-08-30 20:47:54 +0000";
layers = (
{
layerId = "4FCB07EB-01E7-4D87-AA20-FCB2BF85BBFF";
paths = (
{
closed = 1;
nodes = (
"644 942 LINE",
"529 788 LINE",
"599 788 LINE",
"690 942 LINE"
);
},
{
closed = 1;
nodes = (
"40 0 LINE",
"187 0 LINE",
"352 616 LINE",
"403 0 LINE",
"550 0 LINE",
"803 727 LINE",
"720 727 LINE",
"500 139 LINE",
"414 700 LINE",
"302 700 LINE"
);
}
);
width = 843;
},
{
layerId = "FBE4A9D6-0C93-4AEC-8266-BAD92744962A";
paths = (
{
closed = 1;
nodes = (
"636 957 LINE",
"499 773 LINE",
"608 773 LINE",
"716 957 LINE"
);
},
{
closed = 1;
nodes = (
"18 -15 LINE",
"199 -15 LINE",
"344 529 LINE",
"389 -15 LINE",
"561 -15 LINE",
"824 742 LINE",
"710 742 LINE",
"506 198 LINE",
"427 715 LINE",
"292 715 LINE"
);
}
);
width = 843;
}
);
note = Nacute;
unicode = 0143;
},
{
glyphname = Ncircumflexbelow;
lastChange = "2019-08-30 20:47:54 +0000";
layers = (
{
layerId = "4FCB07EB-01E7-4D87-AA20-FCB2BF85BBFF";
paths = (
{
closed = 1;
nodes = (
"40 0 LINE",
"188 0 LINE",
"353 616 LINE",
"403 0 LINE",
"551 0 LINE",
"804 727 LINE",
"721 727 LINE",
"501 139 LINE",
"415 700 LINE",
"303 700 LINE"
);
},
{
closed = 1;
nodes = (
"265 -113 LINE",
"205 -177 LINE",
"44 -308 LINE",
"94 -308 LINE",
"255 -209 LINE",
"358 -308 LINE",
"407 -308 LINE",
"325 -177 LINE",
"308 -113 LINE"
);
}
);
width = 844;
},
{
layerId = "FBE4A9D6-0C93-4AEC-8266-BAD92744962A";
paths = (
{
closed = 1;
nodes = (
"18 -15 LINE",
"200 -15 LINE",
"345 528 LINE",
"389 -15 LINE",
"562 -15 LINE",
"825 742 LINE",
"711 742 LINE",
"507 198 LINE",
"428 715 LINE",
"293 715 LINE"
);
},
{
closed = 1;
nodes = (
"259 -98 LINE",
"195 -166 LINE",
"2 -323 LINE",
"98 -323 LINE",
"253 -228 LINE",
"352 -323 LINE",
"434 -323 LINE",
"339 -171 LINE",
"320 -98 LINE"
);
}
);
width = 844;
}
);
note = uni1E4A;
unicode = 1E4A;
},
{
glyphname = Ncommaaccent;
lastChange = "2019-08-30 20:47:54 +0000";
layers = (
{
layerId = "4FCB07EB-01E7-4D87-AA20-FCB2BF85BBFF";
paths = (
{
closed = 1;
nodes = (
"720 727 LINE",
"500 139 LINE",
"415 700 LINE",
"302 700 LINE",
"40 0 LINE",
"187 0 LINE",
"352 616 LINE",
"403 0 LINE",
"550 0 LINE",
"804 727 LINE"
);
},
{
closed = 1;
nodes = (
"515 -59 LINE",
"414 -59 LINE",
"387 -146 LINE",
"390 -146 LINE",
"299 -292 LINE",
"386 -292 LINE"
);
}
);
width = 844;
},
{
layerId = "FBE4A9D6-0C93-4AEC-8266-BAD92744962A";
paths = (
{
closed = 1;
nodes = (
"710 742 LINE",
"506 198 LINE",
"428 715 LINE",
"292 715 LINE",
"18 -15 LINE",
"199 -15 LINE",
"344 529 LINE",
"389 -15 LINE",
"561 -15 LINE",
"825 742 LINE"
);
},
{
closed = 1;
nodes = (
"540 -44 LINE",
"403 -44 LINE",
"367 -161 LINE",
"363 -161 LINE",
"272 -307 LINE",
"395 -307 LINE"
);
}
);
width = 844;
}
);
note = uni0145;
unicode = 0145;
},
{
glyphname = Ndotaccent;
lastChange = "2019-08-30 20:47:54 +0000";
layers = (
{
layerId = "4FCB07EB-01E7-4D87-AA20-FCB2BF85BBFF";
paths = (
{
closed = 1;
nodes = (
"568 911 LINE",
"538 810 LINE",
"630 810 LINE",
"660 911 LINE"
);
},
{
closed = 1;
nodes = (
"40 0 LINE",
"187 0 LINE",
"353 616 LINE",
"403 0 LINE",
"550 0 LINE",
"804 727 LINE",
"720 727 LINE",
"500 139 LINE",
"415 700 LINE",
"303 700 LINE"
);
}
);
width = 844;
},
{
layerId = "FBE4A9D6-0C93-4AEC-8266-BAD92744962A";
paths = (
{
closed = 1;
nodes = (
"557 926 LINE",
"518 795 LINE",
"641 795 LINE",
"680 926 LINE"
);
},
{
closed = 1;
nodes = (
"18 -15 LINE",
"198 -15 LINE",
"345 529 LINE",
"389 -15 LINE",
"561 -15 LINE",
"825 742 LINE",
"710 742 LINE",
"506 198 LINE",
"428 715 LINE",
"293 715 LINE"
);
}
);
width = 844;
}
);
note = uni1E44;
unicode = 1E44;
},
{
glyphname = Ndotbelow;
lastChange = "2019-08-30 20:47:54 +0000";
layers = (
{
layerId = "4FCB07EB-01E7-4D87-AA20-FCB2BF85BBFF";
paths = (
{
closed = 1;
nodes = (
"40 0 LINE",
"187 0 LINE",
"352 616 LINE",
"403 0 LINE",
"550 0 LINE",
"803 727 LINE",
"720 727 LINE",
"500 139 LINE",
"414 700 LINE",
"301 700 LINE"
);
},
{
closed = 1;
nodes = (
"249 -59 LINE",
"219 -160 LINE",
"311 -160 LINE",
"342 -59 LINE"
);
}
);
width = 843;
},
{
layerId = "FBE4A9D6-0C93-4AEC-8266-BAD92744962A";
paths = (
{
closed = 1;
nodes = (
"18 -15 LINE",
"199 -15 LINE",
"344 529 LINE",
"389 -15 LINE",
"561 -15 LINE",
"824 742 LINE",
"710 742 LINE",
"506 198 LINE",
"427 715 LINE",
"291 715 LINE"
);
},
{
closed = 1;
nodes = (
"238 -44 LINE",
"199 -175 LINE",
"322 -175 LINE",
"362 -44 LINE"
);
}
);
width = 843;
}
);
note = uni1E46;
unicode = 1E46;
},
{
glyphname = Ngrave;
lastChange = "2019-08-30 20:47:54 +0000";
layers = (
{
layerId = "4FCB07EB-01E7-4D87-AA20-FCB2BF85BBFF";
paths = (
{
closed = 1;
nodes = (
"541 744 LINE",
"659 729 LINE",
"541 856 LINE",
"468 856 LINE"
);
},
{
closed = 1;
nodes = (
"40 0 LINE",
"188 0 LINE",
"352 616 LINE",
"403 0 LINE",
"550 0 LINE",
"804 727 LINE",
"720 727 LINE",
"500 139 LINE",
"415 700 LINE",
"302 700 LINE"
);
}
);
width = 844;
},
{
layerId = "FBE4A9D6-0C93-4AEC-8266-BAD92744962A";
paths = (
{
closed = 1;
nodes = (
"532 730 LINE",
"698 709 LINE",
"548 871 LINE",
"440 871 LINE"
);
},
{
closed = 1;
nodes = (
"18 -15 LINE",
"200 -15 LINE",
"344 528 LINE",
"389 -15 LINE",
"561 -15 LINE",
"825 742 LINE",
"710 742 LINE",
"506 198 LINE",
"428 715 LINE",
"292 715 LINE"
);
}
);
width = 844;
}
);
note = uni01F8;
unicode = 01F8;
},
{
glyphname = Eng;
lastChange = "2019-08-30 20:47:54 +0000";
layers = (
{
layerId = "4FCB07EB-01E7-4D87-AA20-FCB2BF85BBFF";
paths = (
{
closed = 1;
nodes = (
"804 727 LINE",
"720 727 LINE",
"500 139 LINE",
"415 700 LINE",
"302 700 LINE",
"40 0 LINE",
"187 0 LINE",
"352 616 LINE",
"403 0 LINE",
"382 -70 OFFCURVE",
"375 -88 OFFCURVE",
"311 -88 CURVE SMOOTH",
"262 -88 LINE",
"255 -99 OFFCURVE",
"225 -152 OFFCURVE",
"219 -161 CURVE",
"259 -175 OFFCURVE",
"443 -163 OFFCURVE",
"477 -139 CURVE SMOOTH",
"501 -123 OFFCURVE",
"527 -85 OFFCURVE",
"555 12 CURVE"
);
}
);
width = 844;
},
{
layerId = "FBE4A9D6-0C93-4AEC-8266-BAD92744962A";
paths = (
{
closed = 1;
nodes = (
"825 742 LINE",
"710 742 LINE",
"506 198 LINE",
"428 715 LINE",
"292 715 LINE",
"18 -15 LINE",
"199 -15 LINE",
"344 529 LINE",
"388 2 LINE",
"367 -68 OFFCURVE",
"361 -73 OFFCURVE",
"311 -73 CURVE SMOOTH",
"254 -73 LINE",
"241 -93 OFFCURVE",
"206 -154 OFFCURVE",
"196 -169 CURVE",
"211 -196 OFFCURVE",
"445 -180 OFFCURVE",
"485 -151 CURVE",
"518 -130 OFFCURVE",
"544 -79 OFFCURVE",
"569 7 CURVE"
);
}
);
width = 844;
}
);
note = Eng;
unicode = 014A;
},
{
glyphname = Nhookleft;
lastChange = "2019-08-30 20:47:54 +0000";
layers = (
{
layerId = "4FCB07EB-01E7-4D87-AA20-FCB2BF85BBFF";
paths = (
{
closed = 1;
nodes = (
"864 727 LINE",
"644 139 LINE",
"559 700 LINE",
"446 700 LINE",
"190 16 LINE",
"166 -15 OFFCURVE",
"130 -37 OFFCURVE",
"86 -37 CURVE",
"65 -89 OFFCURVE",
"57 -113 OFFCURVE",
"40 -166 CURVE",
"159 -166 OFFCURVE",
"306 -85 OFFCURVE",
"330 -5 CURVE",
"330 -3 OFFCURVE",
"331 -2 OFFCURVE",
"331 0 CURVE",
"332 0 LINE",
"496 616 LINE",
"546 0 LINE",
"694 0 LINE",
"947 727 LINE"
);
}
);
width = 987;
},
{
layerId = "FBE4A9D6-0C93-4AEC-8266-BAD92744962A";
paths = (
{
closed = 1;
nodes = (
"854 742 LINE",
"650 198 LINE",
"572 715 LINE",
"436 715 LINE",
"177 23 LINE",
"151 -9 OFFCURVE",
"116 -25 OFFCURVE",
"76 -22 CURVE",
"52 -81 OFFCURVE",
"44 -105 OFFCURVE",
"26 -161 CURVE",
"40 -181 LINE",
"166 -181 OFFCURVE",
"318 -96 OFFCURVE",
"344 -9 CURVE",
"345 -5 LINE",
"345 -6 OFFCURVE",
"346 -1 OFFCURVE",
"346 -15 CURVE",
"344 -15 LINE",
"488 528 LINE",
"532 -15 LINE",
"705 -15 LINE",
"968 742 LINE"
);
}
);
width = 987;
}
);
note = uni019D;
unicode = 019D;
},
{
glyphname = Nj;
lastChange = "2019-08-30 20:47:54 +0000";
layers = (
{
layerId = "4FCB07EB-01E7-4D87-AA20-FCB2BF85BBFF";
paths = (
{
closed = 1;
nodes = (
"905 729 LINE",
"875 628 LINE",
"968 628 LINE",
"997 729 LINE"
);
},
{
closed = 1;
nodes = (
"40 0 LINE",
"187 0 LINE",
"352 616 LINE",
"402 0 LINE",
"549 0 LINE",
"803 727 LINE",
"720 727 LINE",
"499 139 LINE",
"414 700 LINE",
"302 700 LINE"
);
},
{
closed = 1;
nodes = (
"569 -151 OFFCURVE",
"565 -150 OFFCURVE",
"525 -130 CURVE",
"471 -242 LINE",
"511 -244 OFFCURVE",
"611 -250 OFFCURVE",
"646 -219 CURVE SMOOTH",
"678 -192 OFFCURVE",
"698 -140 OFFCURVE",
"736 -33 CURVE SMOOTH",
"927 501 LINE",
"850 501 LINE",
"720 99 OFFCURVE",
"674 -46 OFFCURVE",
"624 -97 CURVE SMOOTH"
);
}
);
width = 1037;
},
{
layerId = "FBE4A9D6-0C93-4AEC-8266-BAD92744962A";
paths = (
{
closed = 1;
nodes = (
"894 744 LINE",
"855 613 LINE",
"979 613 LINE",
"1017 744 LINE"
);
},
{
closed = 1;
nodes = (
"18 -15 LINE",
"199 -15 LINE",
"344 528 LINE",
"388 -15 LINE",
"560 -15 LINE",
"824 742 LINE",
"710 742 LINE",
"505 198 LINE",
"427 715 LINE",
"292 715 LINE"
);
},
{
closed = 1;
nodes = (
"561 -138 OFFCURVE",
"568 -134 OFFCURVE",
"518 -110 CURVE",
"448 -256 LINE",
"562 -263 OFFCURVE",
"625 -257 OFFCURVE",
"656 -230 CURVE SMOOTH",
"691 -201 OFFCURVE",
"712 -145 OFFCURVE",
"750 -38 CURVE SMOOTH",
"948 516 LINE",
"839 516 LINE",
"706 106 OFFCURVE",
"661 -38 OFFCURVE",
"613 -86 CURVE SMOOTH"
);
}
);
width = 1037;
}
);
note = uni01CB;
unicode = 01CB;
},
{
glyphname = O;
lastChange = "2019-08-30 20:47:54 +0000";
layers = (
{
anchors = (
{
name = bottom;
position = "{381, 0}";
},
{
name = center;
position = "{381, 350}";
},
{
name = ogonek;
position = "{686, 10}";
},
{
name = top;
position = "{576, 766}";
},
{
name = topleft;
position = "{20, 700}";
},
{
name = topright;
position = "{742, 700}";
}
);
layerId = "4FCB07EB-01E7-4D87-AA20-FCB2BF85BBFF";
paths = (
{
closed = 1;
nodes = (
"311 742 OFFCURVE",
"146 594 OFFCURVE",
"78 364 CURVE SMOOTH",
"-14 54 OFFCURVE",
"62 -12 OFFCURVE",
"275 -14 CURVE SMOOTH",
"506 -16 OFFCURVE",
"597 54 OFFCURVE",
"696 364 CURVE SMOOTH",
"769 594 OFFCURVE",
"687 742 OFFCURVE",
"499 742 CURVE SMOOTH"
);
},
{
closed = 1;
nodes = (
"610 672 OFFCURVE",
"656 548 OFFCURVE",
"600 364 CURVE SMOOTH",
"555 213 OFFCURVE",
"462 173 OFFCURVE",
"331 173 CURVE SMOOTH",
"200 173 OFFCURVE",
"128 213 OFFCURVE",
"173 364 CURVE SMOOTH",
"229 548 OFFCURVE",
"348 672 OFFCURVE",
"479 672 CURVE SMOOTH"
);
}
);
width = 762;
},
{
anchors = (
{
name = bottom;
position = "{381, 0}";
},
{
name = center;
position = "{381, 350}";
},
{
name = ogonek;
position = "{686, 10}";
},
{
name = top;
position = "{576, 766}";
},
{
name = topleft;
position = "{20, 700}";
},
{
name = topright;
position = "{742, 700}";
}
);
layerId = "FBE4A9D6-0C93-4AEC-8266-BAD92744962A";
paths = (
{
closed = 1;
nodes = (
"304 757 OFFCURVE",
"133 604 OFFCURVE",
"64 368 CURVE SMOOTH",
"-24 73 OFFCURVE",
"30 -27 OFFCURVE",
"275 -29 CURVE SMOOTH",
"520 -31 OFFCURVE",
"612 52 OFFCURVE",
"710 359 CURVE SMOOTH",
"785 596 OFFCURVE",
"700 757 OFFCURVE",
"499 757 CURVE SMOOTH"
);
},
{
closed = 1;
nodes = (
"597 657 OFFCURVE",
"639 545 OFFCURVE",
"586 368 CURVE SMOOTH",
"547 240 OFFCURVE",
"474 188 OFFCURVE",
"331 188 CURVE SMOOTH",
"190 188 OFFCURVE",
"150 236 OFFCURVE",
"187 360 CURVE SMOOTH",
"242 540 OFFCURVE",
"357 657 OFFCURVE",
"479 657 CURVE SMOOTH"
);
}
);
width = 762;
}
);
note = O;
unicode = 004F;
},
{
glyphname = Obreve;
lastChange = "2019-08-30 20:47:54 +0000";
layers = (
{
layerId = "4FCB07EB-01E7-4D87-AA20-FCB2BF85BBFF";
paths = (
{
closed = 1;
nodes = (
"615 836 OFFCURVE",
"725 910 OFFCURVE",
"761 1033 CURVE",
"701 1033 LINE",
"675 946 OFFCURVE",
"633 931 OFFCURVE",
"547 931 CURVE SMOOTH",
"474 931 OFFCURVE",
"435 945 OFFCURVE",
"460 1033 CURVE",
"401 1033 LINE",
"365 910 OFFCURVE",
"420 836 OFFCURVE",
"518 836 CURVE SMOOTH"
);
},
{
closed = 1;
nodes = (
"312 742 OFFCURVE",
"146 594 OFFCURVE",
"78 364 CURVE SMOOTH",
"-14 54 OFFCURVE",
"62 -12 OFFCURVE",
"275 -14 CURVE SMOOTH",
"506 -16 OFFCURVE",
"598 54 OFFCURVE",
"697 364 CURVE SMOOTH",
"770 594 OFFCURVE",
"688 742 OFFCURVE",
"500 742 CURVE SMOOTH"
);
},
{
closed = 1;
nodes = (
"200 173 OFFCURVE",
"128 213 OFFCURVE",
"173 364 CURVE SMOOTH",
"229 548 OFFCURVE",
"348 672 OFFCURVE",
"479 672 CURVE SMOOTH",
"610 672 OFFCURVE",
"657 548 OFFCURVE",
"601 364 CURVE SMOOTH",
"556 213 OFFCURVE",
"462 173 OFFCURVE",
"331 173 CURVE SMOOTH"
);
}
);
width = 801;
},
{
layerId = "FBE4A9D6-0C93-4AEC-8266-BAD92744962A";
paths = (
{
closed = 1;
nodes = (
"637 821 OFFCURVE",
"752 919 OFFCURVE",
"780 1048 CURVE",
"690 1048 LINE",
"668 967 OFFCURVE",
"641 946 OFFCURVE",
"547 946 CURVE SMOOTH",
"463 946 OFFCURVE",
"453 965 OFFCURVE",
"480 1048 CURVE",
"390 1048 LINE",
"347 916 OFFCURVE",
"401 821 OFFCURVE",
"518 821 CURVE SMOOTH"
);
},
{
closed = 1;
nodes = (
"305 757 OFFCURVE",
"133 604 OFFCURVE",
"64 368 CURVE SMOOTH",
"-24 73 OFFCURVE",
"30 -27 OFFCURVE",
"275 -29 CURVE SMOOTH",
"520 -31 OFFCURVE",
"613 52 OFFCURVE",
"711 359 CURVE SMOOTH",
"786 596 OFFCURVE",
"701 757 OFFCURVE",
"500 757 CURVE SMOOTH"
);
},
{
closed = 1;
nodes = (
"190 188 OFFCURVE",
"150 236 OFFCURVE",
"187 360 CURVE SMOOTH",
"242 540 OFFCURVE",
"357 657 OFFCURVE",
"479 657 CURVE SMOOTH",
"598 657 OFFCURVE",
"640 544 OFFCURVE",
"587 368 CURVE SMOOTH",
"548 240 OFFCURVE",
"475 188 OFFCURVE",
"331 188 CURVE SMOOTH"
);
}
);
width = 801;
}
);
note = Obreve;
unicode = 014E;
},
{
glyphname = Ocircumflexacute;
lastChange = "2019-08-30 20:47:54 +0000";
layers = (
{
layerId = "4FCB07EB-01E7-4D87-AA20-FCB2BF85BBFF";
paths = (
{
closed = 1;
nodes = (
"813 1075 LINE",
"699 921 LINE",
"769 921 LINE",
"861 1075 LINE"
);
},
{
closed = 1;
nodes = (
"565 1044 LINE",
"505 980 LINE",
"345 849 LINE",
"394 849 LINE",
"554 948 LINE",
"658 849 LINE",
"707 849 LINE",
"625 980 LINE",
"609 1044 LINE"
);
},
{
closed = 1;
nodes = (
"313 742 OFFCURVE",
"146 594 OFFCURVE",
"78 364 CURVE SMOOTH",
"-14 54 OFFCURVE",
"63 -12 OFFCURVE",
"276 -14 CURVE SMOOTH",
"507 -16 OFFCURVE",
"597 54 OFFCURVE",
"696 364 CURVE SMOOTH",
"769 594 OFFCURVE",
"689 742 OFFCURVE",
"501 742 CURVE SMOOTH"
);
},
{
closed = 1;
nodes = (
"611 672 OFFCURVE",
"658 548 OFFCURVE",
"602 364 CURVE SMOOTH",
"557 213 OFFCURVE",
"462 173 OFFCURVE",
"331 173 CURVE SMOOTH",
"200 173 OFFCURVE",
"129 213 OFFCURVE",
"174 364 CURVE SMOOTH",
"230 548 OFFCURVE",
"349 672 OFFCURVE",
"480 672 CURVE SMOOTH"
);
}
);
width = 901;
},
{
layerId = "FBE4A9D6-0C93-4AEC-8266-BAD92744962A";
paths = (
{
closed = 1;
nodes = (
"805 1090 LINE",
"669 906 LINE",
"778 906 LINE",
"887 1090 LINE"
);
},
{
closed = 1;
nodes = (
"559 1059 LINE",
"495 991 LINE",
"303 834 LINE",
"398 834 LINE",
"552 929 LINE",
"652 834 LINE",
"734 834 LINE",
"639 986 LINE",
"621 1059 LINE"
);
},
{
closed = 1;
nodes = (
"305 757 OFFCURVE",
"133 604 OFFCURVE",
"64 368 CURVE SMOOTH",
"-24 74 OFFCURVE",
"30 -27 OFFCURVE",
"276 -29 CURVE SMOOTH",
"520 -31 OFFCURVE",
"612 51 OFFCURVE",
"710 359 CURVE SMOOTH",
"786 597 OFFCURVE",
"702 757 OFFCURVE",
"501 757 CURVE SMOOTH"
);
},
{
closed = 1;
nodes = (
"599 657 OFFCURVE",
"641 544 OFFCURVE",
"588 368 CURVE SMOOTH",
"549 240 OFFCURVE",
"475 188 OFFCURVE",
"331 188 CURVE SMOOTH",
"191 188 OFFCURVE",
"151 235 OFFCURVE",
"188 360 CURVE SMOOTH",
"243 540 OFFCURVE",
"358 657 OFFCURVE",
"480 657 CURVE SMOOTH"
);
}
);
width = 901;
}
);
note = uni1ED0;
unicode = 1ED0;
},
{
glyphname = Ocircumflexdotbelow;
lastChange = "2019-08-30 20:47:54 +0000";
layers = (
{
layerId = "4FCB07EB-01E7-4D87-AA20-FCB2BF85BBFF";
paths = (
{
closed = 1;
nodes = (
"569 1046 LINE",
"510 982 LINE",
"349 851 LINE",
"399 851 LINE",
"559 950 LINE",
"662 851 LINE",
"711 851 LINE",
"630 982 LINE",
"614 1046 LINE"
);
},
{
closed = 1;
nodes = (
"312 742 OFFCURVE",
"146 594 OFFCURVE",
"78 364 CURVE SMOOTH",
"-14 54 OFFCURVE",
"62 -12 OFFCURVE",
"275 -14 CURVE SMOOTH",
"506 -16 OFFCURVE",
"597 54 OFFCURVE",
"696 364 CURVE SMOOTH",
"769 594 OFFCURVE",
"688 742 OFFCURVE",
"500 742 CURVE SMOOTH"
);
},
{
closed = 1;
nodes = (
"610 672 OFFCURVE",
"657 548 OFFCURVE",
"601 364 CURVE SMOOTH",
"556 213 OFFCURVE",
"462 173 OFFCURVE",
"331 173 CURVE SMOOTH",
"200 173 OFFCURVE",
"129 213 OFFCURVE",
"174 364 CURVE SMOOTH",
"230 548 OFFCURVE",
"348 672 OFFCURVE",
"479 672 CURVE SMOOTH"
);
},
{
closed = 1;
nodes = (
"199 -113 LINE",
"169 -214 LINE",
"261 -214 LINE",
"292 -113 LINE"
);
}
);
width = 763;
},
{
layerId = "FBE4A9D6-0C93-4AEC-8266-BAD92744962A";
paths = (
{
closed = 1;
nodes = (
"562 1061 LINE",
"500 993 LINE",
"307 836 LINE",
"403 836 LINE",
"557 931 LINE",
"656 836 LINE",
"738 836 LINE",
"644 988 LINE",
"626 1061 LINE"
);
},
{
closed = 1;
nodes = (
"305 757 OFFCURVE",
"133 604 OFFCURVE",
"64 368 CURVE SMOOTH",
"-24 73 OFFCURVE",
"30 -27 OFFCURVE",
"275 -29 CURVE SMOOTH",
"520 -31 OFFCURVE",
"612 52 OFFCURVE",
"710 359 CURVE SMOOTH",
"785 596 OFFCURVE",
"701 757 OFFCURVE",
"500 757 CURVE SMOOTH"
);
},
{
closed = 1;
nodes = (
"598 657 OFFCURVE",
"640 544 OFFCURVE",
"587 368 CURVE SMOOTH",
"548 240 OFFCURVE",
"475 188 OFFCURVE",
"331 188 CURVE SMOOTH",
"191 188 OFFCURVE",
"151 235 OFFCURVE",
"188 360 CURVE SMOOTH",
"244 541 OFFCURVE",
"358 657 OFFCURVE",
"479 657 CURVE SMOOTH"
);
},
{
closed = 1;
nodes = (
"188 -98 LINE",
"149 -229 LINE",
"272 -229 LINE",
"312 -98 LINE"
);
}
);
width = 763;
}
);
note = uni1ED8;
unicode = 1ED8;
},
{
glyphname = Ocircumflexgrave;
lastChange = "2019-08-30 20:47:54 +0000";
layers = (
{
layerId = "4FCB07EB-01E7-4D87-AA20-FCB2BF85BBFF";
paths = (
{
closed = 1;
nodes = (
"770 969 LINE",
"888 954 LINE",
"769 1081 LINE",
"697 1081 LINE"
);
},
{
closed = 1;
nodes = (
"567 1052 LINE",
"507 988 LINE",
"347 857 LINE",
"396 857 LINE",
"557 956 LINE",
"660 857 LINE",
"709 857 LINE",
"627 988 LINE",
"611 1052 LINE"
);
},
{
closed = 1;
nodes = (
"312 742 OFFCURVE",
"146 594 OFFCURVE",
"78 364 CURVE SMOOTH",
"-14 54 OFFCURVE",
"63 -12 OFFCURVE",
"276 -14 CURVE SMOOTH",
"507 -16 OFFCURVE",
"597 54 OFFCURVE",
"696 364 CURVE SMOOTH",
"769 594 OFFCURVE",
"688 742 OFFCURVE",
"500 742 CURVE SMOOTH"
);
},
{
closed = 1;
nodes = (
"610 672 OFFCURVE",
"657 548 OFFCURVE",
"601 364 CURVE SMOOTH",
"556 213 OFFCURVE",
"462 173 OFFCURVE",
"331 173 CURVE SMOOTH",
"200 173 OFFCURVE",
"129 213 OFFCURVE",
"174 364 CURVE SMOOTH",
"230 548 OFFCURVE",
"348 672 OFFCURVE",
"479 672 CURVE SMOOTH"
);
}
);
width = 928;
},
{
layerId = "FBE4A9D6-0C93-4AEC-8266-BAD92744962A";
paths = (
{
closed = 1;
nodes = (
"761 955 LINE",
"927 934 LINE",
"776 1096 LINE",
"669 1096 LINE"
);
},
{
closed = 1;
nodes = (
"561 1067 LINE",
"497 999 LINE",
"305 842 LINE",
"400 842 LINE",
"555 937 LINE",
"654 842 LINE",
"736 842 LINE",
"641 994 LINE",
"623 1067 LINE"
);
},
{
closed = 1;
nodes = (
"305 757 OFFCURVE",
"133 604 OFFCURVE",
"64 368 CURVE SMOOTH",
"-24 74 OFFCURVE",
"30 -27 OFFCURVE",
"276 -29 CURVE SMOOTH",
"520 -31 OFFCURVE",
"612 51 OFFCURVE",
"710 359 CURVE SMOOTH",
"785 596 OFFCURVE",
"701 757 OFFCURVE",
"500 757 CURVE SMOOTH"
);
},
{
closed = 1;
nodes = (
"598 657 OFFCURVE",
"640 544 OFFCURVE",
"587 368 CURVE SMOOTH",
"548 240 OFFCURVE",
"475 188 OFFCURVE",
"331 188 CURVE SMOOTH",
"191 188 OFFCURVE",
"151 235 OFFCURVE",
"188 360 CURVE SMOOTH",
"244 541 OFFCURVE",
"358 657 OFFCURVE",
"479 657 CURVE SMOOTH"
);
}
);
width = 928;
}
);
note = uni1ED2;
unicode = 1ED2;
},
{
glyphname = Ocircumflexhookabove;
lastChange = "2019-08-30 20:47:54 +0000";
layers = (
{
layerId = "4FCB07EB-01E7-4D87-AA20-FCB2BF85BBFF";
paths = (
{
closed = 1;
nodes = (
"679 1095 LINE",
"698 1103 OFFCURVE",
"714 1107 OFFCURVE",
"729 1107 CURVE SMOOTH",
"745 1107 OFFCURVE",
"755 1103 OFFCURVE",
"762 1097 CURVE SMOOTH",
"770 1091 OFFCURVE",
"772 1081 OFFCURVE",
"769 1071 CURVE SMOOTH",
"767 1061 OFFCURVE",
"756 1050 OFFCURVE",
"740 1040 CURVE SMOOTH",
"728 1033 LINE SMOOTH",
"722 1029 OFFCURVE",
"719 1026 OFFCURVE",
"718 1025 CURVE",
"716 1022 OFFCURVE",
"714 1018 OFFCURVE",
"713 1013 CURVE",
"687 1013 LINE",
"688 1016 LINE SMOOTH",
"689 1022 OFFCURVE",
"693 1028 OFFCURVE",
"696 1032 CURVE",
"700 1037 OFFCURVE",
"705 1041 OFFCURVE",
"715 1047 CURVE SMOOTH",
"728 1056 LINE",
"736 1061 OFFCURVE",
"741 1067 OFFCURVE",
"743 1073 CURVE SMOOTH",
"744 1079 OFFCURVE",
"739 1087 OFFCURVE",
"718 1087 CURVE SMOOTH",
"704 1087 OFFCURVE",
"690 1082 OFFCURVE",
"673 1074 CURVE"
);
},
{
closed = 1;
nodes = (
"567 1052 LINE",
"507 988 LINE",
"346 857 LINE",
"397 857 LINE",
"557 956 LINE",
"660 857 LINE",
"709 857 LINE",
"627 988 LINE",
"611 1052 LINE"
);
},
{
closed = 1;
nodes = (
"312 742 OFFCURVE",
"146 594 OFFCURVE",
"78 364 CURVE SMOOTH",
"-14 54 OFFCURVE",
"62 -12 OFFCURVE",
"275 -14 CURVE SMOOTH",
"506 -16 OFFCURVE",
"597 54 OFFCURVE",
"696 364 CURVE SMOOTH",
"769 594 OFFCURVE",
"688 742 OFFCURVE",
"500 742 CURVE SMOOTH"
);
},
{
closed = 1;
nodes = (
"610 672 OFFCURVE",
"656 548 OFFCURVE",
"601 364 CURVE SMOOTH",
"556 213 OFFCURVE",
"462 173 OFFCURVE",
"331 173 CURVE SMOOTH",
"200 173 OFFCURVE",
"128 213 OFFCURVE",
"173 364 CURVE SMOOTH",
"228 548 OFFCURVE",
"348 672 OFFCURVE",
"479 672 CURVE SMOOTH"
);
}
);
width = 810;
},
{
layerId = "FBE4A9D6-0C93-4AEC-8266-BAD92744962A";
paths = (
{
closed = 1;
nodes = (
"691 1084 LINE",
"706 1090 OFFCURVE",
"718 1092 OFFCURVE",
"729 1092 CURVE SMOOTH",
"740 1092 OFFCURVE",
"747 1090 OFFCURVE",
"753 1085 CURVE",
"756 1083 OFFCURVE",
"756 1079 OFFCURVE",
"753 1070 CURVE",
"750 1066 OFFCURVE",
"743 1059 OFFCURVE",
"732 1053 CURVE SMOOTH",
"720 1046 LINE",
"714 1042 OFFCURVE",
"710 1038 OFFCURVE",
"706 1035 CURVE",
"705 1032 OFFCURVE",
"704 1030 OFFCURVE",
"702 1028 CURVE",
"708 1028 LINE",
"703 1013 LINE",
"703 1014 OFFCURVE",
"704 1018 OFFCURVE",
"708 1023 CURVE",
"710 1026 OFFCURVE",
"714 1029 OFFCURVE",
"723 1034 CURVE",
"736 1043 LINE SMOOTH",
"750 1052 OFFCURVE",
"761 1068 OFFCURVE",
"758 1080 CURVE SMOOTH",
"755 1094 OFFCURVE",
"739 1102 OFFCURVE",
"718 1102 CURVE SMOOTH",
"703 1102 OFFCURVE",
"688 1098 OFFCURVE",
"696 1102 CURVE"
);
},
{
closed = 1;
nodes = (
"561 1067 LINE",
"497 999 LINE",
"304 842 LINE",
"401 842 LINE",
"555 937 LINE",
"654 842 LINE",
"736 842 LINE",
"641 994 LINE",
"623 1067 LINE"
);
},
{
closed = 1;
nodes = (
"305 757 OFFCURVE",
"133 604 OFFCURVE",
"64 368 CURVE SMOOTH",
"-24 73 OFFCURVE",
"30 -27 OFFCURVE",
"275 -29 CURVE SMOOTH",
"520 -31 OFFCURVE",
"612 52 OFFCURVE",
"710 359 CURVE SMOOTH",
"785 596 OFFCURVE",
"701 757 OFFCURVE",
"500 757 CURVE SMOOTH"
);
},
{
closed = 1;
nodes = (
"597 657 OFFCURVE",
"639 545 OFFCURVE",
"587 368 CURVE SMOOTH",
"548 240 OFFCURVE",
"475 188 OFFCURVE",
"331 188 CURVE SMOOTH",
"190 188 OFFCURVE",
"150 236 OFFCURVE",
"187 360 CURVE SMOOTH",
"241 540 OFFCURVE",
"357 657 OFFCURVE",
"479 657 CURVE SMOOTH"
);
}
);
width = 810;
}
);
note = uni1ED4;
unicode = 1ED4;
},
{
glyphname = Ocircumflextilde;
lastChange = "2019-08-30 20:47:54 +0000";
layers = (
{
layerId = "4FCB07EB-01E7-4D87-AA20-FCB2BF85BBFF";
paths = (
{
closed = 1;
nodes = (
"522 1092 LINE",
"534 1135 OFFCURVE",
"554 1198 OFFCURVE",
"589 1197 CURVE SMOOTH",
"623 1196 OFFCURVE",
"610 1093 OFFCURVE",
"676 1092 CURVE SMOOTH",
"725 1091 OFFCURVE",
"755 1096 OFFCURVE",
"800 1242 CURVE",
"757 1242 LINE",
"740 1193 OFFCURVE",
"736 1142 OFFCURVE",
"690 1142 CURVE SMOOTH",
"650 1142 OFFCURVE",
"663 1242 OFFCURVE",
"603 1242 CURVE SMOOTH",
"538 1242 OFFCURVE",
"514 1209 OFFCURVE",
"472 1092 CURVE"
);
},
{
closed = 1;
nodes = (
"571 1057 LINE",
"511 993 LINE",
"350 862 LINE",
"401 862 LINE",
"561 961 LINE",
"664 862 LINE",
"713 862 LINE",
"631 993 LINE",
"615 1057 LINE"
);
},
{
closed = 1;
nodes = (
"311 742 OFFCURVE",
"146 594 OFFCURVE",
"78 364 CURVE SMOOTH",
"-14 54 OFFCURVE",
"62 -12 OFFCURVE",
"275 -14 CURVE SMOOTH",
"506 -16 OFFCURVE",
"597 54 OFFCURVE",
"696 364 CURVE SMOOTH",
"769 594 OFFCURVE",
"687 742 OFFCURVE",
"499 742 CURVE SMOOTH"
);
},
{
closed = 1;
nodes = (
"610 672 OFFCURVE",
"657 548 OFFCURVE",
"601 364 CURVE SMOOTH",
"556 213 OFFCURVE",
"462 173 OFFCURVE",
"331 173 CURVE SMOOTH",
"200 173 OFFCURVE",
"128 213 OFFCURVE",
"173 364 CURVE SMOOTH",
"229 548 OFFCURVE",
"348 672 OFFCURVE",
"479 672 CURVE SMOOTH"
);
}
);
width = 840;
},
{
layerId = "FBE4A9D6-0C93-4AEC-8266-BAD92744962A";
paths = (
{
closed = 1;
nodes = (
"533 1077 LINE",
"552 1149 OFFCURVE",
"571 1183 OFFCURVE",
"589 1182 CURVE",
"598 1182 OFFCURVE",
"605 1078 OFFCURVE",
"676 1077 CURVE SMOOTH",
"751 1075 OFFCURVE",
"777 1112 OFFCURVE",
"820 1257 CURVE",
"746 1257 LINE",
"725 1201 OFFCURVE",
"725 1157 OFFCURVE",
"690 1157 CURVE SMOOTH",
"672 1157 OFFCURVE",
"674 1257 OFFCURVE",
"603 1257 CURVE SMOOTH",
"529 1257 OFFCURVE",
"501 1220 OFFCURVE",
"451 1077 CURVE"
);
},
{
closed = 1;
nodes = (
"565 1072 LINE",
"501 1004 LINE",
"308 847 LINE",
"405 847 LINE",
"559 942 LINE",
"658 847 LINE",
"740 847 LINE",
"645 999 LINE",
"627 1072 LINE"
);
},
{
closed = 1;
nodes = (
"304 757 OFFCURVE",
"133 604 OFFCURVE",
"64 368 CURVE SMOOTH",
"-24 73 OFFCURVE",
"30 -27 OFFCURVE",
"275 -29 CURVE SMOOTH",
"520 -31 OFFCURVE",
"612 52 OFFCURVE",
"710 359 CURVE SMOOTH",
"785 596 OFFCURVE",
"700 757 OFFCURVE",
"499 757 CURVE SMOOTH"
);
},
{
closed = 1;
nodes = (
"598 657 OFFCURVE",
"640 544 OFFCURVE",
"587 368 CURVE SMOOTH",
"548 240 OFFCURVE",
"475 188 OFFCURVE",
"331 188 CURVE SMOOTH",
"190 188 OFFCURVE",
"150 236 OFFCURVE",
"187 360 CURVE SMOOTH",
"242 540 OFFCURVE",
"357 657 OFFCURVE",
"479 657 CURVE SMOOTH"
);
}
);
width = 840;
}
);
note = uni1ED6;
unicode = 1ED6;
},
{
glyphname = Odieresismacron;
lastChange = "2019-08-30 20:47:54 +0000";
layers = (
{
layerId = "4FCB07EB-01E7-4D87-AA20-FCB2BF85BBFF";
paths = (
{
closed = 1;
nodes = (
"412 1039 LINE",
"363 969 LINE",
"777 986 LINE",
"772 1063 LINE"
);
},
{
closed = 1;
nodes = (
"370 887 LINE",
"339 786 LINE",
"431 786 LINE",
"462 887 LINE"
);
},
{
closed = 1;
nodes = (
"619 887 LINE",
"589 786 LINE",
"681 786 LINE",
"711 887 LINE"
);
},
{
closed = 1;
nodes = (
"313 742 OFFCURVE",
"146 594 OFFCURVE",
"78 364 CURVE SMOOTH",
"-14 54 OFFCURVE",
"63 -12 OFFCURVE",
"276 -14 CURVE SMOOTH",
"507 -16 OFFCURVE",
"597 54 OFFCURVE",
"696 364 CURVE SMOOTH",
"769 594 OFFCURVE",
"689 742 OFFCURVE",
"501 742 CURVE SMOOTH"
);
},
{
closed = 1;
nodes = (
"611 672 OFFCURVE",
"658 548 OFFCURVE",
"602 364 CURVE SMOOTH",
"557 213 OFFCURVE",
"462 173 OFFCURVE",
"331 173 CURVE SMOOTH",
"200 173 OFFCURVE",
"129 213 OFFCURVE",
"174 364 CURVE SMOOTH",
"230 548 OFFCURVE",
"349 672 OFFCURVE",
"480 672 CURVE SMOOTH"
);
}
);
width = 817;
},
{
layerId = "FBE4A9D6-0C93-4AEC-8266-BAD92744962A";
paths = (
{
closed = 1;
nodes = (
"404 1053 LINE",
"333 953 LINE",
"793 972 LINE",
"786 1079 LINE"
);
},
{
closed = 1;
nodes = (
"359 902 LINE",
"319 771 LINE",
"442 771 LINE",
"482 902 LINE"
);
},
{
closed = 1;
nodes = (
"608 902 LINE",
"569 771 LINE",
"692 771 LINE",
"731 902 LINE"
);
},
{
closed = 1;
nodes = (
"305 757 OFFCURVE",
"133 604 OFFCURVE",
"64 368 CURVE SMOOTH",
"-24 74 OFFCURVE",
"30 -27 OFFCURVE",
"276 -29 CURVE SMOOTH",
"520 -31 OFFCURVE",
"612 51 OFFCURVE",
"710 359 CURVE SMOOTH",
"786 597 OFFCURVE",
"702 757 OFFCURVE",
"501 757 CURVE SMOOTH"
);
},
{
closed = 1;
nodes = (
"599 657 OFFCURVE",
"641 544 OFFCURVE",
"588 368 CURVE SMOOTH",
"549 240 OFFCURVE",
"475 188 OFFCURVE",
"331 188 CURVE SMOOTH",
"191 188 OFFCURVE",
"151 235 OFFCURVE",
"188 360 CURVE SMOOTH",
"243 540 OFFCURVE",
"358 657 OFFCURVE",
"480 657 CURVE SMOOTH"
);
}
);
width = 817;
}
);
note = uni022A;
unicode = 022A;
},
{
glyphname = Odotbelow;
lastChange = "2019-08-30 20:47:54 +0000";
layers = (
{
layerId = "4FCB07EB-01E7-4D87-AA20-FCB2BF85BBFF";
paths = (
{
closed = 1;
nodes = (
"313 742 OFFCURVE",
"146 594 OFFCURVE",
"78 364 CURVE SMOOTH",
"-14 54 OFFCURVE",
"63 -12 OFFCURVE",
"276 -14 CURVE SMOOTH",
"507 -16 OFFCURVE",
"598 54 OFFCURVE",
"697 364 CURVE SMOOTH",
"770 594 OFFCURVE",
"689 742 OFFCURVE",
"501 742 CURVE SMOOTH"
);
},
{
closed = 1;
nodes = (
"611 672 OFFCURVE",
"658 548 OFFCURVE",
"602 364 CURVE SMOOTH",
"557 213 OFFCURVE",
"462 173 OFFCURVE",
"331 173 CURVE SMOOTH",
"200 173 OFFCURVE",
"129 213 OFFCURVE",
"174 364 CURVE SMOOTH",
"230 548 OFFCURVE",
"349 672 OFFCURVE",
"480 672 CURVE SMOOTH"
);
},
{
closed = 1;
nodes = (
"199 -113 LINE",
"170 -214 LINE",
"263 -214 LINE",
"292 -113 LINE"
);
}
);
width = 764;
},
{
layerId = "FBE4A9D6-0C93-4AEC-8266-BAD92744962A";
paths = (
{
closed = 1;
nodes = (
"305 757 OFFCURVE",
"133 604 OFFCURVE",
"64 368 CURVE SMOOTH",
"-24 74 OFFCURVE",
"30 -27 OFFCURVE",
"276 -29 CURVE SMOOTH",
"521 -31 OFFCURVE",
"613 52 OFFCURVE",
"711 359 CURVE SMOOTH",
"786 596 OFFCURVE",
"702 757 OFFCURVE",
"501 757 CURVE SMOOTH"
);
},
{
closed = 1;
nodes = (
"599 657 OFFCURVE",
"641 544 OFFCURVE",
"588 368 CURVE SMOOTH",
"549 240 OFFCURVE",
"475 188 OFFCURVE",
"331 188 CURVE SMOOTH",
"191 188 OFFCURVE",
"151 235 OFFCURVE",
"188 360 CURVE SMOOTH",
"243 540 OFFCURVE",
"358 657 OFFCURVE",
"480 657 CURVE SMOOTH"
);
},
{
closed = 1;
nodes = (
"188 -98 LINE",
"150 -229 LINE",
"274 -229 LINE",
"312 -98 LINE"
);
}
);
width = 764;
}
);
note = uni1ECC;
unicode = 1ECC;
},
{
glyphname = Ohookabove;
lastChange = "2019-08-30 20:47:54 +0000";
layers = (
{
layerId = "4FCB07EB-01E7-4D87-AA20-FCB2BF85BBFF";
paths = (
{
closed = 1;
nodes = (
"495 893 LINE",
"514 901 OFFCURVE",
"531 905 OFFCURVE",
"546 905 CURVE SMOOTH",
"562 905 OFFCURVE",
"572 901 OFFCURVE",
"580 895 CURVE SMOOTH",
"587 889 OFFCURVE",
"589 879 OFFCURVE",
"587 869 CURVE SMOOTH",
"584 859 OFFCURVE",
"574 848 OFFCURVE",
"557 838 CURVE SMOOTH",
"546 831 LINE SMOOTH",
"539 827 OFFCURVE",
"536 824 OFFCURVE",
"535 823 CURVE",
"533 820 OFFCURVE",
"530 816 OFFCURVE",
"529 811 CURVE",
"504 811 LINE",
"505 814 LINE SMOOTH",
"506 820 OFFCURVE",
"509 826 OFFCURVE",
"512 830 CURVE",
"516 835 OFFCURVE",
"523 839 OFFCURVE",
"532 845 CURVE",
"544 854 LINE",
"552 859 OFFCURVE",
"559 865 OFFCURVE",
"560 871 CURVE SMOOTH",
"561 877 OFFCURVE",
"555 885 OFFCURVE",
"534 885 CURVE SMOOTH",
"520 885 OFFCURVE",
"506 880 OFFCURVE",
"489 872 CURVE"
);
},
{
closed = 1;
nodes = (
"313 742 OFFCURVE",
"146 594 OFFCURVE",
"78 364 CURVE SMOOTH",
"-14 54 OFFCURVE",
"63 -12 OFFCURVE",
"276 -14 CURVE SMOOTH",
"507 -16 OFFCURVE",
"598 54 OFFCURVE",
"697 364 CURVE SMOOTH",
"770 594 OFFCURVE",
"689 742 OFFCURVE",
"501 742 CURVE SMOOTH"
);
},
{
closed = 1;
nodes = (
"611 672 OFFCURVE",
"658 548 OFFCURVE",
"602 364 CURVE SMOOTH",
"557 213 OFFCURVE",
"463 173 OFFCURVE",
"332 173 CURVE SMOOTH",
"201 173 OFFCURVE",
"129 213 OFFCURVE",
"174 364 CURVE SMOOTH",
"230 548 OFFCURVE",
"349 672 OFFCURVE",
"480 672 CURVE SMOOTH"
);
}
);
width = 764;
},
{
layerId = "FBE4A9D6-0C93-4AEC-8266-BAD92744962A";
paths = (
{
closed = 1;
nodes = (
"507 882 LINE",
"522 887 OFFCURVE",
"535 890 OFFCURVE",
"546 890 CURVE SMOOTH",
"557 890 OFFCURVE",
"564 888 OFFCURVE",
"571 883 CURVE",
"572 882 OFFCURVE",
"573 878 OFFCURVE",
"572 873 CURVE",
"570 866 OFFCURVE",
"562 859 OFFCURVE",
"549 851 CURVE SMOOTH",
"538 844 LINE SMOOTH",
"532 840 OFFCURVE",
"527 837 OFFCURVE",
"523 833 CURVE",
"522 831 OFFCURVE",
"521 828 OFFCURVE",
"519 826 CURVE",
"525 826 LINE",
"520 811 LINE",
"520 813 OFFCURVE",
"522 818 OFFCURVE",
"524 821 CURVE",
"526 823 OFFCURVE",
"531 827 OFFCURVE",
"541 833 CURVE",
"553 842 LINE",
"564 849 OFFCURVE",
"573 858 OFFCURVE",
"575 869 CURVE SMOOTH",
"578 888 OFFCURVE",
"559 900 OFFCURVE",
"534 900 CURVE SMOOTH",
"519 900 OFFCURVE",
"504 896 OFFCURVE",
"512 900 CURVE"
);
},
{
closed = 1;
nodes = (
"305 757 OFFCURVE",
"133 604 OFFCURVE",
"64 368 CURVE SMOOTH",
"-24 74 OFFCURVE",
"30 -27 OFFCURVE",
"276 -29 CURVE SMOOTH",
"521 -31 OFFCURVE",
"613 52 OFFCURVE",
"711 359 CURVE SMOOTH",
"786 596 OFFCURVE",
"702 757 OFFCURVE",
"501 757 CURVE SMOOTH"
);
},
{
closed = 1;
nodes = (
"599 657 OFFCURVE",
"641 544 OFFCURVE",
"588 368 CURVE SMOOTH",
"549 240 OFFCURVE",
"476 188 OFFCURVE",
"332 188 CURVE SMOOTH",
"191 188 OFFCURVE",
"151 236 OFFCURVE",
"188 360 CURVE SMOOTH",
"243 540 OFFCURVE",
"358 657 OFFCURVE",
"480 657 CURVE SMOOTH"
);
}
);
width = 764;
}
);
note = uni1ECE;
unicode = 1ECE;
},
{
glyphname = Ohorn;
lastChange = "2019-08-30 20:47:54 +0000";
layers = (
{
layerId = "4FCB07EB-01E7-4D87-AA20-FCB2BF85BBFF";
paths = (
{
closed = 1;
nodes = (
"734 662 OFFCURVE",
"758 709 OFFCURVE",
"769 748 CURVE",
"771 757 OFFCURVE",
"772 768 OFFCURVE",
"773 780 CURVE",
"731 786 LINE",
"732 776 OFFCURVE",
"732 767 OFFCURVE",
"729 756 CURVE SMOOTH",
"724 739 OFFCURVE",
"712 693 OFFCURVE",
"686 673 CURVE SMOOTH",
"684 671 OFFCURVE",
"680 669 OFFCURVE",
"678 668 CURVE",
"640 716 OFFCURVE",
"580 742 OFFCURVE",
"500 742 CURVE SMOOTH",
"312 742 OFFCURVE",
"146 594 OFFCURVE",
"78 364 CURVE SMOOTH",
"-14 54 OFFCURVE",
"63 -12 OFFCURVE",
"276 -14 CURVE SMOOTH",
"507 -16 OFFCURVE",
"598 54 OFFCURVE",
"697 364 CURVE SMOOTH",
"732 477 OFFCURVE",
"731 569 OFFCURVE",
"699 635 CURVE"
);
},
{
closed = 1;
nodes = (
"200 173 OFFCURVE",
"128 213 OFFCURVE",
"173 364 CURVE SMOOTH",
"229 548 OFFCURVE",
"349 672 OFFCURVE",
"480 672 CURVE SMOOTH",
"611 672 OFFCURVE",
"657 548 OFFCURVE",
"601 364 CURVE SMOOTH",
"556 213 OFFCURVE",
"462 173 OFFCURVE",
"331 173 CURVE SMOOTH"
);
}
);
width = 813;
},
{
layerId = "FBE4A9D6-0C93-4AEC-8266-BAD92744962A";
paths = (
{
closed = 1;
nodes = (
"746 657 OFFCURVE",
"771 699 OFFCURVE",
"784 744 CURVE",
"787 759 OFFCURVE",
"788 776 OFFCURVE",
"789 793 CURVE",
"713 804 LINE",
"717 780 OFFCURVE",
"718 771 OFFCURVE",
"715 760 CURVE",
"709 742 OFFCURVE",
"698 698 OFFCURVE",
"674 683 CURVE",
"674 683 OFFCURVE",
"674 683 OFFCURVE",
"682 687 CURVE",
"640 733 OFFCURVE",
"578 757 OFFCURVE",
"500 757 CURVE SMOOTH",
"305 757 OFFCURVE",
"133 604 OFFCURVE",
"64 368 CURVE SMOOTH",
"-24 74 OFFCURVE",
"30 -27 OFFCURVE",
"276 -29 CURVE SMOOTH",
"521 -31 OFFCURVE",
"613 52 OFFCURVE",
"711 359 CURVE SMOOTH",
"745 467 OFFCURVE",
"747 561 OFFCURVE",
"717 631 CURVE"
);
},
{
closed = 1;
nodes = (
"190 188 OFFCURVE",
"150 236 OFFCURVE",
"187 360 CURVE SMOOTH",
"242 540 OFFCURVE",
"358 657 OFFCURVE",
"480 657 CURVE SMOOTH",
"598 657 OFFCURVE",
"640 545 OFFCURVE",
"587 368 CURVE SMOOTH",
"548 240 OFFCURVE",
"475 188 OFFCURVE",
"331 188 CURVE SMOOTH"
);
}
);
width = 813;
}
);
note = Ohorn;
unicode = 01A0;
},
{
glyphname = Ohornacute;
lastChange = "2019-08-30 20:47:54 +0000";
layers = (
{
layerId = "4FCB07EB-01E7-4D87-AA20-FCB2BF85BBFF";
paths = (
{
closed = 1;
nodes = (
"646 1028 LINE",
"599 1028 LINE",
"484 874 LINE",
"554 874 LINE"
);
},
{
closed = 1;
nodes = (
"735 662 OFFCURVE",
"758 709 OFFCURVE",
"769 748 CURVE",
"771 757 OFFCURVE",
"773 768 OFFCURVE",
"774 780 CURVE",
"731 786 LINE",
"732 776 OFFCURVE",
"732 767 OFFCURVE",
"729 756 CURVE SMOOTH",
"724 739 OFFCURVE",
"712 693 OFFCURVE",
"686 673 CURVE SMOOTH",
"684 671 OFFCURVE",
"680 669 OFFCURVE",
"678 668 CURVE",
"640 716 OFFCURVE",
"581 742 OFFCURVE",
"501 742 CURVE SMOOTH",
"313 742 OFFCURVE",
"146 594 OFFCURVE",
"78 364 CURVE SMOOTH",
"-14 54 OFFCURVE",
"63 -12 OFFCURVE",
"276 -14 CURVE SMOOTH",
"507 -16 OFFCURVE",
"598 54 OFFCURVE",
"697 364 CURVE SMOOTH",
"732 477 OFFCURVE",
"732 569 OFFCURVE",
"700 635 CURVE"
);
},
{
closed = 1;
nodes = (
"201 173 OFFCURVE",
"129 213 OFFCURVE",
"174 364 CURVE SMOOTH",
"230 548 OFFCURVE",
"349 672 OFFCURVE",
"480 672 CURVE SMOOTH",
"611 672 OFFCURVE",
"658 548 OFFCURVE",
"602 364 CURVE SMOOTH",
"557 213 OFFCURVE",
"463 173 OFFCURVE",
"332 173 CURVE SMOOTH"
);
}
);
width = 814;
},
{
layerId = "FBE4A9D6-0C93-4AEC-8266-BAD92744962A";
paths = (
{
closed = 1;
nodes = (
"672 1043 LINE",
"591 1043 LINE",
"454 859 LINE",
"563 859 LINE"
);
},
{
closed = 1;
nodes = (
"747 657 OFFCURVE",
"771 698 OFFCURVE",
"784 744 CURVE",
"788 763 OFFCURVE",
"789 778 OFFCURVE",
"790 793 CURVE",
"713 804 LINE",
"717 780 OFFCURVE",
"718 771 OFFCURVE",
"715 760 CURVE",
"709 742 OFFCURVE",
"698 698 OFFCURVE",
"674 683 CURVE",
"674 683 OFFCURVE",
"674 683 OFFCURVE",
"682 687 CURVE",
"640 733 OFFCURVE",
"578 757 OFFCURVE",
"501 757 CURVE SMOOTH",
"305 757 OFFCURVE",
"133 604 OFFCURVE",
"64 368 CURVE SMOOTH",
"-24 74 OFFCURVE",
"30 -27 OFFCURVE",
"276 -29 CURVE SMOOTH",
"521 -31 OFFCURVE",
"613 52 OFFCURVE",
"711 359 CURVE SMOOTH",
"745 468 OFFCURVE",
"747 561 OFFCURVE",
"718 631 CURVE"
);
},
{
closed = 1;
nodes = (
"191 188 OFFCURVE",
"151 236 OFFCURVE",
"188 360 CURVE SMOOTH",
"243 540 OFFCURVE",
"358 657 OFFCURVE",
"480 657 CURVE SMOOTH",
"599 657 OFFCURVE",
"641 544 OFFCURVE",
"588 368 CURVE SMOOTH",
"549 240 OFFCURVE",
"476 188 OFFCURVE",
"332 188 CURVE SMOOTH"
);
}
);
width = 814;
}
);
note = uni1EDA;
unicode = 1EDA;
},
{
glyphname = Ohorndotbelow;
lastChange = "2019-08-30 20:47:54 +0000";
layers = (
{
layerId = "4FCB07EB-01E7-4D87-AA20-FCB2BF85BBFF";
paths = (
{
closed = 1;
nodes = (
"734 662 OFFCURVE",
"758 709 OFFCURVE",
"769 748 CURVE",
"771 757 OFFCURVE",
"773 768 OFFCURVE",
"774 780 CURVE",
"731 786 LINE",
"732 776 OFFCURVE",
"732 767 OFFCURVE",
"729 756 CURVE SMOOTH",
"724 739 OFFCURVE",
"711 693 OFFCURVE",
"685 673 CURVE SMOOTH",
"683 671 OFFCURVE",
"679 669 OFFCURVE",
"677 668 CURVE",
"639 716 OFFCURVE",
"580 742 OFFCURVE",
"500 742 CURVE SMOOTH",
"312 742 OFFCURVE",
"146 594 OFFCURVE",
"78 364 CURVE SMOOTH",
"-14 54 OFFCURVE",
"63 -12 OFFCURVE",
"276 -14 CURVE SMOOTH",
"507 -16 OFFCURVE",
"597 54 OFFCURVE",
"696 364 CURVE SMOOTH",
"731 477 OFFCURVE",
"731 569 OFFCURVE",
"699 635 CURVE"
);
},
{
closed = 1;
nodes = (
"200 173 OFFCURVE",
"129 213 OFFCURVE",
"174 364 CURVE SMOOTH",
"230 548 OFFCURVE",
"348 672 OFFCURVE",
"479 672 CURVE SMOOTH",
"610 672 OFFCURVE",
"657 548 OFFCURVE",
"601 364 CURVE SMOOTH",
"556 213 OFFCURVE",
"462 173 OFFCURVE",
"331 173 CURVE SMOOTH"
);
},
{
closed = 1;
nodes = (
"169 -214 LINE",
"261 -214 LINE",
"292 -113 LINE",
"199 -113 LINE"
);
}
);
width = 814;
},
{
layerId = "FBE4A9D6-0C93-4AEC-8266-BAD92744962A";
paths = (
{
closed = 1;
nodes = (
"746 657 OFFCURVE",
"771 699 OFFCURVE",
"784 744 CURVE",
"788 763 OFFCURVE",
"789 778 OFFCURVE",
"790 793 CURVE",
"713 804 LINE",
"717 780 OFFCURVE",
"718 771 OFFCURVE",
"715 760 CURVE",
"709 742 OFFCURVE",
"697 698 OFFCURVE",
"673 683 CURVE",
"673 683 OFFCURVE",
"673 683 OFFCURVE",
"681 687 CURVE",
"639 733 OFFCURVE",
"577 757 OFFCURVE",
"500 757 CURVE SMOOTH",
"305 757 OFFCURVE",
"133 604 OFFCURVE",
"64 368 CURVE SMOOTH",
"-24 74 OFFCURVE",
"30 -27 OFFCURVE",
"276 -29 CURVE SMOOTH",
"520 -31 OFFCURVE",
"612 51 OFFCURVE",
"710 359 CURVE SMOOTH",
"744 468 OFFCURVE",
"746 561 OFFCURVE",
"717 631 CURVE"
);
},
{
closed = 1;
nodes = (
"191 188 OFFCURVE",
"151 235 OFFCURVE",
"188 360 CURVE SMOOTH",
"244 541 OFFCURVE",
"358 657 OFFCURVE",
"479 657 CURVE SMOOTH",
"598 657 OFFCURVE",
"640 544 OFFCURVE",
"587 368 CURVE SMOOTH",
"548 240 OFFCURVE",
"475 188 OFFCURVE",
"331 188 CURVE SMOOTH"
);
},
{
closed = 1;
nodes = (
"149 -229 LINE",
"272 -229 LINE",
"312 -98 LINE",
"188 -98 LINE"
);
}
);
width = 814;
}
);
note = uni1EE2;
unicode = 1EE2;
},
{
glyphname = Ohorngrave;
lastChange = "2019-08-30 20:47:54 +0000";
layers = (
{
layerId = "4FCB07EB-01E7-4D87-AA20-FCB2BF85BBFF";
paths = (
{
closed = 1;
nodes = (
"613 815 LINE",
"494 942 LINE",
"422 942 LINE",
"495 830 LINE"
);
},
{
closed = 1;
nodes = (
"733 662 OFFCURVE",
"757 709 OFFCURVE",
"768 748 CURVE",
"770 757 OFFCURVE",
"772 768 OFFCURVE",
"773 780 CURVE",
"731 786 LINE",
"732 776 OFFCURVE",
"732 767 OFFCURVE",
"729 756 CURVE SMOOTH",
"724 739 OFFCURVE",
"711 693 OFFCURVE",
"685 673 CURVE SMOOTH",
"683 671 OFFCURVE",
"680 669 OFFCURVE",
"678 668 CURVE",
"640 716 OFFCURVE",
"580 742 OFFCURVE",
"500 742 CURVE SMOOTH",
"312 742 OFFCURVE",
"146 594 OFFCURVE",
"78 364 CURVE SMOOTH",
"-14 54 OFFCURVE",
"62 -12 OFFCURVE",
"275 -14 CURVE SMOOTH",
"506 -16 OFFCURVE",
"597 54 OFFCURVE",
"696 364 CURVE SMOOTH",
"731 477 OFFCURVE",
"730 569 OFFCURVE",
"698 635 CURVE"
);
},
{
closed = 1;
nodes = (
"199 173 OFFCURVE",
"128 213 OFFCURVE",
"173 364 CURVE SMOOTH",
"229 548 OFFCURVE",
"348 672 OFFCURVE",
"479 672 CURVE SMOOTH",
"610 672 OFFCURVE",
"657 548 OFFCURVE",
"601 364 CURVE SMOOTH",
"556 213 OFFCURVE",
"461 173 OFFCURVE",
"330 173 CURVE SMOOTH"
);
}
);
width = 813;
},
{
layerId = "FBE4A9D6-0C93-4AEC-8266-BAD92744962A";
paths = (
{
closed = 1;
nodes = (
"652 795 LINE",
"501 957 LINE",
"394 957 LINE",
"486 816 LINE"
);
},
{
closed = 1;
nodes = (
"745 657 OFFCURVE",
"770 699 OFFCURVE",
"783 744 CURVE",
"787 763 OFFCURVE",
"788 778 OFFCURVE",
"789 793 CURVE",
"713 804 LINE",
"717 780 OFFCURVE",
"718 771 OFFCURVE",
"715 760 CURVE SMOOTH",
"710 743 OFFCURVE",
"698 701 OFFCURVE",
"675 684 CURVE",
"675 684 OFFCURVE",
"675 684 OFFCURVE",
"682 687 CURVE",
"640 733 OFFCURVE",
"578 757 OFFCURVE",
"500 757 CURVE SMOOTH",
"305 757 OFFCURVE",
"133 604 OFFCURVE",
"64 368 CURVE SMOOTH",
"-24 73 OFFCURVE",
"30 -27 OFFCURVE",
"275 -29 CURVE SMOOTH",
"520 -31 OFFCURVE",
"612 52 OFFCURVE",
"710 359 CURVE SMOOTH",
"744 467 OFFCURVE",
"746 561 OFFCURVE",
"716 631 CURVE"
);
},
{
closed = 1;
nodes = (
"190 188 OFFCURVE",
"150 235 OFFCURVE",
"187 360 CURVE SMOOTH",
"242 540 OFFCURVE",
"357 657 OFFCURVE",
"479 657 CURVE SMOOTH",
"598 657 OFFCURVE",
"640 544 OFFCURVE",
"587 368 CURVE SMOOTH",
"548 240 OFFCURVE",
"474 188 OFFCURVE",
"330 188 CURVE SMOOTH"
);
}
);
width = 813;
}
);
note = uni1EDC;
unicode = 1EDC;
},
{
glyphname = Ohornhookabove;
lastChange = "2019-08-30 20:47:54 +0000";
layers = (
{
layerId = "4FCB07EB-01E7-4D87-AA20-FCB2BF85BBFF";
paths = (
{
closed = 1;
nodes = (
"559 865 OFFCURVE",
"552 859 OFFCURVE",
"544 854 CURVE",
"532 845 LINE",
"523 839 OFFCURVE",
"516 835 OFFCURVE",
"512 830 CURVE",
"509 826 OFFCURVE",
"506 820 OFFCURVE",
"505 814 CURVE SMOOTH",
"504 811 LINE",
"529 811 LINE",
"530 816 OFFCURVE",
"533 820 OFFCURVE",
"535 823 CURVE",
"536 824 OFFCURVE",
"539 827 OFFCURVE",
"546 831 CURVE SMOOTH",
"557 838 LINE SMOOTH",
"574 848 OFFCURVE",
"584 859 OFFCURVE",
"587 869 CURVE SMOOTH",
"589 879 OFFCURVE",
"587 889 OFFCURVE",
"580 895 CURVE SMOOTH",
"572 901 OFFCURVE",
"562 905 OFFCURVE",
"546 905 CURVE SMOOTH",
"531 905 OFFCURVE",
"514 901 OFFCURVE",
"495 893 CURVE",
"489 872 LINE",
"506 880 OFFCURVE",
"520 885 OFFCURVE",
"534 885 CURVE SMOOTH",
"555 885 OFFCURVE",
"561 877 OFFCURVE",
"560 871 CURVE SMOOTH"
);
},
{
closed = 1;
nodes = (
"735 662 OFFCURVE",
"758 709 OFFCURVE",
"769 748 CURVE",
"771 757 OFFCURVE",
"773 768 OFFCURVE",
"774 780 CURVE",
"731 786 LINE",
"732 776 OFFCURVE",
"733 767 OFFCURVE",
"730 756 CURVE SMOOTH",
"725 739 OFFCURVE",
"712 693 OFFCURVE",
"686 673 CURVE SMOOTH",
"684 671 OFFCURVE",
"680 669 OFFCURVE",
"678 668 CURVE",
"640 716 OFFCURVE",
"581 742 OFFCURVE",
"501 742 CURVE SMOOTH",
"313 742 OFFCURVE",
"146 594 OFFCURVE",
"78 364 CURVE SMOOTH",
"-14 54 OFFCURVE",
"63 -12 OFFCURVE",
"276 -14 CURVE SMOOTH",
"507 -16 OFFCURVE",
"598 54 OFFCURVE",
"697 364 CURVE SMOOTH",
"732 477 OFFCURVE",
"732 569 OFFCURVE",
"700 635 CURVE"
);
},
{
closed = 1;
nodes = (
"201 173 OFFCURVE",
"129 213 OFFCURVE",
"174 364 CURVE SMOOTH",
"230 548 OFFCURVE",
"349 672 OFFCURVE",
"480 672 CURVE SMOOTH",
"611 672 OFFCURVE",
"658 548 OFFCURVE",
"602 364 CURVE SMOOTH",
"557 213 OFFCURVE",
"463 173 OFFCURVE",
"332 173 CURVE SMOOTH"
);
}
);
width = 814;
},
{
layerId = "FBE4A9D6-0C93-4AEC-8266-BAD92744962A";
paths = (
{
closed = 1;
nodes = (
"545 874 OFFCURVE",
"539 869 OFFCURVE",
"536 866 CURVE",
"523 857 LINE SMOOTH",
"510 848 OFFCURVE",
"504 844 OFFCURVE",
"500 839 CURVE SMOOTH",
"495 833 OFFCURVE",
"492 825 OFFCURVE",
"490 818 CURVE SMOOTH",
"483 796 LINE",
"541 796 LINE",
"544 808 OFFCURVE",
"545 811 OFFCURVE",
"547 813 CURVE",
"548 815 OFFCURVE",
"550 816 OFFCURVE",
"554 818 CURVE",
"565 825 LINE",
"589 839 OFFCURVE",
"604 859 OFFCURVE",
"603 876 CURVE",
"603 888 OFFCURVE",
"598 899 OFFCURVE",
"589 907 CURVE",
"577 916 OFFCURVE",
"563 920 OFFCURVE",
"546 920 CURVE SMOOTH",
"527 920 OFFCURVE",
"505 914 OFFCURVE",
"483 904 CURVE",
"466 844 LINE",
"514 867 OFFCURVE",
"524 870 OFFCURVE",
"534 870 CURVE SMOOTH",
"548 870 OFFCURVE",
"545 873 OFFCURVE",
"545 873 CURVE"
);
},
{
closed = 1;
nodes = (
"747 657 OFFCURVE",
"771 698 OFFCURVE",
"784 744 CURVE",
"788 763 OFFCURVE",
"789 778 OFFCURVE",
"790 793 CURVE",
"715 803 LINE",
"716 780 OFFCURVE",
"719 772 OFFCURVE",
"716 760 CURVE",
"710 742 OFFCURVE",
"698 698 OFFCURVE",
"674 683 CURVE",
"674 683 OFFCURVE",
"674 683 OFFCURVE",
"682 687 CURVE",
"640 733 OFFCURVE",
"578 757 OFFCURVE",
"501 757 CURVE SMOOTH",
"305 757 OFFCURVE",
"133 604 OFFCURVE",
"64 368 CURVE SMOOTH",
"-24 74 OFFCURVE",
"30 -27 OFFCURVE",
"276 -29 CURVE SMOOTH",
"521 -31 OFFCURVE",
"613 52 OFFCURVE",
"711 359 CURVE SMOOTH",
"745 468 OFFCURVE",
"747 561 OFFCURVE",
"718 631 CURVE"
);
},
{
closed = 1;
nodes = (
"191 188 OFFCURVE",
"151 236 OFFCURVE",
"188 360 CURVE SMOOTH",
"243 540 OFFCURVE",
"358 657 OFFCURVE",
"480 657 CURVE SMOOTH",
"599 657 OFFCURVE",
"641 544 OFFCURVE",
"588 368 CURVE SMOOTH",
"549 240 OFFCURVE",
"476 188 OFFCURVE",
"332 188 CURVE SMOOTH"
);
}
);
width = 814;
}
);
note = uni1EDE;
unicode = 1EDE;
},
{
glyphname = Ohorntilde;
lastChange = "2019-08-30 20:47:54 +0000";
layers = (
{
layerId = "4FCB07EB-01E7-4D87-AA20-FCB2BF85BBFF";
paths = (
{
closed = 1;
nodes = (
"530 931 OFFCURVE",
"516 828 OFFCURVE",
"582 827 CURVE SMOOTH",
"631 826 OFFCURVE",
"660 831 OFFCURVE",
"705 977 CURVE",
"664 977 LINE",
"647 928 OFFCURVE",
"641 877 OFFCURVE",
"595 877 CURVE SMOOTH",
"555 877 OFFCURVE",
"570 977 OFFCURVE",
"510 977 CURVE SMOOTH",
"445 977 OFFCURVE",
"421 944 OFFCURVE",
"379 827 CURVE",
"429 827 LINE",
"441 870 OFFCURVE",
"460 933 OFFCURVE",
"496 932 CURVE SMOOTH"
);
},
{
closed = 1;
nodes = (
"734 662 OFFCURVE",
"759 709 OFFCURVE",
"770 748 CURVE",
"772 757 OFFCURVE",
"773 768 OFFCURVE",
"774 780 CURVE",
"732 786 LINE",
"733 776 OFFCURVE",
"733 767 OFFCURVE",
"730 756 CURVE SMOOTH",
"725 739 OFFCURVE",
"712 693 OFFCURVE",
"686 673 CURVE SMOOTH",
"684 671 OFFCURVE",
"680 669 OFFCURVE",
"678 668 CURVE",
"640 716 OFFCURVE",
"580 742 OFFCURVE",
"500 742 CURVE SMOOTH",
"312 742 OFFCURVE",
"147 594 OFFCURVE",
"79 364 CURVE SMOOTH",
"-13 54 OFFCURVE",
"62 -12 OFFCURVE",
"275 -14 CURVE SMOOTH",
"506 -16 OFFCURVE",
"598 54 OFFCURVE",
"697 364 CURVE SMOOTH",
"732 477 OFFCURVE",
"731 569 OFFCURVE",
"699 635 CURVE"
);
},
{
closed = 1;
nodes = (
"200 173 OFFCURVE",
"129 213 OFFCURVE",
"174 364 CURVE SMOOTH",
"230 548 OFFCURVE",
"348 672 OFFCURVE",
"479 672 CURVE SMOOTH",
"610 672 OFFCURVE",
"657 548 OFFCURVE",
"601 364 CURVE SMOOTH",
"556 213 OFFCURVE",
"462 173 OFFCURVE",
"331 173 CURVE SMOOTH"
);
}
);
width = 814;
},
{
layerId = "FBE4A9D6-0C93-4AEC-8266-BAD92744962A";
paths = (
{
closed = 1;
nodes = (
"504 917 OFFCURVE",
"512 813 OFFCURVE",
"582 812 CURVE SMOOTH",
"657 810 OFFCURVE",
"682 847 OFFCURVE",
"725 992 CURVE",
"653 992 LINE",
"633 937 OFFCURVE",
"630 892 OFFCURVE",
"595 892 CURVE SMOOTH",
"577 892 OFFCURVE",
"581 992 OFFCURVE",
"510 992 CURVE SMOOTH",
"436 992 OFFCURVE",
"408 955 OFFCURVE",
"358 812 CURVE",
"440 812 LINE",
"460 886 OFFCURVE",
"478 918 OFFCURVE",
"496 917 CURVE"
);
},
{
closed = 1;
nodes = (
"747 657 OFFCURVE",
"772 700 OFFCURVE",
"785 744 CURVE",
"788 759 OFFCURVE",
"789 776 OFFCURVE",
"790 793 CURVE",
"714 804 LINE",
"718 780 OFFCURVE",
"719 771 OFFCURVE",
"716 760 CURVE",
"710 742 OFFCURVE",
"698 698 OFFCURVE",
"674 683 CURVE",
"674 683 OFFCURVE",
"674 683 OFFCURVE",
"682 687 CURVE",
"640 733 OFFCURVE",
"578 757 OFFCURVE",
"500 757 CURVE SMOOTH",
"305 757 OFFCURVE",
"134 604 OFFCURVE",
"65 368 CURVE SMOOTH",
"-23 73 OFFCURVE",
"30 -27 OFFCURVE",
"275 -29 CURVE SMOOTH",
"520 -31 OFFCURVE",
"613 52 OFFCURVE",
"711 359 CURVE SMOOTH",
"745 467 OFFCURVE",
"747 561 OFFCURVE",
"717 631 CURVE"
);
},
{
closed = 1;
nodes = (
"191 188 OFFCURVE",
"151 235 OFFCURVE",
"188 360 CURVE SMOOTH",
"244 541 OFFCURVE",
"358 657 OFFCURVE",
"479 657 CURVE SMOOTH",
"598 657 OFFCURVE",
"640 544 OFFCURVE",
"587 368 CURVE SMOOTH",
"548 240 OFFCURVE",
"475 188 OFFCURVE",
"331 188 CURVE SMOOTH"
);
}
);
width = 814;
}
);
note = uni1EE0;
unicode = 1EE0;
},
{
glyphname = Ohungarumlaut;
lastChange = "2019-08-30 20:47:54 +0000";
layers = (
{
layerId = "4FCB07EB-01E7-4D87-AA20-FCB2BF85BBFF";
paths = (
{
closed = 1;
nodes = (
"470 837 LINE",
"609 949 LINE",
"537 949 LINE",
"343 822 LINE"
);
},
{
closed = 1;
nodes = (
"637 837 LINE",
"778 949 LINE",
"705 949 LINE",
"511 822 LINE"
);
},
{
closed = 1;
nodes = (
"313 742 OFFCURVE",
"146 594 OFFCURVE",
"78 364 CURVE SMOOTH",
"-14 54 OFFCURVE",
"63 -12 OFFCURVE",
"276 -14 CURVE SMOOTH",
"507 -16 OFFCURVE",
"597 54 OFFCURVE",
"696 364 CURVE SMOOTH",
"769 594 OFFCURVE",
"689 742 OFFCURVE",
"501 742 CURVE SMOOTH"
);
},
{
closed = 1;
nodes = (
"611 672 OFFCURVE",
"658 548 OFFCURVE",
"602 364 CURVE SMOOTH",
"557 213 OFFCURVE",
"462 173 OFFCURVE",
"331 173 CURVE SMOOTH",
"200 173 OFFCURVE",
"129 213 OFFCURVE",
"174 364 CURVE SMOOTH",
"230 548 OFFCURVE",
"349 672 OFFCURVE",
"480 672 CURVE SMOOTH"
);
}
);
width = 818;
},
{
layerId = "FBE4A9D6-0C93-4AEC-8266-BAD92744962A";
paths = (
{
closed = 1;
nodes = (
"476 823 LINE",
"652 964 LINE",
"533 964 LINE",
"281 800 LINE"
);
},
{
closed = 1;
nodes = (
"643 823 LINE",
"821 964 LINE",
"701 964 LINE",
"449 800 LINE"
);
},
{
closed = 1;
nodes = (
"305 757 OFFCURVE",
"133 604 OFFCURVE",
"64 368 CURVE SMOOTH",
"-24 74 OFFCURVE",
"30 -27 OFFCURVE",
"276 -29 CURVE SMOOTH",
"520 -31 OFFCURVE",
"612 51 OFFCURVE",
"710 359 CURVE SMOOTH",
"786 597 OFFCURVE",
"702 757 OFFCURVE",
"501 757 CURVE SMOOTH"
);
},
{
closed = 1;
nodes = (
"599 657 OFFCURVE",
"641 544 OFFCURVE",
"588 368 CURVE SMOOTH",
"549 240 OFFCURVE",
"475 188 OFFCURVE",
"331 188 CURVE SMOOTH",
"191 188 OFFCURVE",
"151 235 OFFCURVE",
"188 360 CURVE SMOOTH",
"243 540 OFFCURVE",
"358 657 OFFCURVE",
"480 657 CURVE SMOOTH"
);
}
);
width = 818;
}
);
note = Ohungarumlaut;
unicode = 0150;
},
{
glyphname = Omacron;
lastChange = "2019-08-30 20:47:54 +0000";
layers = (
{
layerId = "4FCB07EB-01E7-4D87-AA20-FCB2BF85BBFF";
paths = (
{
closed = 1;
nodes = (
"383 947 LINE",
"333 877 LINE",
"746 894 LINE",
"743 971 LINE"
);
},
{
closed = 1;
nodes = (
"312 742 OFFCURVE",
"146 594 OFFCURVE",
"78 364 CURVE SMOOTH",
"-14 54 OFFCURVE",
"62 -12 OFFCURVE",
"275 -14 CURVE SMOOTH",
"506 -16 OFFCURVE",
"597 54 OFFCURVE",
"696 364 CURVE SMOOTH",
"769 594 OFFCURVE",
"688 742 OFFCURVE",
"500 742 CURVE SMOOTH"
);
},
{
closed = 1;
nodes = (
"610 672 OFFCURVE",
"657 548 OFFCURVE",
"601 364 CURVE SMOOTH",
"556 213 OFFCURVE",
"462 173 OFFCURVE",
"331 173 CURVE SMOOTH",
"200 173 OFFCURVE",
"129 213 OFFCURVE",
"174 364 CURVE SMOOTH",
"230 548 OFFCURVE",
"348 672 OFFCURVE",
"479 672 CURVE SMOOTH"
);
}
);
width = 786;
},
{
layerId = "FBE4A9D6-0C93-4AEC-8266-BAD92744962A";
paths = (
{
closed = 1;
nodes = (
"375 961 LINE",
"303 861 LINE",
"762 880 LINE",
"757 987 LINE"
);
},
{
closed = 1;
nodes = (
"305 757 OFFCURVE",
"133 604 OFFCURVE",
"64 368 CURVE SMOOTH",
"-24 73 OFFCURVE",
"30 -27 OFFCURVE",
"275 -29 CURVE SMOOTH",
"520 -31 OFFCURVE",
"612 52 OFFCURVE",
"710 359 CURVE SMOOTH",
"785 596 OFFCURVE",
"701 757 OFFCURVE",
"500 757 CURVE SMOOTH"
);
},
{
closed = 1;
nodes = (
"598 657 OFFCURVE",
"640 544 OFFCURVE",
"587 368 CURVE SMOOTH",
"548 240 OFFCURVE",
"475 188 OFFCURVE",
"331 188 CURVE SMOOTH",
"191 188 OFFCURVE",
"151 235 OFFCURVE",
"188 360 CURVE SMOOTH",
"244 541 OFFCURVE",
"358 657 OFFCURVE",
"479 657 CURVE SMOOTH"
);
}
);
width = 786;
}
);
note = Omacron;
unicode = 014C;
},
{
glyphname = Omacronacute;
lastChange = "2019-08-30 20:47:54 +0000";
layers = (
{
layerId = "4FCB07EB-01E7-4D87-AA20-FCB2BF85BBFF";
paths = (
{
closed = 1;
nodes = (
"658 1223 LINE",
"543 1069 LINE",
"613 1069 LINE",
"705 1223 LINE"
);
},
{
closed = 1;
nodes = (
"384 947 LINE",
"333 877 LINE",
"747 894 LINE",
"743 971 LINE"
);
},
{
closed = 1;
nodes = (
"312 742 OFFCURVE",
"147 594 OFFCURVE",
"79 364 CURVE SMOOTH",
"-13 54 OFFCURVE",
"62 -12 OFFCURVE",
"275 -14 CURVE SMOOTH",
"506 -16 OFFCURVE",
"597 54 OFFCURVE",
"696 364 CURVE SMOOTH",
"769 594 OFFCURVE",
"688 742 OFFCURVE",
"500 742 CURVE SMOOTH"
);
},
{
closed = 1;
nodes = (
"610 672 OFFCURVE",
"657 548 OFFCURVE",
"601 364 CURVE SMOOTH",
"556 213 OFFCURVE",
"462 173 OFFCURVE",
"331 173 CURVE SMOOTH",
"200 173 OFFCURVE",
"129 213 OFFCURVE",
"174 364 CURVE SMOOTH",
"230 548 OFFCURVE",
"348 672 OFFCURVE",
"479 672 CURVE SMOOTH"
);
}
);
width = 787;
},
{
layerId = "FBE4A9D6-0C93-4AEC-8266-BAD92744962A";
paths = (
{
closed = 1;
nodes = (
"650 1238 LINE",
"513 1054 LINE",
"622 1054 LINE",
"731 1238 LINE"
);
},
{
closed = 1;
nodes = (
"376 961 LINE",
"303 861 LINE",
"763 880 LINE",
"757 987 LINE"
);
},
{
closed = 1;
nodes = (
"305 757 OFFCURVE",
"134 604 OFFCURVE",
"65 368 CURVE SMOOTH",
"-23 73 OFFCURVE",
"30 -27 OFFCURVE",
"275 -29 CURVE SMOOTH",
"520 -31 OFFCURVE",
"612 52 OFFCURVE",
"710 359 CURVE SMOOTH",
"785 596 OFFCURVE",
"701 757 OFFCURVE",
"500 757 CURVE SMOOTH"
);
},
{
closed = 1;
nodes = (
"598 657 OFFCURVE",
"640 544 OFFCURVE",
"587 368 CURVE SMOOTH",
"548 240 OFFCURVE",
"475 188 OFFCURVE",
"331 188 CURVE SMOOTH",
"191 188 OFFCURVE",
"151 235 OFFCURVE",
"188 360 CURVE SMOOTH",
"244 541 OFFCURVE",
"358 657 OFFCURVE",
"479 657 CURVE SMOOTH"
);
}
);
width = 787;
}
);
note = uni1E52;
unicode = 1E52;
},
{
glyphname = Omacrongrave;
lastChange = "2019-08-30 20:47:54 +0000";
layers = (
{
layerId = "4FCB07EB-01E7-4D87-AA20-FCB2BF85BBFF";
paths = (
{
closed = 1;
nodes = (
"555 1025 LINE",
"672 1010 LINE",
"555 1137 LINE",
"482 1137 LINE"
);
},
{
closed = 1;
nodes = (
"383 947 LINE",
"333 877 LINE",
"747 894 LINE",
"744 971 LINE"
);
},
{
closed = 1;
nodes = (
"312 742 OFFCURVE",
"146 594 OFFCURVE",
"78 364 CURVE SMOOTH",
"-14 54 OFFCURVE",
"62 -12 OFFCURVE",
"275 -14 CURVE SMOOTH",
"506 -16 OFFCURVE",
"598 54 OFFCURVE",
"697 364 CURVE SMOOTH",
"770 594 OFFCURVE",
"688 742 OFFCURVE",
"500 742 CURVE SMOOTH"
);
},
{
closed = 1;
nodes = (
"611 672 OFFCURVE",
"657 548 OFFCURVE",
"601 364 CURVE SMOOTH",
"556 213 OFFCURVE",
"462 173 OFFCURVE",
"331 173 CURVE SMOOTH",
"200 173 OFFCURVE",
"128 213 OFFCURVE",
"173 364 CURVE SMOOTH",
"229 548 OFFCURVE",
"349 672 OFFCURVE",
"480 672 CURVE SMOOTH"
);
}
);
width = 787;
},
{
layerId = "FBE4A9D6-0C93-4AEC-8266-BAD92744962A";
paths = (
{
closed = 1;
nodes = (
"546 1011 LINE",
"711 990 LINE",
"562 1152 LINE",
"454 1152 LINE"
);
},
{
closed = 1;
nodes = (
"375 961 LINE",
"303 861 LINE",
"763 880 LINE",
"758 987 LINE"
);
},
{
closed = 1;
nodes = (
"305 757 OFFCURVE",
"133 604 OFFCURVE",
"64 368 CURVE SMOOTH",
"-24 73 OFFCURVE",
"30 -27 OFFCURVE",
"275 -29 CURVE SMOOTH",
"520 -31 OFFCURVE",
"613 52 OFFCURVE",
"711 359 CURVE SMOOTH",
"786 596 OFFCURVE",
"701 757 OFFCURVE",
"500 757 CURVE SMOOTH"
);
},
{
closed = 1;
nodes = (
"598 657 OFFCURVE",
"640 545 OFFCURVE",
"587 368 CURVE SMOOTH",
"548 240 OFFCURVE",
"475 188 OFFCURVE",
"331 188 CURVE SMOOTH",
"190 188 OFFCURVE",
"150 236 OFFCURVE",
"187 360 CURVE SMOOTH",
"242 540 OFFCURVE",
"358 657 OFFCURVE",
"480 657 CURVE SMOOTH"
);
}
);
width = 787;
}
);
note = uni1E50;
unicode = 1E50;
},
{
glyphname = Oopen;
lastChange = "2019-08-30 20:47:54 +0000";
layers = (
{
layerId = "4FCB07EB-01E7-4D87-AA20-FCB2BF85BBFF";
paths = (
{
closed = 1;
nodes = (
"232 656 LINE",
"325 672 OFFCURVE",
"324 672 OFFCURVE",
"402 672 CURVE SMOOTH",
"554 672 OFFCURVE",
"623 561 OFFCURVE",
"565 368 CURVE SMOOTH",
"513 197 OFFCURVE",
"396 139 OFFCURVE",
"244 139 CURVE SMOOTH",
"166 139 OFFCURVE",
"131 144 OFFCURVE",
"91 159 CURVE",
"40 -13 LINE",
"324 -13 LINE SMOOTH",
"498 -13 OFFCURVE",
"534 0 OFFCURVE",
"644 368 CURVE SMOOTH",
"714 602 OFFCURVE",
"633 746 OFFCURVE",
"430 746 CURVE SMOOTH",
"349 746 OFFCURVE",
"328 744 OFFCURVE",
"242 732 CURVE"
);
}
);
width = 709;
},
{
layerId = "FBE4A9D6-0C93-4AEC-8266-BAD92744962A";
paths = (
{
closed = 1;
nodes = (
"214 638 LINE",
"328 657 OFFCURVE",
"319 657 OFFCURVE",
"402 657 CURVE SMOOTH",
"548 657 OFFCURVE",
"604 550 OFFCURVE",
"551 372 CURVE SMOOTH",
"505 223 OFFCURVE",
"408 154 OFFCURVE",
"244 154 CURVE SMOOTH",
"159 154 OFFCURVE",
"127 160 OFFCURVE",
"81 179 CURVE",
"20 -28 LINE",
"324 -28 LINE SMOOTH",
"520 -28 OFFCURVE",
"553 12 OFFCURVE",
"658 364 CURVE SMOOTH",
"731 607 OFFCURVE",
"643 761 OFFCURVE",
"430 761 CURVE SMOOTH",
"345 761 OFFCURVE",
"324 759 OFFCURVE",
"229 745 CURVE"
);
}
);
width = 709;
}
);
note = uni0186;
unicode = 0186;
},
{
glyphname = Oslashacute;
lastChange = "2019-08-30 20:47:54 +0000";
layers = (
{
layerId = "4FCB07EB-01E7-4D87-AA20-FCB2BF85BBFF";
paths = (
{
closed = 1;
nodes = (
"777 1028 LINE",
"730 1028 LINE",
"615 874 LINE",
"685 874 LINE"
);
},
{
closed = 1;
nodes = (
"1008 845 LINE",
"878 819 LINE",
"772 703 LINE",
"736 728 OFFCURVE",
"688 742 OFFCURVE",
"631 742 CURVE SMOOTH",
"443 742 OFFCURVE",
"277 594 OFFCURVE",
"209 364 CURVE SMOOTH",
"165 216 OFFCURVE",
"160 124 OFFCURVE",
"188 67 CURVE",
"40 -96 LINE",
"262 -18 LINE",
"277 1 LINE",
"312 -9 OFFCURVE",
"356 -14 OFFCURVE",
"407 -14 CURVE SMOOTH",
"638 -16 OFFCURVE",
"728 54 OFFCURVE",
"827 364 CURVE SMOOTH",
"863 478 OFFCURVE",
"862 571 OFFCURVE",
"828 637 CURVE"
);
},
{
closed = 1;
nodes = (
"361 548 OFFCURVE",
"480 672 OFFCURVE",
"611 672 CURVE SMOOTH",
"653 672 OFFCURVE",
"685 659 OFFCURVE",
"710 635 CURVE",
"321 210 LINE",
"290 238 OFFCURVE",
"282 286 OFFCURVE",
"305 364 CURVE SMOOTH"
);
},
{
closed = 1;
nodes = (
"687 213 OFFCURVE",
"593 173 OFFCURVE",
"462 173 CURVE SMOOTH",
"450 173 OFFCURVE",
"438 173 OFFCURVE",
"427 174 CURVE",
"752 548 LINE",
"759 499 OFFCURVE",
"754 436 OFFCURVE",
"732 364 CURVE SMOOTH"
);
}
);
width = 1048;
},
{
layerId = "FBE4A9D6-0C93-4AEC-8266-BAD92744962A";
paths = (
{
closed = 1;
nodes = (
"803 1043 LINE",
"722 1043 LINE",
"585 859 LINE",
"694 859 LINE"
);
},
{
closed = 1;
nodes = (
"1048 868 LINE",
"870 833 LINE",
"769 722 LINE",
"732 745 OFFCURVE",
"684 757 OFFCURVE",
"631 757 CURVE SMOOTH",
"436 757 OFFCURVE",
"264 604 OFFCURVE",
"195 368 CURVE SMOOTH",
"153 228 OFFCURVE",
"145 132 OFFCURVE",
"170 70 CURVE",
"-11 -130 LINE",
"271 -31 LINE",
"283 -16 LINE",
"317 -25 OFFCURVE",
"359 -29 OFFCURVE",
"407 -29 CURVE SMOOTH",
"651 -31 OFFCURVE",
"743 51 OFFCURVE",
"841 359 CURVE SMOOTH",
"876 470 OFFCURVE",
"878 565 OFFCURVE",
"846 635 CURVE"
);
},
{
closed = 1;
nodes = (
"374 540 OFFCURVE",
"489 657 OFFCURVE",
"611 657 CURVE SMOOTH",
"642 657 OFFCURVE",
"667 649 OFFCURVE",
"688 634 CURVE",
"321 232 LINE",
"302 259 OFFCURVE",
"302 300 OFFCURVE",
"319 360 CURVE SMOOTH"
);
},
{
closed = 1;
nodes = (
"679 240 OFFCURVE",
"606 188 OFFCURVE",
"462 188 CURVE SMOOTH",
"461 188 OFFCURVE",
"460 188 OFFCURVE",
"459 188 CURVE",
"740 511 LINE",
"741 468 OFFCURVE",
"733 420 OFFCURVE",
"718 368 CURVE SMOOTH"
);
}
);
width = 1048;
}
);
note = Oslashacute;
unicode = 01FE;
},
{
glyphname = Otildeacute;
lastChange = "2019-08-30 20:47:54 +0000";
layers = (
{
layerId = "4FCB07EB-01E7-4D87-AA20-FCB2BF85BBFF";
paths = (
{
closed = 1;
nodes = (
"713 1190 LINE",
"596 1036 LINE",
"666 1036 LINE",
"759 1190 LINE"
);
},
{
closed = 1;
nodes = (
"428 827 LINE",
"440 870 OFFCURVE",
"458 933 OFFCURVE",
"494 932 CURVE SMOOTH",
"528 931 OFFCURVE",
"515 828 OFFCURVE",
"581 827 CURVE SMOOTH",
"630 826 OFFCURVE",
"660 831 OFFCURVE",
"705 977 CURVE",
"663 977 LINE",
"646 928 OFFCURVE",
"640 877 OFFCURVE",
"594 877 CURVE SMOOTH",
"554 877 OFFCURVE",
"568 977 OFFCURVE",
"508 977 CURVE SMOOTH",
"443 977 OFFCURVE",
"419 944 OFFCURVE",
"377 827 CURVE"
);
},
{
closed = 1;
nodes = (
"312 742 OFFCURVE",
"146 594 OFFCURVE",
"78 364 CURVE SMOOTH",
"-14 54 OFFCURVE",
"62 -12 OFFCURVE",
"275 -14 CURVE SMOOTH",
"506 -16 OFFCURVE",
"596 54 OFFCURVE",
"695 364 CURVE SMOOTH",
"768 594 OFFCURVE",
"688 742 OFFCURVE",
"500 742 CURVE SMOOTH"
);
},
{
closed = 1;
nodes = (
"610 672 OFFCURVE",
"657 548 OFFCURVE",
"601 364 CURVE SMOOTH",
"556 213 OFFCURVE",
"461 173 OFFCURVE",
"330 173 CURVE SMOOTH",
"199 173 OFFCURVE",
"128 213 OFFCURVE",
"173 364 CURVE SMOOTH",
"229 548 OFFCURVE",
"348 672 OFFCURVE",
"479 672 CURVE SMOOTH"
);
}
);
width = 799;
},
{
layerId = "FBE4A9D6-0C93-4AEC-8266-BAD92744962A";
paths = (
{
closed = 1;
nodes = (
"706 1205 LINE",
"566 1021 LINE",
"674 1021 LINE",
"786 1205 LINE"
);
},
{
closed = 1;
nodes = (
"439 812 LINE",
"460 888 OFFCURVE",
"476 917 OFFCURVE",
"494 917 CURVE SMOOTH",
"503 917 OFFCURVE",
"510 813 OFFCURVE",
"581 812 CURVE SMOOTH",
"656 810 OFFCURVE",
"682 847 OFFCURVE",
"725 992 CURVE",
"652 992 LINE",
"632 937 OFFCURVE",
"629 892 OFFCURVE",
"594 892 CURVE SMOOTH",
"576 892 OFFCURVE",
"579 992 OFFCURVE",
"508 992 CURVE SMOOTH",
"434 992 OFFCURVE",
"406 955 OFFCURVE",
"356 812 CURVE"
);
},
{
closed = 1;
nodes = (
"305 757 OFFCURVE",
"133 604 OFFCURVE",
"64 368 CURVE SMOOTH",
"-24 73 OFFCURVE",
"30 -27 OFFCURVE",
"275 -29 CURVE SMOOTH",
"519 -31 OFFCURVE",
"611 51 OFFCURVE",
"709 359 CURVE SMOOTH",
"785 597 OFFCURVE",
"701 757 OFFCURVE",
"500 757 CURVE SMOOTH"
);
},
{
closed = 1;
nodes = (
"598 657 OFFCURVE",
"640 544 OFFCURVE",
"587 368 CURVE SMOOTH",
"548 240 OFFCURVE",
"474 188 OFFCURVE",
"330 188 CURVE SMOOTH",
"190 188 OFFCURVE",
"150 235 OFFCURVE",
"187 360 CURVE SMOOTH",
"242 540 OFFCURVE",
"357 657 OFFCURVE",
"479 657 CURVE SMOOTH"
);
}
);
width = 799;
}
);
note = uni1E4C;
unicode = 1E4C;
},
{
glyphname = P;
lastChange = "2019-08-30 20:47:54 +0000";
layers = (
{
layerId = "4FCB07EB-01E7-4D87-AA20-FCB2BF85BBFF";
paths = (
{
closed = 1;
nodes = (
"40 0 LINE",
"176 0 LINE",
"239 274 LINE",
"351 280 LINE SMOOTH",
"504 288 OFFCURVE",
"592 361 OFFCURVE",
"636 505 CURVE SMOOTH",
"664 601 OFFCURVE",
"629 716 OFFCURVE",
"461 716 CURVE SMOOTH",
"291 716 LINE"
);
},
{
closed = 1;
nodes = (
"446 651 LINE SMOOTH",
"565 651 OFFCURVE",
"580 584 OFFCURVE",
"570 549 CURVE SMOOTH",
"538 441 OFFCURVE",
"492 423 OFFCURVE",
"401 419 CURVE SMOOTH",
"275 413 LINE",
"346 651 LINE"
);
}
);
width = 685;
},
{
layerId = "FBE4A9D6-0C93-4AEC-8266-BAD92744962A";
paths = (
{
closed = 1;
nodes = (
"19 -15 LINE",
"188 -15 LINE",
"251 260 LINE",
"352 265 LINE SMOOTH",
"508 273 OFFCURVE",
"604 349 OFFCURVE",
"650 501 CURVE SMOOTH",
"689 634 OFFCURVE",
"611 731 OFFCURVE",
"461 731 CURVE SMOOTH",
"280 731 LINE"
);
},
{
closed = 1;
nodes = (
"446 636 LINE SMOOTH",
"524 636 OFFCURVE",
"569 601 OFFCURVE",
"556 553 CURVE SMOOTH",
"528 462 OFFCURVE",
"497 438 OFFCURVE",
"400 434 CURVE SMOOTH",
"295 429 LINE",
"357 636 LINE"
);
}
);
width = 685;
}
);
note = P;
unicode = 0050;
},
{
glyphname = Pdotaccent;
lastChange = "2019-08-30 20:47:54 +0000";
layers = (
{
layerId = "4FCB07EB-01E7-4D87-AA20-FCB2BF85BBFF";
paths = (
{
closed = 1;
nodes = (
"476 882 LINE",
"445 781 LINE",
"537 781 LINE",
"569 882 LINE"
);
},
{
closed = 1;
nodes = (
"40 0 LINE",
"176 0 LINE",
"239 274 LINE",
"350 280 LINE SMOOTH",
"503 288 OFFCURVE",
"592 361 OFFCURVE",
"636 505 CURVE SMOOTH",
"664 601 OFFCURVE",
"630 716 OFFCURVE",
"462 716 CURVE SMOOTH",
"291 716 LINE"
);
},
{
closed = 1;
nodes = (
"446 651 LINE SMOOTH",
"565 651 OFFCURVE",
"581 584 OFFCURVE",
"571 549 CURVE SMOOTH",
"539 441 OFFCURVE",
"492 423 OFFCURVE",
"401 419 CURVE SMOOTH",
"276 413 LINE",
"347 651 LINE"
);
}
);
width = 685;
},
{
layerId = "FBE4A9D6-0C93-4AEC-8266-BAD92744962A";
paths = (
{
closed = 1;
nodes = (
"465 897 LINE",
"425 766 LINE",
"548 766 LINE",
"589 897 LINE"
);
},
{
closed = 1;
nodes = (
"19 -15 LINE",
"188 -15 LINE",
"251 260 LINE",
"351 265 LINE SMOOTH",
"508 273 OFFCURVE",
"604 349 OFFCURVE",
"650 501 CURVE SMOOTH",
"689 635 OFFCURVE",
"612 731 OFFCURVE",
"462 731 CURVE SMOOTH",
"280 731 LINE"
);
},
{
closed = 1;
nodes = (
"446 636 LINE SMOOTH",
"525 636 OFFCURVE",
"570 600 OFFCURVE",
"557 553 CURVE SMOOTH",
"530 462 OFFCURVE",
"497 438 OFFCURVE",
"400 434 CURVE SMOOTH",
"296 429 LINE",
"358 636 LINE"
);
}
);
width = 685;
}
);
note = uni1E56;
unicode = 1E56;
},
{
glyphname = Phook;
lastChange = "2019-08-30 20:47:54 +0000";
layers = (
{
layerId = "4FCB07EB-01E7-4D87-AA20-FCB2BF85BBFF";
paths = (
{
closed = 1;
nodes = (
"296 716 LINE",
"296 714 LINE",
"177 714 OFFCURVE",
"87 600 OFFCURVE",
"60 509 CURVE SMOOTH",
"40 442 LINE",
"69 343 LINE",
"80 379 OFFCURVE",
"101 449 OFFCURVE",
"117 485 CURVE SMOOTH",
"141 539 OFFCURVE",
"186 585 OFFCURVE",
"249 585 CURVE",
"260 613 LINE",
"46 0 LINE",
"181 0 LINE",
"244 274 LINE",
"356 280 LINE SMOOTH",
"508 288 OFFCURVE",
"597 361 OFFCURVE",
"641 505 CURVE SMOOTH",
"669 601 OFFCURVE",
"634 716 OFFCURVE",
"466 716 CURVE SMOOTH"
);
},
{
closed = 1;
nodes = (
"281 413 LINE",
"352 651 LINE",
"450 651 LINE SMOOTH",
"569 651 OFFCURVE",
"586 584 OFFCURVE",
"576 549 CURVE SMOOTH",
"544 441 OFFCURVE",
"497 423 OFFCURVE",
"406 419 CURVE SMOOTH"
);
}
);
width = 690;
},
{
layerId = "FBE4A9D6-0C93-4AEC-8266-BAD92744962A";
paths = (
{
closed = 1;
nodes = (
"281 731 LINE",
"281 728 LINE",
"179 720 OFFCURVE",
"80 629 OFFCURVE",
"46 513 CURVE SMOOTH",
"24 442 LINE",
"69 291 LINE",
"94 375 OFFCURVE",
"115 444 OFFCURVE",
"131 479 CURVE SMOOTH",
"158 541 OFFCURVE",
"206 574 OFFCURVE",
"259 570 CURVE",
"274 608 LINE",
"246 618 LINE",
"25 -15 LINE",
"193 -15 LINE",
"256 260 LINE",
"357 265 LINE SMOOTH",
"513 273 OFFCURVE",
"609 349 OFFCURVE",
"655 501 CURVE SMOOTH",
"694 634 OFFCURVE",
"616 731 OFFCURVE",
"466 731 CURVE SMOOTH"
);
},
{
closed = 1;
nodes = (
"301 429 LINE",
"363 636 LINE",
"450 636 LINE SMOOTH",
"529 636 OFFCURVE",
"575 600 OFFCURVE",
"562 553 CURVE SMOOTH",
"535 462 OFFCURVE",
"502 438 OFFCURVE",
"405 434 CURVE SMOOTH"
);
}
);
width = 690;
}
);
note = uni01A4;
unicode = 01A4;
},
{
glyphname = Thorn;
lastChange = "2019-08-30 20:47:54 +0000";
layers = (
{
layerId = "4FCB07EB-01E7-4D87-AA20-FCB2BF85BBFF";
paths = (
{
closed = 1;
nodes = (
"12 1 LINE",
"100 1 LINE",
"369 701 LINE",
"281 701 LINE"
);
},
{
closed = 1;
nodes = (
"281 145 OFFCURVE",
"499 199 OFFCURVE",
"537 328 CURVE SMOOTH",
"575 456 OFFCURVE",
"450 585 OFFCURVE",
"310 598 CURVE",
"193 460 OFFCURVE",
"123 283 OFFCURVE",
"136 145 CURVE"
);
},
{
closed = 1;
nodes = (
"190 275 OFFCURVE",
"229 353 OFFCURVE",
"246 399 CURVE SMOOTH",
"263 445 OFFCURVE",
"284 529 OFFCURVE",
"337 524 CURVE SMOOTH",
"394 519 OFFCURVE",
"484 416 OFFCURVE",
"466 370 CURVE SMOOTH",
"435 290 OFFCURVE",
"271 219 OFFCURVE",
"229 248 CURVE SMOOTH"
);
}
);
width = 680;
},
{
layerId = "FBE4A9D6-0C93-4AEC-8266-BAD92744962A";
paths = (
{
closed = 1;
nodes = (
"-10 -14 LINE",
"110 -14 LINE",
"391 716 LINE",
"271 716 LINE"
);
},
{
closed = 1;
nodes = (
"136 130 LINE",
"283 130 OFFCURVE",
"511 187 OFFCURVE",
"551 324 CURVE SMOOTH",
"590 454 OFFCURVE",
"469 598 OFFCURVE",
"311 613 CURVE",
"299 608 LINE",
"177 465 OFFCURVE",
"108 283 OFFCURVE",
"121 144 CURVE"
);
},
{
closed = 1;
nodes = (
"209 280 OFFCURVE",
"243 347 OFFCURVE",
"260 394 CURVE SMOOTH",
"277 441 OFFCURVE",
"295 513 OFFCURVE",
"336 509 CURVE SMOOTH",
"385 505 OFFCURVE",
"465 410 OFFCURVE",
"452 375 CURVE SMOOTH",
"428 313 OFFCURVE",
"276 234 OFFCURVE",
"238 260 CURVE SMOOTH"
);
}
);
width = 680;
}
);
unicode = 00DE;
},
